<svg width="26" height="24" viewBox="0 0 26 24" fill="none" xmlns="http://www.w3.org/2000/svg">
<path d="M21.9612 3.99936H6.73885L6.59201 3.41872C6.42886 2.67678 6.06176 2.07194 5.49072 1.6042C4.91968 1.13646 4.24259 0.902588 3.45945 0.902588H1.06108C0.767398 0.902588 0.522667 0.999362 0.326881 1.19291C0.131096 1.38646 0.0332031 1.64452 0.0332031 1.9671C0.0332031 2.25743 0.131096 2.49936 0.326881 2.69291C0.522667 2.88646 0.767398 2.98323 1.06108 2.98323H3.45945C4.07944 2.98323 4.43838 3.25743 4.53627 3.80581L6.93464 16.1929C7.13042 16.8703 7.51384 17.4187 8.08488 17.8381C8.65592 18.2574 9.28406 18.4671 9.96931 18.4671H19.8565C20.1828 18.4671 20.4438 18.3703 20.6396 18.1768C20.8354 17.9832 20.9333 17.7413 20.9333 17.451C20.9333 16.7413 20.5744 16.3865 19.8565 16.3865H9.96931C9.51248 16.3865 9.18617 16.1929 8.99039 15.8058L8.89249 15.3703H19.367C20.0196 15.3703 20.6151 15.1768 21.1536 14.7897C21.692 14.4026 22.0591 13.9026 22.2548 13.2897L25.0937 7.33807V7.09614C25.0937 6.22517 24.7919 5.4913 24.1882 4.89452C23.5846 4.29775 22.8422 3.99936 21.9612 3.99936ZM9.4309 13.2897H8.50092L7.13042 6.08001H9.4309V13.2897ZM13.5913 13.2897H11.5356V6.08001H13.5913V13.2897ZM17.8007 13.2897H15.696V6.08001H17.8007V13.2897ZM20.3949 12.4671V12.5639C20.297 12.8865 20.1175 13.0961 19.8565 13.1929V6.08001H21.9612C22.5485 6.08001 22.8912 6.3542 22.989 6.90259L20.3949 12.4671ZM12.5635 21.5639C12.5635 22.1445 12.3595 22.6365 11.9516 23.0397C11.5438 23.4429 11.0461 23.6445 10.4588 23.6445C9.90405 23.6445 9.42275 23.4429 9.01486 23.0397C8.60697 22.6365 8.40303 22.1445 8.40303 21.5639C8.40303 20.9832 8.60697 20.4913 9.01486 20.0881C9.42275 19.6848 9.90405 19.4832 10.4588 19.4832C11.0461 19.4832 11.5438 19.6848 11.9516 20.0881C12.3595 20.4913 12.5635 20.9832 12.5635 21.5639ZM20.9333 21.5639C20.9333 22.1445 20.7294 22.6365 20.3215 23.0397C19.9136 23.4429 19.416 23.6445 18.8286 23.6445C18.2412 23.6445 17.7436 23.4429 17.3357 23.0397C16.9279 22.6365 16.7239 22.1445 16.7239 21.5639C16.7239 20.9832 16.9279 20.4913 17.3357 20.0881C17.7436 19.6848 18.2412 19.4832 18.8286 19.4832C19.416 19.4832 19.9136 19.6848 20.3215 20.0881C20.7294 20.4913 20.9333 20.9832 20.9333 21.5639Z" fill="#33383A"/>
</svg>
