<svg width="24" height="25" viewBox="0 0 24 25" fill="none" xmlns="http://www.w3.org/2000/svg">
<path d="M11.5312 19.8197L11.2583 19.1211L11.5312 19.8197ZM7.47478 20.5986L7.09978 21.2481L7.09978 21.2481L7.47478 20.5986ZM6.12116 16.6962L5.37971 16.8091L6.12116 16.6962ZM6.61146 14.0939L7.26098 14.4689L6.61146 14.0939ZM6.02731 15.3312L5.29028 15.1923L5.29028 15.1923L6.02731 15.3312ZM13.5397 18.0939L14.1892 18.4689L13.5397 18.0939ZM12.7602 19.2184L13.249 19.7873L13.249 19.7873L12.7602 19.2184ZM10.4099 7.51483L9.76038 7.13983L10.4099 7.51483ZM16.6886 11.1398L12.8901 17.7189L14.1892 18.4689L17.9876 11.8898L16.6886 11.1398ZM7.26098 14.4689L11.0594 7.88983L9.76038 7.13983L5.96194 13.7189L7.26098 14.4689ZM11.2583 19.1211C10.1618 19.5495 9.41502 19.8392 8.83854 19.9739C8.28167 20.104 8.02898 20.0525 7.84978 19.9491L7.09978 21.2481C7.75305 21.6253 8.45392 21.6042 9.17981 21.4346C9.88609 21.2696 10.7513 20.9296 11.8041 20.5182L11.2583 19.1211ZM5.37971 16.8091C5.5499 17.9265 5.68805 18.8458 5.89829 19.54C6.11436 20.2534 6.44651 20.871 7.09978 21.2481L7.84978 19.9491C7.67059 19.8456 7.49965 19.6525 7.33389 19.1052C7.16229 18.5386 7.03986 17.747 6.86261 16.5833L5.37971 16.8091ZM5.96194 13.7189C5.64012 14.2763 5.38246 14.7031 5.29028 15.1923L6.76434 15.47C6.7983 15.2898 6.88802 15.1149 7.26098 14.4689L5.96194 13.7189ZM6.86261 16.5833C6.7503 15.8459 6.73039 15.6503 6.76434 15.47L5.29028 15.1923C5.1981 15.6815 5.2828 16.1728 5.37971 16.8091L6.86261 16.5833ZM12.8901 17.7189C12.5172 18.3649 12.4105 18.5301 12.2715 18.6496L13.249 19.7873C13.6266 19.4629 13.8674 19.0263 14.1892 18.4689L12.8901 17.7189ZM11.8041 20.5182C12.4036 20.284 12.8714 20.1117 13.249 19.7873L12.2715 18.6496C12.1324 18.7691 11.953 18.8496 11.2583 19.1211L11.8041 20.5182ZM15.499 6.70025C16.3339 7.18226 16.8939 7.50742 17.2797 7.80518C17.6483 8.08964 17.7658 8.28124 17.8135 8.45926L19.2623 8.07103C19.0956 7.44885 18.6976 7.00465 18.1961 6.61766C17.7119 6.24396 17.0471 5.86202 16.249 5.40121L15.499 6.70025ZM17.9876 11.8898C18.4484 11.0917 18.8331 10.4286 19.0657 9.8628C19.3065 9.27691 19.4291 8.69321 19.2623 8.07103L17.8135 8.45926C17.8612 8.63727 17.8553 8.86192 17.6783 9.29258C17.493 9.74337 17.1706 10.305 16.6886 11.1398L17.9876 11.8898ZM16.249 5.40121C15.4509 4.94041 14.7877 4.5557 14.222 4.32318C13.6361 4.08238 13.0524 3.95977 12.4302 4.12649L12.8184 5.57537C12.9964 5.52768 13.2211 5.53357 13.6518 5.71057C14.1025 5.89584 14.6641 6.21824 15.499 6.70025L16.249 5.40121ZM11.0594 7.88983C11.5414 7.05497 11.8666 6.49497 12.1643 6.10912C12.4488 5.7405 12.6404 5.62307 12.8184 5.57537L12.4302 4.12649C11.808 4.2932 11.3638 4.69123 10.9768 5.19271C10.6031 5.67696 10.2212 6.3417 9.76038 7.13983L11.0594 7.88983ZM17.7131 10.8653L10.7849 6.86531L10.0349 8.16435L16.9631 12.1644L17.7131 10.8653Z" fill="#2D264B"/>
</svg>
