<svg width="478" height="487" viewBox="0 0 478 487" fill="none" xmlns="http://www.w3.org/2000/svg">
<path d="M90.2396 142.592C90.2396 142.592 68.567 151.165 65.3799 171.99C62.1927 192.815 111.441 253.817 111.441 253.817L263.315 171.977L215.297 87.7089L90.2396 142.592Z" fill="#C7DCF9"/>
<path d="M123.819 162.275C123.819 162.275 107.839 178.683 102.937 196.837C98.0354 214.991 97.4043 247.411 98.2203 259.554C122.06 281.615 216.291 263.13 216.291 263.13L307.1 156.309C307.1 156.309 291.706 127.083 283.891 119.07C276.076 111.058 250.744 101.095 221.518 112.855C204.365 137.199 123.819 162.275 123.819 162.275Z" fill="#E1ECFF"/>
<g style="mix-blend-mode:multiply">
<path d="M116.687 170.76C116.687 170.76 151.943 182.074 191.629 166.744C231.316 151.414 238.506 108.234 238.506 108.234L221.499 112.862L123.819 162.275L116.687 170.76Z" fill="#E1ECFF"/>
</g>
<path d="M260.21 303.211C260.21 303.211 304.786 303.498 317.311 306.698C329.837 309.898 362.99 384.93 376.707 392.113C390.424 399.297 402.077 387.365 417.19 378.504C432.304 369.644 446.155 358.922 446.588 354.448C447.022 349.973 440.603 332.093 435.051 328.485C429.499 324.877 413.378 324.622 404.779 330.13C392.146 295.709 374.183 245.511 357.712 238.601C341.24 231.692 291.323 228.402 291.323 228.402L260.21 303.211Z" fill="#E1ECFF"/>
<g style="mix-blend-mode:multiply" opacity="0.51">
<path d="M307.1 270.358C307.1 270.358 343.395 274.329 353.422 287.836C363.448 301.344 383.317 383.993 405.557 385.95C405.914 412.722 359.853 422.391 359.853 422.391L249.444 299.712L307.1 270.358Z" fill="#E1ECFF"/>
</g>
<path d="M140.45 296.442C140.45 296.442 167.859 353.931 192.719 369.612C217.579 385.293 262.62 384.024 275.043 394.293C287.467 404.562 284.841 453.893 297.258 466.96C309.675 480.028 327.147 488.034 343.478 486.561C359.809 485.089 372.876 477.255 373.042 469.905C373.207 462.556 372.551 456.182 364.876 452.261C357.202 448.341 346.391 445.078 345.925 440.507C345.46 435.937 336.778 366.355 333.177 347.442C329.575 328.53 301.605 302.223 265.558 288.971C231.424 260.389 178.995 272.634 178.995 272.634L140.45 296.442Z" fill="#E1ECFF"/>
<g style="mix-blend-mode:multiply">
<path d="M148.424 311.823C148.424 311.823 179.881 313.429 208.132 301.018C202.733 272.27 186.077 263.78 186.077 263.78L140.45 296.442L148.424 311.823Z" fill="#E1ECFF"/>
</g>
<path d="M191.954 11.5997C167.318 -1.58868 115.686 -6.03793 83.8144 33.4891C51.9429 73.0161 67.8276 114.009 81.22 133.094C95.2435 153.122 143.446 183.731 194.893 154.983C246.34 126.235 251.733 43.6115 191.954 11.5997Z" fill="#E1ECFF"/>
<path d="M187.715 35.7711C209.598 40.998 223.813 71.703 216.464 101.101C209.114 130.499 183.795 150.266 155.379 150.426C126.962 150.585 98.7047 131.182 98.8577 94.899C99.0107 60.0316 140.195 24.4248 187.715 35.7711Z" fill="#1C3177"/>
<g style="mix-blend-mode:multiply">
<path d="M124.667 265.412C153.179 252.179 131.851 221.964 160.274 215.093C197.749 220.422 208.113 218.509 208.113 218.509C208.113 218.509 136.421 281.475 124.667 265.412Z" fill="#E1ECFF"/>
</g>
<path d="M148.424 184.598L195.874 306.698L263.002 305.098L324.412 266.227L342.706 210.695L298.284 77.4207L276.72 139.812L220.862 184.235L148.424 184.598Z" fill="#FF97C9"/>
<path d="M124.667 265.412C140.399 264.137 148.411 253.893 153.179 249.348C155.608 247.028 155.124 244.995 153.9 238.302C152.676 231.609 156.921 224.744 162.722 221.805C165.909 230.378 169.823 232.004 172.844 231.602C175.866 231.201 178.97 213.149 188.85 213.308C198.73 213.467 206.653 226.541 207.973 233.068C209.292 239.596 202.912 258.215 194.906 271.282C186.899 284.35 175.604 300.528 150.177 305.589C124.75 310.65 110.293 297.666 101.962 281.252C99.1509 275.712 98.1374 268.057 98.2266 259.528C98.2266 259.528 103.919 267.043 124.667 265.412Z" fill="#E1ECFF"/>
<path d="M313.582 123.322C313.582 123.322 316.61 133.17 314.57 137.008C312.531 140.845 309.751 144.019 307.712 148.934C305.672 153.849 308.693 172.372 317.675 175.553C326.656 178.734 334.089 170.409 336.46 165.59C338.831 160.771 337.518 148.118 334.006 139.296C330.493 130.474 323.89 122.634 313.582 123.322Z" fill="#E1ECFF"/>
<path d="M323.909 0.961057L325.923 5.0406C326.044 5.28781 326.223 5.5018 326.445 5.66399C326.667 5.82618 326.926 5.93166 327.198 5.97126L331.704 6.60869C332.019 6.65381 332.316 6.78635 332.559 6.99128C332.803 7.19621 332.984 7.46531 333.082 7.76802C333.18 8.07074 333.192 8.39494 333.115 8.7038C333.038 9.01267 332.876 9.29383 332.648 9.51536L329.391 12.7025C329.193 12.8945 329.044 13.1318 328.959 13.3939C328.873 13.656 328.853 13.9351 328.9 14.2068L329.665 18.6689C329.719 18.9818 329.684 19.3036 329.565 19.5979C329.446 19.8922 329.247 20.1473 328.99 20.3343C328.733 20.5213 328.429 20.6328 328.113 20.6562C327.796 20.6795 327.479 20.6138 327.198 20.4664L323.163 18.3501C322.919 18.2212 322.648 18.1538 322.372 18.1538C322.097 18.1538 321.826 18.2212 321.582 18.3501L317.547 20.4664C317.266 20.6155 316.948 20.6827 316.63 20.6602C316.312 20.6377 316.007 20.5265 315.75 20.3392C315.492 20.152 315.292 19.8961 315.173 19.6008C315.053 19.3055 315.019 18.9826 315.074 18.6689L315.845 14.2068C315.892 13.9351 315.872 13.656 315.786 13.3939C315.7 13.1318 315.552 12.8945 315.354 12.7025L312.097 9.51536C311.869 9.29383 311.707 9.01267 311.63 8.7038C311.553 8.39494 311.565 8.07074 311.663 7.76802C311.761 7.46531 311.942 7.19621 312.186 6.99128C312.429 6.78635 312.725 6.65381 313.04 6.60869L317.547 5.97126C317.819 5.93166 318.078 5.82618 318.3 5.66399C318.522 5.5018 318.701 5.28781 318.822 5.0406L320.836 0.961057C320.976 0.672916 321.195 0.429995 321.466 0.260055C321.738 0.0901148 322.052 0 322.372 0C322.693 0 323.007 0.0901148 323.278 0.260055C323.55 0.429995 323.768 0.672916 323.909 0.961057Z" fill="#FEC272"/>
<path d="M108.253 432.686L109.943 436.109C110.043 436.317 110.194 436.496 110.38 436.632C110.567 436.768 110.785 436.855 111.013 436.887L114.793 437.435C115.057 437.473 115.304 437.585 115.508 437.757C115.711 437.928 115.863 438.154 115.945 438.407C116.027 438.66 116.037 438.931 115.973 439.19C115.909 439.448 115.774 439.684 115.584 439.87L112.849 442.534C112.681 442.697 112.556 442.898 112.485 443.12C112.414 443.343 112.399 443.579 112.441 443.809L113.079 447.57C113.122 447.832 113.092 448.102 112.992 448.348C112.891 448.594 112.724 448.808 112.509 448.965C112.294 449.121 112.04 449.215 111.775 449.236C111.509 449.256 111.244 449.202 111.007 449.081L107.629 447.302C107.424 447.196 107.197 447.14 106.966 447.14C106.735 447.14 106.508 447.196 106.303 447.302L102.937 449.068C102.701 449.192 102.435 449.248 102.168 449.229C101.902 449.209 101.646 449.116 101.431 448.958C101.215 448.801 101.047 448.586 100.948 448.339C100.848 448.091 100.819 447.82 100.866 447.557L101.503 443.796C101.542 443.566 101.525 443.33 101.453 443.108C101.381 442.886 101.256 442.684 101.089 442.521L98.3605 439.857C98.1698 439.671 98.035 439.436 97.9712 439.177C97.9074 438.919 97.9171 438.647 97.9993 438.394C98.0815 438.141 98.233 437.916 98.4364 437.744C98.6399 437.572 98.8874 437.461 99.1509 437.422L102.924 436.874C103.154 436.842 103.372 436.754 103.56 436.619C103.747 436.483 103.899 436.304 104.002 436.096L105.691 432.673C105.81 432.434 105.993 432.234 106.22 432.094C106.448 431.954 106.709 431.881 106.976 431.882C107.243 431.883 107.504 431.959 107.73 432.101C107.955 432.243 108.137 432.446 108.253 432.686Z" fill="#FEC272"/>
<g style="mix-blend-mode:soft-light" opacity="0.48">
<path d="M168.614 72.4223C184.301 68.9646 196.026 61.6634 194.803 56.1147C193.58 50.5659 179.872 48.8707 164.185 52.3284C148.498 55.786 136.772 63.0872 137.995 68.636C139.218 74.1848 152.927 75.88 168.614 72.4223Z" fill="white"/>
</g>
<g style="mix-blend-mode:multiply">
<path d="M204.34 251.375C204.34 251.375 186.294 235.248 183.024 235.248C179.754 235.248 171.047 247.997 173.01 251.375C174.973 254.754 185.057 265.82 196.129 269.223C199.718 262.377 204.34 251.375 204.34 251.375Z" fill="#E1ECFF"/>
</g>
<g style="mix-blend-mode:multiply" opacity="0.5">
<path d="M220.862 184.235L263.002 305.098L324.412 266.227L276.72 139.812L220.862 184.235Z" fill="#FF97C9"/>
</g>
<g style="mix-blend-mode:multiply">
<path d="M336.791 370.53C330.475 375.763 323.377 379.972 315.756 383.005C308.61 385.758 306.195 391.393 308.355 401.732C310.516 412.071 311.727 428.192 316.189 432.437C320.651 436.683 336.001 434.426 343.956 424.559C341.463 405.117 336.791 370.53 336.791 370.53Z" fill="#E1ECFF"/>
</g>
<g style="mix-blend-mode:multiply">
<path d="M378.383 265.118C378.383 265.118 369.459 269.007 370.307 275.209C371.155 281.411 380.27 311.389 383.865 314.092C387.46 316.795 398.099 312.001 398.099 312.001C387.174 281.048 378.383 265.118 378.383 265.118Z" fill="#E1ECFF"/>
</g>
<path d="M1.78986 336.855C-5.30474 322.143 17.8148 306.398 37.4859 307.533C57.157 308.668 65.4245 326.828 72.3916 333.604C86.9441 347.742 86.4852 361.574 76.4074 367.521C66.3296 373.469 11.1792 356.315 1.78986 336.855Z" fill="#99ADF9"/>
<path d="M398.628 108.942C392.891 103.919 398.794 80.3083 412.346 74.7818C425.897 69.2553 442.726 75.2981 446.321 84.7704C449.916 94.2426 410.389 119.23 398.628 108.942Z" fill="#99ADF9"/>
<path d="M465.036 121.576C462.097 125.763 460.14 137.69 466.342 139.812C472.545 141.935 477.236 129.665 475.056 123.277C472.876 116.89 466.999 118.777 465.036 121.576Z" fill="#99ADF9"/>
<path opacity="0.44" d="M469.498 24.7946C464.87 26.9746 457.24 36.3448 461.574 41.2721C465.909 46.1995 476.063 37.8746 477.344 31.2518C478.626 24.6289 472.589 23.3413 469.498 24.7946Z" fill="#99ADF9"/>
<path opacity="0.44" d="M34.3371 398.756C30.334 395.568 18.5607 392.859 16.0492 398.921C13.5377 404.983 25.4959 410.395 31.9849 408.648C38.474 406.902 37.0015 400.885 34.3371 398.756Z" fill="#99ADF9"/>
<g style="mix-blend-mode:multiply" opacity="0.64">
<path d="M68.9048 329.569C61.7847 330.908 62.9321 337.275 65.2141 343.044C67.4961 348.813 75.5277 350.457 81.1945 345.186C77.5165 336.434 68.9048 329.569 68.9048 329.569Z" fill="#99ADF9"/>
</g>
<g style="mix-blend-mode:multiply" opacity="0.64">
<path d="M27.9755 319.963C22.876 320.53 18.72 327.912 22.3151 333.897C25.9102 339.883 32.7626 344.243 36.6828 342.611C40.603 340.979 41.2595 332.157 38.4293 326.496C35.5992 320.836 32.8773 319.415 27.9755 319.963Z" fill="#99ADF9"/>
</g>
<g style="mix-blend-mode:multiply" opacity="0.64">
<path d="M430.41 79.8685C427.612 80.7609 424.776 83.7887 425.024 87.0587C425.273 90.3287 428.128 93.1844 431.226 92.7955C434.324 92.4067 436.963 87.4029 436.326 83.8078C435.688 80.2127 432.546 79.1928 430.41 79.8685Z" fill="#99ADF9"/>
</g>
<g style="mix-blend-mode:multiply" opacity="0.64">
<path d="M400.776 86.2428C400.776 86.2428 404.601 90.0674 403.964 94.4082C403.326 98.7491 396.735 98.3476 396.735 98.3476C396.735 98.3476 397.717 90.947 400.776 86.2428Z" fill="#99ADF9"/>
</g>
</svg>
