<svg width="22" height="19" viewBox="0 0 22 19" fill="none" xmlns="http://www.w3.org/2000/svg">
<path d="M10.3463 3.25428L11.0943 4.09716L11.8422 3.25428C12.4743 2.54205 13.0435 1.9948 13.7197 1.61418C14.3781 1.24358 15.1948 1 16.357 1C17.4525 1 18.477 1.35493 19.2369 2.18644C20.0038 3.02554 20.6197 4.48004 20.6197 6.90946C20.6197 7.9114 20.0872 9.64554 18.5218 11.7006C17.0389 13.6472 14.6669 15.828 11.0943 17.8553C7.5216 15.828 5.1496 13.6472 3.66677 11.7006C2.1013 9.64554 1.56885 7.9114 1.56885 6.90946C1.56885 4.48004 2.18476 3.02554 2.95162 2.18644C3.71153 1.35493 4.73603 1 5.83156 1C6.99376 1 7.81049 1.24358 8.46884 1.61418C9.14501 1.9948 9.71428 2.54205 10.3463 3.25428Z" stroke="#33383A" stroke-width="2"/>
</svg>
