<svg width="244" height="245" viewBox="0 0 244 245" fill="none" xmlns="http://www.w3.org/2000/svg">
<g clip-path="url(#clip0)">
<path d="M8.5404 167.545H-4.3916V173.011H8.5404V167.545Z" fill="#EBEBEB"/>
<path d="M1.31774 174.426H-11.6143V179.892H1.31774V174.426Z" fill="#EBEBEB"/>
<path d="M15.7137 174.426H2.78174V179.892H15.7137V174.426Z" fill="#EBEBEB"/>
<path d="M177.389 21.5844H164.457V27.05H177.389V21.5844Z" fill="#EBEBEB"/>
<path d="M184.61 28.514H171.678V33.9796H184.61V28.514Z" fill="#EBEBEB"/>
<path d="M1.31774 21.6333H-11.6143V27.0989H1.31774V21.6333Z" fill="#EBEBEB"/>
<path d="M171.667 173.003H184.599V167.538H171.667V173.003Z" fill="#EBEBEB"/>
<path d="M140.801 110.057H153.733V104.592H140.801V110.057Z" fill="#EBEBEB"/>
<path d="M148.045 103.167H160.977V97.7011H148.045V103.167Z" fill="#EBEBEB"/>
<path d="M45.2378 52.426V0.209961" stroke="#C7C7C7" stroke-miterlimit="10"/>
<path d="M63.3424 69.8964L61.8784 73.1172H28.548L27.084 69.8964L41.2848 60.0876H49.1416L63.3424 69.8964Z" fill="#EBEBEB"/>
<path d="M50.1662 50.6204L49.1414 60.0876H41.2846L40.3086 50.6204H50.1662Z" fill="#DBDBDB"/>
<path d="M63.3424 69.8964L61.8784 73.1172H28.548L27.084 69.8964H63.3424Z" fill="#DBDBDB"/>
<path d="M79.9341 42.0804V0.209961" stroke="#C7C7C7" stroke-miterlimit="10"/>
<path d="M98.0875 59.5508L96.6235 62.7716H63.2443L61.7803 59.5508L75.9811 49.742H83.8867L98.0875 59.5508Z" fill="#EBEBEB"/>
<path d="M84.8625 40.2748L83.8865 49.742H75.9809L75.0049 40.2748H84.8625Z" fill="#DBDBDB"/>
<path d="M98.0875 59.5508L96.6235 62.7716H63.2443L61.7803 59.5508H98.0875Z" fill="#DBDBDB"/>
<path d="M218.77 210.587C218.77 216.98 175.436 222.201 122 222.201C68.5639 222.201 25.2295 216.98 25.2295 210.587C25.2295 204.194 68.5639 198.972 122 198.972C175.436 198.972 218.77 204.145 218.77 210.587Z" fill="#EBEBEB"/>
<path d="M142.74 145.488C143.082 147.928 142.984 150.465 142.35 152.905C142.057 154.028 141.667 155.101 141.227 156.175C140.642 157.541 140.007 158.859 140.154 160.323C140.3 160.42 139.812 160.42 139.812 160.274C135.859 158.029 130.784 157.59 127.759 153.93C126.295 152.173 125.611 149.977 125.221 147.781C124.831 145.39 124.733 142.706 125.367 140.315C125.904 138.314 127.075 136.362 128.93 135.386C130.882 134.361 133.419 134.459 135.469 135.093C139.91 136.46 142.106 141.242 142.74 145.488Z" fill="#447FAB"/>
<path d="M144.741 174.816C144.204 173.011 143.667 171.205 143.131 169.4C142.057 165.886 140.935 162.372 139.666 158.908C138.934 156.809 138.104 154.76 137.275 152.759C137.421 151.49 137.47 150.221 137.763 148.952C138.104 147.44 138.592 145.927 139.031 144.414C139.08 144.316 138.885 144.268 138.885 144.365C138.007 146.415 136.835 149.099 136.787 151.539C135.811 149.245 134.786 146.952 133.663 144.707C133.615 142.804 133.517 140.949 133.859 139.046C133.859 138.948 133.761 138.948 133.712 138.997C133.419 140.608 133.224 142.316 133.322 144.024C132.492 142.364 131.565 140.705 130.638 139.046C130.54 138.9 130.345 139.046 130.443 139.192C131.907 142.072 133.322 145 134.591 147.928C132.785 146.317 130.638 145.146 128.393 144.316C128.295 144.268 128.198 144.414 128.344 144.463C130.882 145.536 133.029 147.049 135.079 148.904C136.006 151.051 136.884 153.247 137.763 155.443C135.274 153.003 131.907 151.441 128.637 150.563C128.539 150.514 128.491 150.709 128.588 150.758C132.395 151.88 135.323 154.028 138.202 156.614C138.543 157.492 138.885 158.42 139.178 159.298C140.398 162.665 141.569 166.081 142.691 169.546C143.228 171.205 143.765 172.816 144.253 174.475C144.79 176.232 145.229 178.135 145.961 179.843C146.01 179.989 146.303 179.989 146.303 179.794C145.863 178.135 145.278 176.476 144.741 174.816Z" fill="#263238"/>
<path d="M138.202 142.023C137.47 143.096 137.031 144.316 136.787 145.585C136.787 145.634 136.835 145.634 136.835 145.585C137.275 144.365 137.811 143.243 138.397 142.12C138.446 142.023 138.251 141.925 138.202 142.023Z" fill="#263238"/>
<path d="M131.126 150.27C130.101 149.684 128.735 149.245 127.563 149.05C127.515 149.05 127.515 149.099 127.563 149.099C128.149 149.343 128.735 149.489 129.32 149.733C129.906 149.977 130.443 150.221 131.077 150.416C131.175 150.514 131.272 150.368 131.126 150.27Z" fill="#263238"/>
<path d="M129.125 140.364C128.783 140.12 128.393 139.827 128.003 139.68C127.954 139.632 127.905 139.729 127.954 139.778C128.247 140.071 128.735 140.266 129.076 140.51C129.125 140.559 129.223 140.412 129.125 140.364Z" fill="#263238"/>
<path d="M156.062 158.956C153.232 159.786 150.353 160.567 147.474 161.396C147.23 161.494 142.398 152.222 144.155 147.488C145.766 143.096 149.426 139.778 153.866 138.314C155.916 137.631 158.405 137.045 160.552 137.533C162.455 137.972 163.822 139.534 164.456 141.34C165.286 143.78 165.042 146.708 164.554 149.196C164.114 151.49 163.285 153.784 161.772 155.589C160.21 157.346 158.307 158.273 156.062 158.956Z" fill="#447FAB"/>
<path d="M160.21 150.172C158.405 151.1 156.55 151.734 154.598 152.368C153.378 152.759 152.012 153.1 150.89 153.735C152.11 151.051 153.427 148.416 154.794 145.829C156.648 145.292 158.551 144.463 159.966 143.145C160.064 143.096 159.966 142.95 159.869 143.048C158.356 144.121 156.697 144.756 154.989 145.488C155.379 144.804 155.77 144.072 156.16 143.389C156.258 143.194 156.014 142.999 155.867 143.194C154.354 145.341 153.037 147.635 151.817 149.977C151.524 147.879 151.426 145.878 151.524 143.731C151.524 143.682 151.426 143.682 151.426 143.731C151.085 145.976 151.085 148.367 151.475 150.563C150.499 152.564 149.572 154.613 148.742 156.663C148.401 155.443 148.01 154.174 147.718 152.954C147.327 151.148 147.132 149.294 147.327 147.488C147.327 147.44 147.23 147.44 147.23 147.488C146.693 150.758 147.181 154.467 148.45 157.541C147.962 158.81 147.522 160.03 147.083 161.299C144.936 167.692 143.667 174.328 143.277 181.063C143.277 181.209 143.521 181.258 143.521 181.063C144.302 174.426 145.668 167.838 147.766 161.543C148.596 159.054 149.523 156.663 150.597 154.272C152.256 153.784 153.964 153.1 155.623 152.515C157.234 151.978 158.893 151.295 160.259 150.27C160.308 150.221 160.259 150.124 160.21 150.172Z" fill="#263238"/>
<path d="M162.846 147.488C161.089 148.123 159.43 148.952 157.722 149.587C157.624 149.636 157.673 149.733 157.77 149.733C159.625 149.343 161.43 148.806 162.943 147.586C162.992 147.537 162.943 147.488 162.846 147.488Z" fill="#263238"/>
<path d="M148.645 143.731C148.645 143.633 148.547 143.584 148.498 143.682C148.01 145.292 147.669 147 148.157 148.66C148.157 148.708 148.254 148.708 148.303 148.66C148.352 146.952 148.254 145.341 148.645 143.731Z" fill="#263238"/>
<path d="M155.819 140.022C155.233 140.754 155.038 141.828 155.087 142.755C155.087 142.804 155.184 142.852 155.184 142.804C155.38 141.876 155.77 141.047 156.014 140.168C156.063 139.973 155.916 139.924 155.819 140.022Z" fill="#263238"/>
<path d="M122.147 163.007C122.976 165.642 124.977 169.302 128.1 169.351C130.15 169.351 132.199 169.107 134.249 169.107C136.445 169.058 138.641 169.058 140.837 169.204C141.032 169.204 140.593 162.665 135.323 159.444C133.859 158.566 132.053 158.273 130.394 157.883C128.491 157.444 126.49 157.2 124.538 157.297C123.318 157.346 122.342 157.59 121.903 158.859C121.415 160.176 121.756 161.738 122.147 163.007Z" fill="#447FAB"/>
<path d="M124.44 159.688C125.709 160.03 127.027 160.372 128.296 160.811C127.954 160.469 127.613 160.079 127.222 159.786C126.685 159.347 126.051 158.956 125.465 158.566C125.417 158.517 125.465 158.42 125.514 158.468C126.685 158.908 127.905 159.884 128.637 160.957C130.248 161.494 131.809 162.031 133.322 162.665C134.396 163.104 135.42 163.641 136.348 164.276C136.006 163.641 135.713 162.958 135.274 162.372C134.591 161.445 133.615 160.957 132.736 160.323C132.639 160.274 132.736 160.128 132.834 160.176C134.884 161.104 136.152 162.568 136.933 164.617C138.007 165.398 138.983 166.276 139.91 167.35C143.375 171.303 146.108 176.573 146.156 181.941C146.156 182.088 145.961 182.088 145.912 181.99C144.936 176.671 142.838 171.888 139.276 167.74C139.032 167.448 138.788 167.155 138.495 166.911C137.519 166.813 136.592 166.667 135.616 166.716C134.493 166.716 133.371 166.862 132.248 166.96C130.394 167.106 128.393 167.106 126.734 166.228C126.685 166.179 126.734 166.081 126.783 166.081C130.492 167.448 134.347 165.74 138.056 166.52C136.494 165.008 134.688 163.885 132.59 163.007C132.492 162.958 132.346 162.909 132.248 162.86C129.857 163.153 127.368 163.739 125.075 163.007C125.026 163.007 125.026 162.86 125.124 162.909C127.368 163.446 129.516 162.763 131.712 162.665C129.32 161.738 126.88 161.006 124.489 160.079C124.197 159.835 124.196 159.64 124.44 159.688Z" fill="#263238"/>
<path d="M123.367 162.031C124.538 162.226 125.66 162.226 126.831 162.275C126.88 162.275 126.88 162.324 126.831 162.324C125.709 162.568 124.44 162.421 123.367 162.08C123.318 162.08 123.318 162.031 123.367 162.031Z" fill="#263238"/>
<path d="M131.175 159.737C131.809 159.932 132.395 160.469 132.883 160.908C132.931 160.957 132.883 161.055 132.785 161.006C132.492 160.811 132.199 160.616 131.907 160.42C131.614 160.225 131.321 160.079 131.077 159.884C130.979 159.884 131.077 159.737 131.175 159.737Z" fill="#263238"/>
<path d="M149.768 168.277C149.719 168.375 149.865 168.424 149.914 168.375C149.914 168.375 149.963 168.424 150.012 168.424C152.159 168.863 154.257 169.351 156.453 169.546C158.21 169.692 160.211 169.79 161.724 168.765C163.773 167.399 165.14 163.739 164.017 161.396C162.7 158.615 158.747 160.128 156.746 161.104C153.623 162.665 151.134 165.203 149.768 168.277Z" fill="#447FAB"/>
<path d="M148.206 169.546C149.377 168.424 150.646 167.448 152.061 166.618C152.988 165.008 154.452 163.69 155.965 162.665C156.063 162.616 156.111 162.714 156.014 162.763C154.696 163.739 153.72 164.959 152.744 166.228C154.257 165.349 155.916 164.666 157.575 164.032C158.161 162.958 159.088 161.982 160.162 161.445C160.162 161.445 160.211 161.445 160.211 161.494C159.283 162.226 158.551 163.007 157.868 163.934C158.844 163.592 159.82 163.251 160.796 162.909C160.894 162.86 160.943 163.007 160.845 163.056C159.088 163.739 157.283 164.471 155.575 165.3C157.771 165.593 159.771 165.642 161.967 165.3C162.016 165.3 162.065 165.398 162.016 165.398C159.869 166.032 157.38 166.13 155.233 165.496C154.111 166.032 153.037 166.618 152.012 167.301C152.891 167.204 153.769 167.35 154.599 167.496C156.111 167.789 157.624 168.082 159.186 168.033C159.235 168.033 159.283 168.131 159.186 168.131C156.551 168.57 154.013 167.399 151.378 167.692C150.402 168.375 149.475 169.107 148.645 169.936C146.986 171.547 145.668 173.499 144.644 175.597C143.521 177.842 142.936 180.233 142.057 182.576C142.008 182.673 141.862 182.624 141.911 182.527C142.545 177.94 144.839 172.864 148.206 169.546Z" fill="#263238"/>
<path d="M156.209 163.251C156.355 162.958 156.648 162.665 156.892 162.421C157.136 162.226 157.38 161.933 157.673 161.836C157.722 161.836 157.722 161.884 157.722 161.884C157.527 162.128 157.185 162.324 156.941 162.568C156.697 162.812 156.502 163.104 156.258 163.3C156.258 163.348 156.209 163.3 156.209 163.251Z" fill="#263238"/>
<path d="M160.601 164.666C160.991 164.568 161.431 164.568 161.821 164.471C162.211 164.373 162.602 164.227 162.992 164.129C163.041 164.129 163.09 164.178 163.041 164.227C162.407 164.617 161.382 164.959 160.601 164.812C160.552 164.812 160.552 164.715 160.601 164.666Z" fill="#263238"/>
<path d="M137.226 176.866L137.616 180.819L138.788 194.19H149.28L150.744 180.819L151.183 176.866H137.226Z" fill="#455A64"/>
<path d="M137.226 176.866L137.616 180.819H150.744L151.183 176.866H137.226Z" fill="#263238"/>
<path d="M136.214 178.966H152.22V175.745H136.214V178.966Z" fill="#455A64"/>
<path d="M22.936 194.141L47.6776 194.044L72.468 193.995L122 193.897L171.532 193.995L196.322 194.044L221.064 194.141L196.322 194.288L171.532 194.336L122 194.385L72.468 194.336L47.6776 194.288L22.936 194.141Z" fill="#263238"/>
<path d="M72.9561 161.006L74.1273 167.936L81.9353 210.343H83.2041L77.4945 167.936L76.6649 161.006H72.9561Z" fill="#DBDBDB"/>
<path d="M76.6649 161.006H72.9561L74.1273 167.936H77.4945L76.6649 161.006Z" fill="#A6A6A6"/>
<path d="M48.312 210.343H49.5808L57.4376 167.936L58.56 161.006H54.8512L54.0216 167.936L48.312 210.343Z" fill="#DBDBDB"/>
<path d="M54.8511 161.006L54.0215 167.936H57.4375L58.5599 161.006H54.8511Z" fill="#A6A6A6"/>
<path d="M24.7905 210.343H26.0593L33.8673 167.936L35.0385 161.006H31.3297L30.5001 167.936L24.7905 210.343Z" fill="#DBDBDB"/>
<path d="M30.5 167.936H33.8672L35.0384 161.006H31.3296L30.5 167.936Z" fill="#A6A6A6"/>
<path d="M26.7915 164.276H84.2779V158.224H62.7571L55.5347 126.651H28.9875L26.7915 164.276Z" fill="#DBDBDB"/>
<path d="M26.7915 164.276H29.9147L31.9643 126.651H28.9875L26.7915 164.276Z" fill="#A6A6A6"/>
<path d="M83.8389 215.662C82.7653 215.808 53.1437 208.879 52.2165 207.952C52.1189 207.854 53.1437 202.144 53.1437 202.144C53.6317 199.802 61.6837 180.77 61.6837 180.77L81.0573 185.552L72.8101 203.218C72.8101 203.218 76.5189 205.707 79.6909 208.098C81.6429 209.562 83.3509 210.88 83.6925 211.319C84.6197 212.441 84.9125 215.564 83.8389 215.662Z" fill="#C95F50"/>
<path d="M52.1677 208C53.1437 208.928 82.7165 215.857 83.7901 215.711C84.8637 215.564 84.5709 212.49 83.6437 211.368C83.2533 210.928 81.5941 209.611 79.6421 208.147C76.4701 205.756 72.7613 203.267 72.7613 203.267L74.5669 199.314L55.8277 194.727C54.4125 198.289 53.2413 201.315 53.0461 202.144C53.0949 202.144 52.0701 207.903 52.1677 208Z" fill="#EBEBEB"/>
<path d="M83.9364 215.76C82.814 215.857 52.9972 209.172 52.0212 208.196C51.6308 207.854 52.3628 203.413 53.3876 198.143C53.3876 198.094 53.3876 198.045 53.4364 197.996L72.7124 202.096L72.6148 202.437C72.6148 202.437 82.9116 210.099 83.8388 211.27C84.766 212.441 85.01 215.662 83.9364 215.76Z" fill="#447FAB"/>
<path d="M83.8389 214.54C78.8613 213.271 58.5605 208.732 53.4853 207.854C53.4365 207.854 53.4365 207.854 53.4853 207.903C58.4141 209.269 78.7637 213.661 83.7901 214.637C83.9365 214.637 83.9365 214.588 83.8389 214.54Z" fill="#263238"/>
<path d="M74.8106 202.632C72.9074 201.803 70.4186 201.559 68.613 202.632C68.5642 202.681 68.613 202.779 68.6618 202.779C70.7602 202.584 72.6634 202.632 74.7618 202.876C74.9082 202.925 74.957 202.681 74.8106 202.632Z" fill="#263238"/>
<path d="M76.0308 203.804C74.1276 202.974 71.6388 202.73 69.8332 203.804C69.7844 203.852 69.8332 203.95 69.882 203.95C71.9804 203.755 73.8836 203.804 75.982 204.048C76.1284 204.096 76.1772 203.901 76.0308 203.804Z" fill="#263238"/>
<path d="M77.2998 205.024C75.3966 204.194 72.9078 203.95 71.1022 205.024C71.0534 205.072 71.1022 205.17 71.151 205.17C73.2494 204.975 75.1526 205.024 77.2511 205.268C77.3487 205.268 77.4462 205.072 77.2998 205.024Z" fill="#263238"/>
<path d="M78.3733 198.924C77.8365 197.704 76.2749 197.85 75.2989 198.338C73.6885 199.168 72.1269 200.632 71.2485 202.193C71.2485 202.242 71.2485 202.242 71.2973 202.291C71.2485 202.437 71.3461 202.632 71.5413 202.584C73.2981 202.34 75.2501 202.291 76.8605 201.559C77.7877 201.071 78.8613 200.095 78.3733 198.924ZM74.1277 201.656C73.2493 201.803 72.3709 201.9 71.5413 202.047C72.3221 201.315 73.1029 200.534 73.9813 199.851C74.4205 199.509 74.8109 199.216 75.2989 198.972C76.0309 198.582 78.6173 197.948 77.7389 200.046C77.2509 201.217 75.1525 201.51 74.1277 201.656Z" fill="#263238"/>
<path d="M66.3199 200.534C67.7839 201.608 69.6871 201.998 71.3951 202.535C71.5903 202.584 71.6879 202.437 71.6879 202.291C71.7367 202.291 71.7367 202.242 71.7367 202.193C71.1023 200.534 69.8335 198.777 68.4183 197.655C67.5399 196.972 66.0271 196.532 65.2951 197.655C64.5631 198.728 65.4415 199.9 66.3199 200.534ZM65.7343 198.924C65.2951 196.728 67.7351 197.801 68.3695 198.338C68.7599 198.68 69.1503 199.07 69.4919 199.46C70.2239 200.29 70.8095 201.168 71.4927 202.047C70.6631 201.705 69.8335 201.461 69.0039 201.168C67.9791 200.827 65.9783 200.144 65.7343 198.924Z" fill="#263238"/>
<path opacity="0.2" d="M75.2012 214.052C79.886 215.076 83.546 215.808 83.8876 215.76C85.01 215.662 84.766 212.441 83.79 211.27C83.4484 210.831 81.7892 209.513 79.886 208L75.2012 214.052Z" fill="black"/>
<path d="M74.0785 202.584L53.5337 197.752C53.5337 197.752 70.6625 158.468 69.1497 156.468C68.4177 155.492 49.2881 155.199 43.1881 150.026C35.2825 143.34 40.6017 133.092 40.6017 133.092L61.9761 132.458C61.9761 132.458 61.7321 136.899 62.5617 137.582C63.0985 138.021 88.5721 140.168 91.3537 148.757C94.7697 159.249 74.0785 202.584 74.0785 202.584Z" fill="#37474F"/>
<path d="M74.0782 199.412C73.5414 199.168 68.2222 197.606 67.051 197.313C64.6598 196.679 62.2198 196.093 59.8286 195.556C58.5598 195.264 55.8758 194.629 55.6806 194.678C55.583 194.678 55.583 194.824 55.6806 194.873C58.023 195.654 60.4142 196.288 62.7566 196.972C65.1478 197.655 73.2974 199.607 74.0294 199.656C74.0782 199.558 74.127 199.46 74.0782 199.412Z" fill="#263238"/>
<path d="M72.8094 154.711C72.3702 154.32 71.7358 154.32 71.199 154.223C68.1246 153.686 65.0503 153.198 61.927 152.661C59.0478 152.173 56.1198 151.734 53.2894 151.197C50.8982 150.758 48.507 150.124 46.4574 148.855C44.4078 147.586 42.9926 145.634 42.2606 143.34C41.5286 141.096 41.4798 138.656 41.7238 136.313C41.7726 135.728 41.8702 135.191 41.9678 134.605C41.9678 134.556 41.919 134.556 41.919 134.605C41.1382 138.997 41.0894 144.072 44.359 147.537C45.9694 149.245 48.1655 150.221 50.4102 150.904C52.9479 151.636 55.583 151.978 58.1694 152.417C61.2438 152.954 64.3182 153.442 67.4414 153.979C68.9054 154.223 70.4183 154.418 71.8823 154.711C72.1751 154.76 72.4678 154.857 72.663 155.052C72.9558 155.345 72.8582 155.784 72.8094 156.126C72.663 156.858 72.4679 157.59 72.2727 158.273C70.6135 164.032 58.1694 193.312 57.8278 193.946C57.779 193.995 57.8766 194.044 57.9254 193.995C60.7558 188.968 70.0278 165.886 71.931 160.469C72.419 159.103 72.8582 157.688 73.151 156.224C73.1998 155.638 73.2974 155.052 72.8094 154.711Z" fill="#263238"/>
<path d="M114.387 216.98C113.363 217.321 83.741 216.931 82.6186 216.199C81.3986 215.028 80.8618 187.065 80.8618 187.065L99.9426 186.919L101.114 206.976C101.114 206.976 105.213 208.684 108.824 210.392C111.02 211.416 112.972 212.392 113.411 212.734C114.485 213.661 115.412 216.638 114.387 216.98Z" fill="#C95F50"/>
<path d="M81.3501 203.608C81.6429 209.904 82.0333 215.662 82.5701 216.199C83.6925 216.931 113.314 217.321 114.339 216.98C115.364 216.638 114.485 213.661 113.314 212.734C112.875 212.392 110.972 211.416 108.727 210.392C105.164 208.684 101.016 206.976 101.016 206.976L100.821 203.608H81.3501Z" fill="#EBEBEB"/>
<path d="M114.973 216.98C113.9 217.321 83.3021 217.175 82.1797 216.443C81.7405 216.15 81.4965 211.709 81.3501 206.341C81.3501 206.292 81.3501 206.244 81.3501 206.195L101.065 206.048V206.39C101.065 206.39 112.729 211.66 113.948 212.636C115.12 213.564 116.047 216.638 114.973 216.98Z" fill="#447FAB"/>
<path d="M114.632 215.808C109.459 215.662 88.6704 215.516 83.5464 215.76C83.4976 215.76 83.4976 215.808 83.5464 215.808C88.6704 216.052 109.459 216.004 114.632 215.906C114.778 215.906 114.778 215.808 114.632 215.808Z" fill="#263238"/>
<path d="M103.262 206.146C101.212 205.756 98.7722 206.048 97.2106 207.512C97.1618 207.561 97.2105 207.659 97.3081 207.61C99.309 206.976 101.163 206.585 103.262 206.39C103.408 206.39 103.408 206.146 103.262 206.146Z" fill="#263238"/>
<path d="M104.726 207.024C102.676 206.634 100.236 206.927 98.6744 208.391C98.6256 208.44 98.6744 208.537 98.772 208.488C100.773 207.854 102.627 207.464 104.726 207.268C104.872 207.268 104.872 207.024 104.726 207.024Z" fill="#263238"/>
<path d="M106.189 207.903C104.14 207.512 101.7 207.805 100.138 209.269C100.089 209.318 100.138 209.416 100.236 209.367C102.237 208.732 104.091 208.342 106.189 208.147C106.336 208.147 106.336 207.952 106.189 207.903Z" fill="#263238"/>
<path d="M105.946 201.705C105.165 200.583 103.652 201.071 102.822 201.803C101.456 202.925 100.236 204.731 99.6992 206.439C99.6992 206.488 99.6992 206.488 99.748 206.488C99.748 206.634 99.8944 206.829 100.041 206.732C101.7 206.097 103.603 205.658 105.018 204.584C105.848 203.95 106.678 202.779 105.946 201.705ZM102.383 205.316C101.554 205.658 100.724 205.902 99.9432 206.244C100.578 205.365 101.114 204.438 101.846 203.56C102.188 203.169 102.53 202.779 102.92 202.388C103.506 201.852 105.897 200.68 105.555 202.925C105.36 204.194 103.359 204.926 102.383 205.316Z" fill="#263238"/>
<path d="M94.5262 205.902C96.1854 206.634 98.1374 206.585 99.8942 206.78C100.089 206.78 100.187 206.585 100.138 206.439C100.187 206.439 100.187 206.39 100.187 206.341C99.211 204.828 97.6006 203.413 95.9902 202.632C95.0142 202.144 93.4526 202.047 92.9158 203.316C92.4278 204.487 93.5502 205.463 94.5262 205.902ZM93.599 204.438C92.6718 202.388 95.307 202.925 96.039 203.267C96.4782 203.511 96.9662 203.804 97.3566 204.096C98.235 204.731 99.0158 205.512 99.8454 206.195C98.967 206.048 98.0886 206 97.2102 205.853C96.1854 205.804 94.087 205.56 93.599 204.438Z" fill="#263238"/>
<path d="M102.139 206.293H80.6665C80.6665 206.293 80.9593 167.497 79.2513 165.35C77.0065 162.47 45.5793 162.568 38.8449 153.198C32.7937 144.805 37.9177 132.898 37.9177 132.898L61.7321 132.214C61.7321 132.214 61.0001 135.972 59.5361 139.681C59.5361 139.681 88.1817 144.951 96.2337 153.735C101.602 159.689 102.139 206.293 102.139 206.293Z" fill="#37474F"/>
<path d="M63.6349 138.07C62.9517 138.168 62.2685 138.46 61.6341 138.704C60.9509 138.948 60.2677 139.241 59.6333 139.583C58.3157 140.217 57.0957 140.949 55.8757 141.73C55.8269 141.73 55.8757 141.828 55.9245 141.779C57.1933 141.096 58.5597 140.51 59.8773 139.924C60.5117 139.632 61.1461 139.388 61.7805 139.095C62.4149 138.802 63.0981 138.558 63.7325 138.216C63.7813 138.216 63.7325 138.07 63.6349 138.07Z" fill="#263238"/>
<path d="M62.2202 132.214C61.9274 133.288 61.7322 134.41 61.3906 135.484C61.2442 135.972 61.0978 136.46 60.9026 136.948C60.7562 137.338 60.5122 137.826 60.0242 137.924C59.4874 138.021 59.341 137.582 59.3898 137.143C59.4386 136.655 59.585 136.167 59.6826 135.679C59.7802 135.093 59.9266 134.556 60.0242 133.971C60.073 133.678 60.1218 133.385 60.1706 133.141C60.1706 133.092 60.2194 132.507 60.2682 132.36C60.2682 132.36 60.2682 132.409 60.317 132.36C60.317 132.36 60.3658 132.36 60.3658 132.312C60.3658 132.263 60.3658 132.263 60.317 132.214H60.2682C60.1706 132.263 60.1706 132.409 60.1218 132.507C60.0242 132.8 59.9266 133.044 59.8778 133.336C59.7314 133.873 59.585 134.361 59.4386 134.898C59.2922 135.435 59.1946 135.923 59.0482 136.46C58.9506 136.85 58.853 137.24 58.9506 137.68C59.0482 138.119 59.4386 138.363 59.7802 138.363C59.7802 138.412 59.7314 138.412 59.7314 138.46C59.6826 138.558 59.6338 138.704 59.585 138.802C59.5362 138.9 59.4874 139.046 59.4874 139.144C59.4874 139.192 59.4386 139.241 59.4386 139.29C59.4386 139.339 59.4386 139.436 59.4386 139.485C59.4386 139.583 59.5362 139.632 59.585 139.534C59.6338 139.485 59.6338 139.436 59.6826 139.388C59.7314 139.339 59.7314 139.29 59.7802 139.192C59.829 139.095 59.829 138.997 59.8778 138.851C59.9266 138.753 59.9266 138.607 59.9754 138.509C59.9754 138.46 59.9754 138.363 59.9754 138.314C60.2194 138.314 60.4146 138.216 60.6098 138.07C60.9514 137.826 61.1466 137.436 61.2442 137.094C61.3906 136.655 61.537 136.167 61.6834 135.728C61.9762 134.605 62.269 133.434 62.3666 132.214C62.4154 132.116 62.269 132.068 62.2202 132.214Z" fill="#263238"/>
<path d="M48.0679 134.849C47.9703 135.386 47.9215 135.923 47.7751 136.46C47.6775 136.996 47.5311 137.484 47.3359 138.021C47.1895 138.509 46.9455 138.997 46.6527 139.436C46.3599 139.827 45.9695 140.217 45.5791 140.51C44.7983 141.096 43.9687 141.584 43.0415 141.925C42.6023 142.072 42.1143 142.218 41.6263 142.316C41.3823 142.364 41.1383 142.413 40.8455 142.462C40.6503 142.511 40.4063 142.511 40.2111 142.608C40.1135 142.657 40.1623 142.804 40.2111 142.804C40.5527 142.95 40.9919 142.852 41.3335 142.852C41.7239 142.804 42.1631 142.755 42.5535 142.657C43.3343 142.462 44.1151 142.12 44.8471 141.681C45.5303 141.291 46.2623 140.754 46.7503 140.12C47.2871 139.485 47.5799 138.704 47.7751 137.875C48.0191 136.899 48.1655 135.825 48.1167 134.849C48.1655 134.8 48.0679 134.8 48.0679 134.849Z" fill="#263238"/>
<path d="M83.7408 179.404C83.5456 176.036 83.2528 172.669 82.9112 169.302C82.8136 168.472 82.7648 167.643 82.6184 166.813C82.5208 166.179 82.4232 165.544 82.1792 164.91C81.6912 163.641 80.6176 163.007 79.3488 162.665C77.836 162.275 76.2744 162.08 74.7616 161.787C73.2 161.543 71.6384 161.299 70.0768 161.104C66.9048 160.664 63.7328 160.274 60.5608 159.737C57.3888 159.2 54.2656 158.566 51.24 157.639C48.4096 156.809 45.5304 155.736 43.2856 153.784C38.4544 149.587 38.2592 142.56 38.8448 136.704C38.9424 135.874 39.04 135.044 39.1376 134.215C39.1376 134.166 39.0888 134.166 39.0888 134.215C38.6984 137.533 38.2592 140.852 38.6008 144.17C38.8936 146.903 39.6744 149.636 41.236 151.88C42.8952 154.223 45.2864 155.736 47.9216 156.809C50.8008 157.98 53.8264 158.761 56.852 159.396C63.1472 160.713 69.54 161.25 75.884 162.324C76.6648 162.47 77.4456 162.616 78.2264 162.763C78.9584 162.909 79.6904 163.007 80.3248 163.348C81.74 163.983 82.1792 165.398 82.3256 166.813C82.716 170.18 83.0088 173.548 83.2528 176.915C83.7408 183.698 83.9848 190.53 83.9848 197.313C83.9848 198.143 83.9848 200.973 83.9848 201.803C83.9848 201.9 84.0824 201.852 84.0824 201.803C84.2776 194.971 84.18 186.187 83.7408 179.404Z" fill="#263238"/>
<path d="M101.114 202.925C96.2337 202.584 82.2281 202.73 82.0817 202.779C81.9841 202.828 82.0329 202.925 82.0817 202.974C84.5217 203.169 100.382 203.218 101.065 203.12C101.211 203.072 101.211 202.925 101.114 202.925Z" fill="#263238"/>
<path d="M59.6335 139.778C64.0255 140.266 68.3687 141.242 72.6143 142.462C76.9087 143.682 81.1055 145.195 85.1559 147C87.4495 148.025 89.6455 149.148 91.8415 150.368C91.8903 150.368 91.8415 150.465 91.7927 150.416C87.8887 148.367 83.7407 146.61 79.5927 145.097C75.4447 143.584 71.1991 142.364 66.9047 141.437C64.4647 140.9 62.0247 140.51 59.5847 140.071C59.3895 140.022 59.4383 139.729 59.6335 139.778Z" fill="#263238"/>
<path d="M80.5689 174.036C80.4225 171.693 80.1785 169.351 79.7881 167.057C79.6417 166.13 79.5929 164.91 78.6169 164.471C78.1777 164.276 69.0521 162.665 67.7345 162.714C67.6857 162.714 67.6369 162.812 67.6857 162.812C67.7833 162.86 76.4697 164.52 77.5433 164.764C77.9825 164.861 78.5193 164.959 78.7633 165.398C79.0073 165.837 79.0561 166.423 79.1537 166.911C79.9345 171.449 80.2273 176.036 80.3737 180.624C80.4225 181.892 80.4225 183.161 80.4225 184.43C80.4225 185.748 80.3737 187.065 80.4713 188.334C80.4713 188.48 80.6665 188.48 80.6665 188.334C80.7641 187.163 80.7153 185.943 80.7153 184.772C80.7153 183.6 80.7153 182.38 80.7153 181.209C80.7641 178.769 80.7153 176.427 80.5689 174.036Z" fill="#263238"/>
<path d="M60.6098 110.742C66.7586 118.94 81.3986 130.408 84.8146 127.773C89.0114 124.504 88.2306 112.401 88.3282 110.84C88.4258 109.18 74.6154 109.571 75.1522 111.279C75.4938 112.304 75.6402 113.377 75.3962 113.28C74.5666 112.938 72.761 111.328 64.9042 106.936C60.5122 104.447 56.5106 105.325 60.6098 110.742Z" fill="#FFCEA0"/>
<path d="M73.2001 111.23L69.9793 114.402L65.9289 118.404C65.9289 118.404 61.2929 113.914 59.2921 110.205C57.8281 107.472 57.7793 105.179 59.2433 104.691C59.7801 104.496 60.5121 104.544 61.3905 104.886C66.6121 106.838 73.2001 111.23 73.2001 111.23Z" fill="#447FAB"/>
<path d="M71.2971 110.4C69.9795 111.572 65.3435 115.964 64.9531 116.696L65.0019 116.744C65.7827 116.354 70.1747 111.718 71.3947 110.449C71.3947 110.449 71.3459 110.352 71.2971 110.4Z" fill="#263238"/>
<path d="M69.9793 114.402L65.9289 118.404C65.9289 118.404 61.2929 113.914 59.2921 110.206C57.8281 107.473 57.7793 105.179 59.2433 104.691L69.9793 114.402Z" fill="#263238"/>
<path d="M88.3275 103.422C89.1083 106.057 88.5715 112.108 87.8883 113.524C87.2051 114.939 76.9083 114.402 75.9811 113.084C75.0539 111.767 73.1019 102.641 74.1755 100.006C75.2491 97.3708 87.4979 100.689 88.3275 103.422Z" fill="#FFCEA0"/>
<path d="M76.5179 94.0524C76.0787 92.8324 73.8827 89.4164 72.8579 89.8068C71.8331 90.1972 72.7603 92.93 73.1507 94.0036C73.9803 96.2484 73.9803 99.5668 73.9315 101.177C73.8827 102.788 77.6403 101.177 77.6403 101.177C77.6403 101.177 77.6403 97.1756 76.5179 94.0524Z" fill="#FFCEA0"/>
<path d="M74.9565 103.471C74.9565 103.471 74.8101 106.301 76.3229 106.887C77.7869 107.472 78.3725 105.179 78.4213 105.032C78.4213 105.179 78.3725 107.814 79.9341 108.204C81.5933 108.644 81.7885 106.301 81.7885 106.155C81.8373 106.301 82.3741 108.204 83.6429 108.253C85.8389 108.351 84.5701 103.471 85.5461 102.007C85.5461 102.007 88.2301 103.373 88.3277 103.373C88.3277 103.373 87.2541 98.6884 85.1557 97.5172C84.0821 96.8828 83.2525 97.7612 83.2525 97.7612C83.2525 97.7612 83.0573 96.1996 81.8373 95.858C81.2029 95.6628 80.3245 96.4924 80.3245 96.4924C80.3245 96.4924 80.1293 95.2724 79.0069 94.9796C78.1285 94.7844 77.2501 95.614 77.0549 96.0044C75.3469 98.9812 74.9565 103.471 74.9565 103.471Z" fill="#FFCEA0"/>
<path d="M77.2501 95.8091C75.7373 98.0051 74.8101 100.884 74.9565 103.568C74.9565 103.666 75.1029 103.666 75.1029 103.568C75.4933 100.836 76.0789 98.3955 77.2501 95.8091Z" fill="#263238"/>
<path d="M80.3245 96.4923C80.3245 96.4435 80.2757 96.4435 80.2757 96.4923C78.7629 98.7859 77.8357 102.056 78.3237 105.13C78.3237 105.228 78.4701 105.325 78.4701 105.179C78.2749 103.129 79.2509 98.8347 80.3245 96.4923Z" fill="#263238"/>
<path d="M81.8863 106.399C81.5447 103.422 82.1303 100.64 83.2038 97.9076C83.2038 97.8588 83.155 97.8588 83.155 97.8588C82.2766 99.0788 81.7887 100.884 81.5447 102.348C81.3007 103.764 81.3495 105.032 81.8374 106.399C81.7886 106.496 81.8863 106.496 81.8863 106.399Z" fill="#263238"/>
<path d="M74.9565 103.471C75.0053 104.008 75.0541 104.544 75.1517 105.081C75.2981 105.618 75.4933 106.155 75.8349 106.496C76.0301 106.692 76.2253 106.789 76.4693 106.789C76.7133 106.789 76.9573 106.74 77.2013 106.643C77.6405 106.448 77.9333 105.96 78.0309 105.472L78.3237 104.3L78.4701 105.472C78.5189 106.008 78.6653 106.545 78.9093 106.984C79.1533 107.472 79.4949 107.863 79.9341 108.009C80.4221 108.156 80.8613 108.009 81.1053 107.57C81.3493 107.18 81.4957 106.594 81.5445 106.106L81.6421 104.691L82.0325 106.057C82.1301 106.448 82.2765 106.789 82.4717 107.131C82.6669 107.472 82.9109 107.765 83.2525 107.912C83.5453 108.058 83.9357 108.009 84.1797 107.814C84.4237 107.57 84.5701 107.18 84.7165 106.838C84.9117 106.057 84.9605 105.228 85.0581 104.398C85.1069 104.008 85.1557 103.568 85.2045 103.129C85.2533 102.739 85.3509 102.3 85.5461 101.958C85.3509 102.348 85.3509 102.739 85.3021 103.178C85.2533 103.568 85.2533 104.008 85.2533 104.447C85.2533 105.276 85.2045 106.106 85.0581 106.984C84.9605 107.375 84.8141 107.863 84.4725 108.204C84.0821 108.546 83.4965 108.595 83.0573 108.4C82.6181 108.204 82.3253 107.814 82.0813 107.472C81.8373 107.082 81.6909 106.692 81.5445 106.252L82.0325 106.204C81.9837 106.789 81.8861 107.375 81.5445 107.96C81.3981 108.204 81.1053 108.448 80.7637 108.595C80.4221 108.692 80.0805 108.692 79.7877 108.595C79.1533 108.4 78.7141 107.863 78.4701 107.326C78.2261 106.789 78.0797 106.204 78.0309 105.618L78.4701 105.667C78.3237 106.252 77.9333 106.789 77.3965 107.033C77.1037 107.18 76.8109 107.18 76.5181 107.18C76.2253 107.131 75.9325 106.984 75.7373 106.74C75.3469 106.301 75.2005 105.716 75.1029 105.179C74.9565 104.593 74.9565 104.056 74.9565 103.471Z" fill="#263238"/>
<path d="M75.347 111.572C75.347 111.572 67.8806 102.544 72.8094 101.324C74.2734 100.983 80.7638 101.275 80.715 102.593C80.6662 104.252 77.9334 104.643 76.1766 104.594C76.1766 104.594 79.1534 107.327 77.8846 109.962C77.1526 111.621 75.347 111.572 75.347 111.572Z" fill="#FFCEA0"/>
<path d="M72.4678 101.47C73.0046 101.226 73.639 101.177 74.2246 101.08C74.8102 101.031 75.4446 101.031 76.0302 101.031C77.2502 101.08 78.4214 101.177 79.5926 101.47C79.8854 101.519 80.1782 101.616 80.471 101.812C80.6174 101.909 80.7638 102.007 80.8614 102.153C80.9102 102.251 80.959 102.3 81.0078 102.397C81.0566 102.495 81.0566 102.592 81.0566 102.69C81.0566 103.08 80.8614 103.422 80.6662 103.666C80.4222 103.91 80.1782 104.105 79.8854 104.252C79.2998 104.544 78.7142 104.642 78.0798 104.74C77.4942 104.837 76.8598 104.837 76.2742 104.788L76.4206 104.447C76.7622 104.788 77.055 105.13 77.299 105.52C77.543 105.911 77.787 106.301 77.9822 106.692C78.1774 107.131 78.275 107.57 78.3238 108.009C78.3726 108.448 78.3238 108.936 78.2262 109.327C78.275 108.888 78.275 108.448 78.1774 108.009C78.0798 107.57 77.9334 107.18 77.7382 106.789C77.543 106.399 77.299 106.008 77.055 105.667C76.811 105.325 76.4694 104.984 76.1766 104.74L75.7862 104.398H76.323C76.9086 104.398 77.4942 104.349 78.0798 104.3C78.6654 104.203 79.2022 104.105 79.6902 103.861C80.1782 103.617 80.6174 103.227 80.6174 102.739C80.6662 102.348 80.0318 102.104 79.495 101.958C78.9582 101.812 78.3726 101.714 77.787 101.616C77.2014 101.519 76.6158 101.421 76.0302 101.372C74.8102 101.275 73.5902 101.177 72.4678 101.47Z" fill="#263238"/>
<path d="M75.3472 113.28L75.7376 114.451L76.128 115.622L76.9088 117.916C77.1528 118.696 77.4456 119.428 77.7384 120.209C77.8848 120.6 78.0312 120.99 78.1776 121.332C78.324 121.722 78.4704 122.064 78.6656 122.454C78.2264 121.771 77.836 121.039 77.4944 120.307C77.1528 119.575 76.86 118.794 76.616 118.013C76.372 117.232 76.128 116.452 75.884 115.671C75.6888 114.841 75.4936 114.06 75.3472 113.28Z" fill="#263238"/>
<path d="M64.8553 138.704C64.1233 139.29 35.1361 139.632 35.0385 139.436C34.6969 138.9 42.5537 112.45 54.9489 104.203C57.1449 102.739 60.4633 103.764 61.8785 104.886C62.6105 105.472 64.7089 109.717 65.0017 113.231C65.2457 116.744 65.3433 138.314 64.8553 138.704Z" fill="#447FAB"/>
<path d="M65.1968 127.871V128.115C65.0504 128.017 64.904 127.92 64.8064 127.822C63.7328 127.041 62.9032 125.968 62.1224 124.943C61.3416 123.869 60.6584 122.747 59.9752 121.624C58.9992 120.063 57.9744 118.501 56.7544 117.135C56.7056 117.086 56.6568 117.037 56.608 116.988C56.12 116.5 55.632 116.012 55.0464 115.622C52.948 114.06 50.1176 113.572 47.6776 114.353C46.604 114.695 45.5792 115.329 44.7496 116.061C44.8472 115.866 44.9936 115.671 45.0912 115.476C45.8232 114.89 46.7016 114.402 47.58 114.109C48.8488 113.719 50.2152 113.67 51.5328 113.865C52.8504 114.109 54.1192 114.646 55.1928 115.427C55.8272 115.866 56.364 116.403 56.9008 116.94C56.9496 116.988 56.9984 117.037 57.0472 117.135C58.2672 118.452 59.2432 120.014 60.1704 121.527C60.8536 122.649 61.5368 123.772 62.2688 124.845C63.0008 125.919 63.8304 126.944 64.904 127.724C65.0016 127.724 65.0992 127.773 65.1968 127.871ZM62.464 129.091C61.0976 129.042 59.7312 128.7 58.4624 128.115C55.9736 126.944 53.924 124.943 51.9232 123.04C51.1912 122.356 50.4592 121.673 49.6784 120.99C49.6296 120.941 49.5808 120.892 49.532 120.892C49.288 120.697 49.044 120.453 48.7512 120.258C47.6288 119.428 46.4088 118.648 45.0424 118.355C44.5056 118.208 43.9688 118.16 43.432 118.208C43.3832 118.257 43.3344 118.355 43.3344 118.404C43.92 118.355 44.4568 118.404 45.0424 118.55C46.4088 118.843 47.58 119.575 48.7024 120.404C48.9464 120.6 49.1904 120.795 49.4344 120.99C49.4832 121.039 49.532 121.039 49.5808 121.088C50.3616 121.722 51.0936 122.454 51.8256 123.137C53.8264 125.04 55.876 127.041 58.4136 128.261C59.6824 128.847 61.0976 129.237 62.5128 129.286C63.44 129.335 64.3672 129.237 65.2456 128.993C65.2456 128.896 65.2456 128.847 65.2456 128.749C64.3184 129.042 63.3912 129.14 62.464 129.091ZM65.1968 122.259C64.904 121.771 64.6112 121.283 64.2696 120.844C63.4888 119.77 62.6592 118.745 61.5368 117.964C60.4144 117.232 59.0968 116.842 57.7304 116.891C57.4376 116.891 57.1448 116.891 56.852 116.94C56.7544 116.94 56.6568 116.94 56.5592 116.988C56.2664 117.037 55.9736 117.086 55.7296 117.135C55.0952 117.281 54.4608 117.525 53.8752 117.818C52.2648 118.648 50.8984 119.77 49.5808 120.892C49.532 120.941 49.4832 120.99 49.4344 121.039C48.8488 121.576 48.2144 122.064 47.58 122.552C46.5552 123.381 45.4328 124.064 44.2616 124.601C43.0904 125.138 41.7728 125.431 40.4552 125.528C40.26 125.528 40.0648 125.528 39.8696 125.528C39.8696 125.577 39.8208 125.626 39.8208 125.675C40.0648 125.675 40.26 125.675 40.504 125.626C41.8216 125.577 43.1392 125.236 44.3592 124.699C45.5792 124.162 46.7016 123.43 47.7264 122.649C48.3608 122.161 48.9952 121.624 49.5808 121.136C49.6296 121.088 49.6784 121.039 49.7272 120.99C51.0936 119.868 52.4112 118.745 53.9728 117.964C54.5584 117.672 55.144 117.428 55.7784 117.281C56.0712 117.184 56.4128 117.135 56.7544 117.086C56.852 117.086 56.9496 117.086 57.0472 117.086C57.2912 117.037 57.5352 117.037 57.7304 117.037C59.048 116.988 60.3168 117.379 61.3904 118.111C62.464 118.843 63.3424 119.868 64.0744 120.941C64.4648 121.527 64.8064 122.064 65.1968 122.649C65.1968 122.503 65.1968 122.405 65.1968 122.259Z" fill="white"/>
<path d="M61.6346 109.912C59.9266 109.815 57.877 106.643 57.389 104.349C57.3402 104.203 59.4386 98.9324 59.7802 97.8588C59.829 97.6148 66.1242 101.421 66.1242 101.421C66.1242 101.421 64.8066 103.52 64.2698 105.374C64.221 105.569 63.2938 109.961 61.6346 109.912Z" fill="#FFCEA0"/>
<path d="M59.9753 97.9076C59.8289 99.762 59.7801 104.642 63.4401 105.764C63.6841 105.813 63.8793 105.911 64.1233 105.911C64.2209 105.618 64.2209 105.423 64.2697 105.374C64.8065 103.471 66.1241 101.421 66.1241 101.421C66.1241 101.421 66.0753 101.372 66.0265 101.372C65.9777 101.324 65.9289 101.324 65.8313 101.275L65.7825 101.226C65.7337 101.177 65.6849 101.177 65.6361 101.128C65.5873 101.08 65.5385 101.08 65.4409 101.031C65.3433 100.982 65.2457 100.933 65.1481 100.836C65.0993 100.836 65.0993 100.787 65.0505 100.787C64.9529 100.738 64.9041 100.689 64.8065 100.64C64.5137 100.494 64.2209 100.299 63.9281 100.104C63.8305 100.055 63.6841 99.9572 63.5865 99.9084C63.4401 99.8108 63.2937 99.762 63.1473 99.6644C63.0009 99.5668 62.8545 99.518 62.7081 99.4204C62.7081 99.4204 62.6593 99.4204 62.6593 99.3716C62.4153 99.2252 62.1713 99.0788 61.9273 98.9324C61.8297 98.8836 61.7809 98.8348 61.6833 98.786C61.5369 98.6884 61.3417 98.5908 61.1953 98.542C61.0977 98.4932 61.0001 98.4444 60.9025 98.3468C60.6585 98.2004 60.4633 98.1028 60.2681 98.0052C60.2193 98.0052 60.1705 97.9564 60.1217 97.9564C60.0241 97.9564 60.0241 97.9564 59.9753 97.9076Z" fill="#263238"/>
<path d="M61.9272 89.7092C60.3168 91.7588 58.9992 98.9812 60.0728 101.128C61.6832 104.252 65.5384 105.96 68.5152 103.764C71.3944 101.616 72.956 92.198 71.5896 90.0996C69.6376 87.0252 64.3184 86.6348 61.9272 89.7092Z" fill="#FFCEA0"/>
<path d="M66.7583 96.6388C66.7583 96.59 66.7095 96.6388 66.7583 96.6388C66.6119 97.1756 66.4167 97.7124 65.9287 97.7612V97.81C66.4655 97.8588 66.7583 97.1268 66.7583 96.6388Z" fill="#263238"/>
<path d="M66.4654 96.0044C65.6846 95.7604 65.2454 97.322 65.9774 97.566C66.6606 97.81 67.0998 96.1996 66.4654 96.0044Z" fill="#263238"/>
<path d="M69.5399 97.2244L69.5887 97.2732C69.4423 97.7612 69.3447 98.3468 69.7351 98.6396V98.6884C69.1495 98.3956 69.2959 97.6636 69.5399 97.2244Z" fill="#263238"/>
<path d="M70.1255 96.834C70.9063 97.0292 70.5159 98.5908 69.7839 98.4444C69.0519 98.2492 69.4423 96.6876 70.1255 96.834Z" fill="#263238"/>
<path d="M65.392 100.64C65.4896 100.787 65.5384 100.982 65.6848 101.08C65.8312 101.128 66.0752 101.128 66.2216 101.128C66.2216 101.128 66.2704 101.128 66.2216 101.177C66.0264 101.324 65.7336 101.324 65.5384 101.226C65.3432 101.128 65.2944 100.884 65.2944 100.689C65.3432 100.592 65.392 100.592 65.392 100.64Z" fill="#263238"/>
<path d="M68.1739 99.274C68.1739 99.274 68.0763 100.006 67.9787 100.396C67.9787 100.445 67.0027 100.055 65.9291 100.152C65.7827 100.152 65.7827 100.055 65.9779 99.9572C66.3683 99.8596 66.8563 99.762 67.7835 100.006C67.8323 99.9084 67.9299 98.8348 67.9787 98.8348C68.1739 98.8836 68.5155 99.0788 68.7107 99.2252C68.9547 97.6636 68.9546 96.0532 69.2474 94.4916C69.2474 94.4428 69.3451 94.4428 69.3451 94.4916C69.4427 96.1508 69.1986 97.9564 69.0034 99.6156C68.9546 99.8108 68.2715 99.3716 68.1739 99.274Z" fill="#263238"/>
<path d="M65.8798 94.6868C66.1238 94.638 66.319 94.638 66.563 94.638C66.807 94.638 67.0022 94.5892 67.2462 94.7356C67.3926 94.7844 67.4414 95.0284 67.3438 95.126C67.1974 95.4188 66.9046 95.5164 66.6118 95.5652C66.2702 95.614 66.0262 95.5164 65.7334 95.37C65.4406 95.1748 65.5382 94.7356 65.8798 94.6868Z" fill="#263238"/>
<path d="M71.492 95.126C71.3456 94.9796 71.1504 94.8332 70.9552 94.7356C70.76 94.5892 70.6136 94.4428 70.3696 94.4428C70.2232 94.4428 70.0768 94.5892 70.028 94.6868C69.9792 95.0284 70.1744 95.2724 70.4184 95.4676C70.6624 95.6628 70.9064 95.7604 71.248 95.8092C71.5896 95.7604 71.6872 95.3212 71.492 95.126Z" fill="#263238"/>
<path d="M63.635 95.858C64.2205 96.102 64.3669 94.8332 64.3669 94.394C64.4157 93.9548 64.7085 93.0764 64.7085 93.0764C64.7085 93.0764 64.3181 93.9548 64.0742 94.2964C63.7814 94.5892 63.0006 95.614 63.635 95.858Z" fill="white"/>
<path d="M59.5844 96.6393C59.5844 96.6393 58.4132 91.5641 59.4868 89.1729C59.9748 88.0993 61.7316 87.8553 61.7316 87.8553C61.7316 87.8553 61.7316 86.3424 63.342 85.6104C65.05 84.8296 68.1244 86.1473 68.1244 86.1473C68.1244 86.1473 71.15 83.8536 73.6876 86.0008C76.1764 88.1481 73.1996 90.7833 73.1996 90.7833C73.1996 90.7833 73.7364 92.6377 70.7596 92.9793C67.8316 93.2721 63.0492 90.4417 63.0492 90.4417C63.0492 90.4417 62.5612 93.2233 61.1948 95.7609C60.658 96.7369 59.5844 96.6393 59.5844 96.6393Z" fill="#263238"/>
<path d="M68.6126 86.3908C68.0758 85.9028 67.3926 85.5612 66.7094 85.3172C66.075 85.122 65.4406 84.9756 64.7574 84.9756C63.5862 85.0244 62.415 85.4636 61.8294 86.5372C61.5366 87.074 61.4878 87.7084 61.683 88.294H61.7318C61.3414 87.2204 62.1222 86.0492 63.0494 85.61C64.0742 85.0732 65.3918 85.1708 66.5142 85.5124C67.2462 85.7076 67.9294 86.098 68.5638 86.4396C68.6126 86.4396 68.6614 86.3908 68.6126 86.3908Z" fill="#263238"/>
<path d="M75.2979 88.1476C75.3467 87.2692 74.8099 86.4884 74.1267 86.0004C73.3459 85.4148 72.3211 85.122 71.3451 85.1708C70.3203 85.2196 69.3931 85.5612 68.5635 86.098V86.1468C70.0763 85.2196 72.0283 85.0732 73.5899 86.0004C74.2731 86.3908 74.9075 87.074 75.0051 87.9036C75.1027 88.6844 74.7611 89.514 74.2243 90.0508C73.5411 90.734 72.6139 91.0756 71.7355 91.3196V91.3684C72.6139 91.222 73.4435 90.9292 74.1267 90.3924C74.7611 89.758 75.2491 88.9772 75.2979 88.1476Z" fill="#263238"/>
<path d="M71.3453 93.3692C70.0277 93.4668 68.7101 93.2228 67.4901 92.7836C66.2213 92.3444 65.0013 91.71 63.8301 90.978C63.1469 90.5388 62.5125 90.0996 61.8293 89.6604C61.8293 89.6604 61.7805 89.6604 61.8293 89.7092C62.9517 90.6364 64.0741 91.5636 65.3429 92.2468C66.5141 92.8812 67.7829 93.3204 69.1493 93.4668C69.8813 93.5156 70.6133 93.5156 71.3453 93.3692Z" fill="#263238"/>
<path d="M61.2927 95.7604C61.2927 95.7604 60.5119 93.0276 59.3407 93.2228C58.1207 93.418 58.1695 97.0292 59.1943 97.8588C60.2191 98.7372 60.9999 97.81 60.9999 97.81L61.2927 95.7604Z" fill="#FFCEA0"/>
<path d="M59.3893 94.2476C59.3405 94.2476 59.3405 94.2476 59.3893 94.2476C60.0725 94.882 60.2189 95.8092 60.2677 96.7364C60.1213 96.346 59.8773 96.0532 59.3405 96.1996C59.2917 96.1996 59.3405 96.2484 59.3405 96.2484C59.6821 96.2972 59.9261 96.4436 60.0725 96.7852C60.1701 97.0292 60.1701 97.322 60.2189 97.566C60.2189 97.6636 60.3653 97.6636 60.3653 97.566C60.7557 96.4924 60.4629 94.7356 59.3893 94.2476Z" fill="#263238"/>
<path d="M52.46 109.376C51.0448 117.379 51.8744 134.117 55.5344 136.899C59.7312 140.168 78.1776 140.803 82.2768 139.583C83.8872 139.095 80.032 128.31 78.2264 128.31C70.6136 128.359 64.172 127.48 63.5376 126.602C62.5128 125.236 59.8776 115.476 58.1208 109.376C55.8272 101.714 53.0944 105.764 52.46 109.376Z" fill="#FFCEA0"/>
<path d="M98.6737 117.086L86.9617 124.748C86.6201 124.992 86.5713 125.333 86.8641 125.577L92.3297 129.676C92.6225 129.92 93.1593 129.92 93.5009 129.676L105.213 122.015C105.555 121.771 105.603 121.429 105.311 121.185L99.8449 117.086C99.5521 116.891 99.0641 116.891 98.6737 117.086Z" fill="#263238"/>
<path d="M98.1854 116.744L86.4735 124.406C86.1319 124.65 86.0831 124.992 86.3759 125.236L91.8414 129.335C92.1342 129.579 92.6711 129.579 93.0127 129.335L104.725 121.673C105.066 121.429 105.115 121.088 104.822 120.844L99.3566 116.744C99.0638 116.549 98.527 116.549 98.1854 116.744Z" fill="#37474F"/>
<path d="M97.9414 117.428L87.2054 124.455C86.8638 124.65 86.815 124.992 87.1078 125.236L91.9878 128.896C92.2806 129.091 92.7686 129.091 93.0614 128.896L103.797 121.868C104.481 121.429 104.383 121.185 104.139 120.941L103.163 120.209C103.114 120.16 102.968 120.16 102.919 120.258L102.87 120.307C102.675 120.453 102.577 120.356 102.431 120.258L100.186 118.55C100.04 118.452 99.9422 118.355 100.186 118.257L100.235 118.208C100.333 118.16 100.333 118.062 100.284 118.013L99.3078 117.281C98.9662 117.037 98.5758 116.988 97.9414 117.428Z" fill="white"/>
<path d="M101.26 118.94L101.894 119.38C101.894 119.38 101.943 119.38 101.992 119.38C101.992 119.38 102.041 119.331 101.992 119.331L101.357 118.892C101.357 118.892 101.309 118.892 101.26 118.892C101.211 118.892 101.211 118.94 101.26 118.94Z" fill="white"/>
<path d="M92.4756 122.161L96.6236 125.284L101.211 122.259L97.0628 119.184L92.4756 122.161Z" fill="#447FAB"/>
<path d="M93.4517 123.967L95.8429 125.772L96.1357 125.626L93.6957 123.772L93.4517 123.967Z" fill="#A6A6A6"/>
<path d="M92.5244 123.918L95.4036 126.065L95.55 125.968L92.6708 123.82L92.5244 123.918Z" fill="#A6A6A6"/>
<path d="M92.2808 124.113L95.1599 126.26L95.3064 126.163L92.4272 124.016L92.2808 124.113Z" fill="#A6A6A6"/>
<path d="M92.0366 124.26L94.9158 126.407L95.0622 126.309L92.183 124.162L92.0366 124.26Z" fill="#A6A6A6"/>
<path d="M102.089 120.99L102.626 121.38L102.724 121.283L102.236 120.892L102.089 120.99Z" fill="#A6A6A6"/>
<path d="M101.895 121.088L102.431 121.478L102.529 121.429L102.041 121.039L101.895 121.088Z" fill="#A6A6A6"/>
<path d="M101.699 121.234L102.236 121.624L102.334 121.576L101.797 121.185L101.699 121.234Z" fill="#A6A6A6"/>
<path d="M91.8415 122.649C91.7927 122.747 91.8415 122.844 91.8415 122.844C91.8415 122.844 91.9391 122.893 92.1343 122.844C92.3295 122.844 92.4759 122.747 92.3295 122.649C92.2319 122.6 92.0855 122.649 92.0855 122.649C92.0855 122.649 92.1831 122.552 92.1343 122.503C92.0367 122.454 91.8903 122.552 91.8415 122.649Z" fill="#447FAB"/>
<path d="M88.9136 125.04L92.2808 127.578L93.3544 126.846L89.9872 124.357L88.9136 125.04Z" fill="#447FAB"/>
<path d="M81.6912 139.632C82.5696 139.632 90.1336 137.777 92.4272 136.46C93.8912 135.63 96.38 134.215 99.0152 131.433C101.992 128.212 103.749 125.724 103.798 124.357C103.846 122.747 103.798 122.454 97.7464 127.383C94.3304 130.164 92.1344 129.823 90.3776 129.14C83.1552 126.407 76.1768 128.261 76.1768 128.261C76.1768 128.261 78.2264 139.632 81.6912 139.632Z" fill="#FFCEA0"/>
<path d="M91.3047 129.481C89.4503 128.847 96.7703 127.285 97.5999 125.236C98.4295 123.186 96.1847 123.088 94.1351 123.723C87.1079 125.821 83.0087 124.113 78.7631 126.992C78.3239 127.285 77.0063 127.968 76.9575 128.164C76.7623 130.164 91.3047 129.481 91.3047 129.481Z" fill="#FFCEA0"/>
<path d="M86.6689 124.943C85.3513 124.845 84.0337 124.796 82.7649 125.04C81.5449 125.284 80.4713 125.821 79.4465 126.456C79.3977 126.504 79.4465 126.553 79.4953 126.553C81.6425 125.236 84.2289 125.138 86.6689 124.992C86.7177 124.992 86.7177 124.943 86.6689 124.943Z" fill="#263238"/>
<path d="M50.9962 120.063L55.437 119.233L61.049 118.208C61.049 118.208 59.7314 111.962 58.121 108.107C56.4618 104.105 53.729 102.788 52.2162 108.302C50.7522 113.67 50.9962 120.063 50.9962 120.063Z" fill="#447FAB"/>
<path d="M51.3867 118.062C53.0947 117.672 59.3411 116.354 60.2195 116.452C60.2195 116.452 60.2683 116.5 60.2195 116.549C59.4875 116.988 53.1435 117.916 51.3867 118.16C51.3867 118.16 51.3867 118.062 51.3867 118.062Z" fill="#263238"/>
<path d="M51.8256 119.916C51.5816 120.014 51.2888 120.063 51.0448 120.112H50.996V120.014C50.9472 119.331 50.8984 118.599 50.8984 117.916C50.8984 117.232 50.9472 116.5 50.996 115.817C51.0448 115.134 51.0936 114.402 51.1912 113.719C51.2888 113.036 51.3864 112.352 51.5328 111.669C51.5328 112.352 51.484 113.084 51.4352 113.768C51.3864 114.451 51.3376 115.183 51.3376 115.866C51.24 117.232 51.1424 118.648 51.0936 120.014L50.996 119.965C51.2888 119.965 51.5328 119.916 51.8256 119.916Z" fill="#263238"/>
<path d="M50.6544 113.28C50.8008 113.719 50.8984 114.158 50.9472 114.597C50.996 114.792 50.996 115.036 51.0448 115.28C51.0448 115.524 51.0936 115.72 51.0936 115.964C50.8984 115.524 50.8008 115.134 50.752 114.695C50.6544 114.158 50.6056 113.719 50.6544 113.28Z" fill="#263238"/>
<path d="M60.6583 118.257C60.7559 118.208 60.9023 118.16 60.9999 118.16L60.9511 118.208C60.7559 117.623 60.6095 117.037 60.4143 116.452L59.9751 114.695C59.6823 113.524 59.3895 112.352 59.1455 111.181C59.3895 111.718 59.6335 112.304 59.8287 112.889C60.0239 113.475 60.1703 114.06 60.3167 114.646C60.4631 115.232 60.6095 115.817 60.7071 116.403C60.8047 116.988 60.9511 117.574 60.9999 118.208V118.257H60.9511C60.9023 118.208 60.8047 118.257 60.6583 118.257Z" fill="#263238"/>
<path d="M60.1215 112.352C60.2191 112.694 60.2679 113.036 60.2679 113.377C60.2679 113.572 60.2679 113.719 60.2191 113.914C60.1703 114.06 60.1703 114.256 60.0727 114.402C60.0239 114.06 60.0239 113.719 59.9751 113.377C60.0727 112.987 60.0727 112.694 60.1215 112.352Z" fill="#263238"/>
<path d="M86.0343 80.9251C86.1807 82.5843 84.9607 84.0483 83.3015 84.1947C81.6423 84.3411 80.1783 83.1211 80.0319 81.4619C79.8855 79.8028 81.1055 78.3388 82.7647 78.1924C84.4239 78.046 85.8879 79.3148 86.0343 80.9251Z" fill="white"/>
<path d="M86.0344 80.9251C86.132 81.7059 85.8392 82.5355 85.3512 83.1211C84.8632 83.7555 84.1312 84.1947 83.3016 84.2923C82.472 84.3899 81.6424 84.1459 80.9592 83.6579C80.276 83.1211 79.8856 82.3403 79.788 81.4619C79.6904 80.6323 79.9832 79.7539 80.5688 79.1195C81.1056 78.4851 81.9352 78.0947 82.7648 78.0947C83.5944 78.0459 84.424 78.3387 85.0096 78.8755C85.5952 79.4123 85.9856 80.1443 86.0344 80.9251ZM86.0344 80.9251C85.9856 80.1443 85.5464 79.4123 84.9608 78.9243C84.3264 78.4363 83.5456 78.2411 82.8136 78.3387C82.0816 78.4363 81.3496 78.8267 80.9104 79.4123C80.4712 79.9979 80.2272 80.7299 80.276 81.4619C80.3248 82.1939 80.6664 82.8771 81.252 83.3651C81.7888 83.8531 82.5208 84.1459 83.3016 84.0971C84.0824 84.0483 84.8144 83.7067 85.3512 83.1211C85.8392 82.5355 86.0832 81.7547 86.0344 80.9251Z" fill="#263238"/>
<path d="M79.4961 86.4888C79.5937 87.416 78.9105 88.2456 77.9833 88.2944C77.0561 88.392 76.2265 87.7088 76.1777 86.7816C76.0801 85.8544 76.7633 85.0248 77.6905 84.976C78.6177 84.8784 79.4473 85.5616 79.4961 86.4888Z" fill="white"/>
<path d="M79.4951 86.4884C79.5927 87.3668 78.9583 88.294 77.9823 88.4404C77.4943 88.4892 77.0063 88.3916 76.6159 88.0988C76.2255 87.806 75.9815 87.318 75.9327 86.83C75.8839 86.342 76.0791 85.8052 76.4207 85.4636C76.7623 85.122 77.2503 84.878 77.6895 84.878C78.6655 84.8292 79.4463 85.61 79.4951 86.4884ZM79.4951 86.4884C79.4463 86.0492 79.2511 85.6588 78.8607 85.366C78.5191 85.122 78.0799 85.0244 77.6895 85.0732C76.8599 85.2196 76.3231 86.0004 76.4207 86.7324C76.4695 87.4644 77.1527 88.1964 77.9823 88.1476C78.3727 88.1476 78.8119 87.9524 79.1047 87.6596C79.3975 87.3668 79.5439 86.9276 79.4951 86.4884Z" fill="#263238"/>
<path d="M108.532 66.9684C109.118 71.7996 105.702 76.1427 100.87 76.7772C99.3089 76.9724 97.7473 76.7284 96.3809 76.1428C95.2097 77.6556 93.4529 78.7292 91.4033 78.9732C88.7193 79.3148 86.1817 78.1436 84.6201 76.094C84.3273 76.1916 83.9857 76.2404 83.6441 76.2892C80.3745 76.6796 77.3977 74.3372 77.0073 71.0676C76.8121 69.5548 77.2513 68.0907 78.0321 66.9195C77.0561 65.6995 76.4217 64.1867 76.2265 62.5275C75.6409 57.6963 79.0569 53.3043 83.8881 52.7187C86.0841 52.4747 88.1825 53.0115 89.8905 54.1827C91.0617 52.7187 92.7697 51.6939 94.7705 51.4499C98.2353 51.0107 101.407 53.0603 102.578 56.1835C102.871 56.0859 103.213 55.9884 103.506 55.9884C106.141 55.6468 108.532 57.55 108.874 60.1852C109.069 61.6492 108.581 63.0156 107.654 64.0404C108.142 64.9188 108.434 65.8948 108.532 66.9684Z" fill="white"/>
<path d="M108.531 66.9681C108.678 68.4809 108.531 70.0425 107.897 71.4577C107.604 72.1897 107.214 72.8241 106.726 73.4585C106.238 74.0441 105.701 74.6297 105.067 75.0689C103.847 75.9961 102.383 76.5817 100.87 76.7769C99.357 76.9721 97.7466 76.7769 96.3314 76.1913H96.429C95.7458 77.1185 94.8674 77.8505 93.7938 78.3873C92.769 78.9241 91.6466 79.1681 90.4754 79.1681C89.3042 79.1681 88.1818 78.9241 87.157 78.3873C86.1322 77.8993 85.205 77.1185 84.5218 76.2401L84.717 76.2889C84.1314 76.4841 83.497 76.5329 82.8626 76.5329C82.2282 76.5329 81.5938 76.4353 81.0082 76.2401C79.7882 75.8497 78.7146 75.0689 77.9826 74.0441C77.5922 73.5073 77.2994 72.9705 77.1042 72.3361C76.909 71.7505 76.8114 71.1161 76.8114 70.4329C76.8114 69.1641 77.2018 67.8953 77.9338 66.8217V67.1145C76.6162 65.4553 75.8842 63.3081 75.9818 61.1609C76.0794 59.0137 76.909 56.9153 78.4218 55.4025C79.8858 53.8409 81.8866 52.8649 83.985 52.6209C86.0834 52.3769 88.2794 52.9625 90.0362 54.1337L89.841 54.1825C90.6706 53.1577 91.793 52.3769 93.013 51.8889C94.233 51.4009 95.5994 51.3033 96.917 51.4985C98.2346 51.6937 99.4546 52.2793 100.431 53.1089C101.455 53.9385 102.236 55.0609 102.675 56.2809L102.627 56.2321C103.651 55.8905 104.774 55.9393 105.75 56.2809C106.775 56.6225 107.653 57.3057 108.19 58.2329C108.775 59.1113 109.019 60.2337 108.971 61.2585C108.873 62.3321 108.434 63.3569 107.702 64.1377C108.141 64.9185 108.434 65.9433 108.531 66.9681ZM108.531 66.9681C108.385 65.9433 108.092 64.9673 107.653 64.0401C108.385 63.2593 108.824 62.2345 108.873 61.2097C108.971 60.1361 108.678 59.0625 108.092 58.1841C107.507 57.3057 106.628 56.6225 105.652 56.2809C104.676 55.9393 103.554 55.9393 102.578 56.2809H102.529V56.2321C102.041 55.0121 101.309 53.9385 100.284 53.1577C99.3082 52.3281 98.0882 51.8401 96.8194 51.6449C95.5506 51.4497 94.233 51.5961 93.0618 52.0841C91.8906 52.5721 90.817 53.3529 90.0362 54.3289L89.9386 54.4265L89.7922 54.3289C88.0842 53.2065 85.9858 52.6697 83.985 52.9625C81.9842 53.2065 80.0322 54.1825 78.6658 55.6465C77.2994 57.1105 76.4698 59.1113 76.421 61.1121C76.3234 63.1129 76.9578 65.1625 78.2266 66.7729L78.3242 66.9193L78.2266 67.0657C77.5434 68.0417 77.153 69.2129 77.153 70.3841C77.153 70.9697 77.2506 71.5553 77.4458 72.1409C77.641 72.7265 77.885 73.2633 78.2266 73.7025C78.9098 74.6785 79.9346 75.4105 81.057 75.8009C81.6426 75.9961 82.2282 76.0937 82.8138 76.1425C83.3994 76.1425 84.0338 76.0937 84.5706 75.8985L84.6682 75.8497L84.717 75.9473C85.4002 76.8257 86.2298 77.5577 87.2546 78.0457C88.2306 78.5337 89.353 78.8265 90.4754 78.8265C91.5978 78.8265 92.7202 78.5825 93.6962 78.0945C94.721 77.6065 95.5994 76.8745 96.2826 75.9961L96.3314 75.9473H96.3802C97.7954 76.5329 99.357 76.7769 100.87 76.5817C102.383 76.3865 103.847 75.8009 105.067 74.8737C105.701 74.4345 106.189 73.8489 106.726 73.2633C107.165 72.6289 107.604 71.9945 107.897 71.3113C108.531 70.0425 108.727 68.4809 108.531 66.9681Z" fill="#263238"/>
<path d="M97.1602 66.7243L96.8674 68.0419C96.7698 68.6275 96.233 68.9691 95.6474 68.8227C95.1106 68.7251 94.7202 68.1883 94.8666 67.6027L95.3058 65.4555C95.3058 65.4555 95.3546 65.4555 95.3546 65.4067C95.3546 65.3579 95.3546 65.3579 95.3546 65.3579C95.4522 64.8211 96.0378 64.4307 96.5746 64.5771C97.8434 64.8699 99.1122 64.0403 99.405 62.7715C99.6978 61.5027 98.8194 60.2339 97.5506 59.9899C96.721 59.7947 95.8914 60.1363 95.3546 60.7219C94.9642 61.1611 94.3298 61.2099 93.8906 60.8195C93.5002 60.4291 93.4514 59.7947 93.8418 59.3555C94.8666 58.2331 96.4282 57.6475 97.9898 57.9891C100.381 58.4771 101.894 60.8195 101.406 63.2107C100.967 65.2603 99.161 66.6755 97.1602 66.7243ZM96.233 71.2139L96.1354 71.6043C96.0378 72.1899 95.501 72.5315 94.9154 72.3851C94.3786 72.2875 93.9882 71.7507 94.1346 71.1651L94.2322 70.7747C94.3298 70.2379 94.9154 69.8475 95.4522 69.9939C96.0378 70.0915 96.3794 70.6283 96.233 71.2139Z" fill="#447FAB"/>
<path d="M86.522 63.9923L86.3756 62.6259C86.3268 62.0403 86.6684 61.5523 87.254 61.5035C87.7908 61.4547 88.3276 61.7963 88.3764 62.3819L88.6204 64.5291C88.6204 64.5291 88.6204 64.5291 88.6204 64.5779C88.6204 64.5779 88.6204 64.5779 88.6692 64.6267C88.718 65.1635 88.3276 65.7003 87.7908 65.7491C86.4732 65.8955 85.546 67.0667 85.6924 68.3843C85.8388 69.7019 87.0588 70.5803 88.3276 70.4339C89.1572 70.3363 89.8892 69.7995 90.182 69.0675C90.426 68.5307 91.0116 68.2867 91.5484 68.5307C92.0852 68.7747 92.2804 69.3603 92.0852 69.8971C91.4996 71.2635 90.182 72.3371 88.5716 72.5323C86.1804 72.8251 83.9356 71.1171 83.6428 68.7259C83.3988 66.5787 84.6188 64.7243 86.522 63.9923ZM85.9364 59.4539L85.8876 59.0635C85.8388 58.4779 86.1804 57.9899 86.766 57.9411C87.3028 57.8923 87.8396 58.2339 87.8884 58.8195L87.9372 59.2099C87.986 59.7467 87.5956 60.2835 87.0588 60.3323C86.522 60.4299 86.034 59.9907 85.9364 59.4539Z" fill="#447FAB"/>
</g>
<defs>
<clipPath id="clip0">
<rect width="244" height="244" fill="white" transform="translate(0 0.209961)"/>
</clipPath>
</defs>
</svg>
