<svg width="22" height="23" viewBox="0 0 22 23" fill="none" xmlns="http://www.w3.org/2000/svg">
<path d="M20.3374 19.9999V12.1739C20.3375 11.6294 20.2348 11.0907 20.0356 10.5906C19.8364 10.0906 19.545 9.63982 19.1791 9.26591L12.3632 2.29791C12.0199 1.94683 11.5654 1.75122 11.093 1.75122C10.6206 1.75122 10.1661 1.94683 9.82284 2.29791L3.00695 9.26591C2.64108 9.63982 2.34963 10.0906 2.15046 10.5906C1.95129 11.0907 1.84858 11.6294 1.84863 12.1739V19.9999C1.84863 20.5303 2.04342 21.039 2.39016 21.4141C2.73689 21.7892 3.20716 21.9999 3.69751 21.9999H18.4885C18.9789 21.9999 19.4492 21.7892 19.7959 21.4141C20.1426 21.039 20.3374 20.5303 20.3374 19.9999Z" stroke="#33383A" stroke-width="2" stroke-linecap="round" stroke-linejoin="round"/>
</svg>
