<svg width="174" height="193" viewBox="0 0 174 193" fill="none" xmlns="http://www.w3.org/2000/svg">
<g clip-path="url(#clip0)">
<path d="M75.0889 32.8019V-2" stroke="#C7C7C7" stroke-miterlimit="10"/>
<path d="M90.1779 47.3229L88.961 50H61.2169L60 47.3229L71.8034 39.17H78.3744L90.1779 47.3229Z" fill="#EBEBEB"/>
<path d="M79.1856 31.3011L78.3744 39.17H71.8034L70.9922 31.3011H79.1856Z" fill="#DBDBDB"/>
<path d="M90.1779 47.3229L88.961 50H61.2169L60 47.3229H90.1779Z" fill="#DBDBDB"/>
<path d="M23.0239 74.8926C23.0641 74.8926 23.1445 76.9428 23.1445 79.4352C23.1445 81.9678 23.1043 83.9778 23.0239 83.9778C22.9837 83.9778 22.9033 81.9276 22.9033 79.4352C22.9033 76.9428 22.9435 74.8926 23.0239 74.8926Z" fill="#EBEBEB"/>
<path d="M33.7173 39.0744C33.7173 39.0744 33.6369 39.0744 33.5163 39.1146C33.3555 39.1146 33.1947 39.1146 32.9937 39.1146C32.5113 39.1146 31.8279 39.1146 31.0239 39.1548C29.3757 39.1548 27.0441 39.195 24.5115 39.195C23.9487 39.195 23.3859 39.195 22.8633 39.195L22.9839 39.0744C22.9839 41.205 22.9437 43.0944 22.9437 44.4612C22.9437 45.1044 22.9035 45.6672 22.9035 46.0692C22.9035 46.431 22.8633 46.632 22.8633 46.632C22.8633 46.632 22.8231 46.431 22.8231 46.0692C22.8231 45.6672 22.8231 45.1446 22.7829 44.4612C22.7829 43.0542 22.7427 41.205 22.7427 39.0744V38.9538H22.8633C23.3859 38.9538 23.9487 38.9538 24.5115 38.9538C27.0441 38.9538 29.3757 38.9538 31.0239 38.994C31.8279 38.994 32.5113 39.0342 32.9937 39.0342C33.1947 39.0342 33.3957 39.0342 33.5163 39.0342C33.6369 39.0744 33.7173 39.0744 33.7173 39.0744Z" fill="#EBEBEB"/>
<path d="M122.921 172.177H118.58V192.638H122.921V172.177Z" fill="#EBEBEB"/>
<path d="M159.784 172.177H155.443V192.638H159.784V172.177Z" fill="#EBEBEB"/>
<path d="M166.096 146.449H111.424V151.514H166.096V146.449Z" fill="#EBEBEB"/>
<path d="M163.925 172.418L114.761 172.538V151.514H163.925V172.418Z" fill="#EBEBEB"/>
<path d="M166.096 151.514C166.096 151.554 153.835 151.594 138.76 151.594C123.645 151.594 111.424 151.554 111.424 151.514C111.424 151.474 123.645 151.433 138.76 151.433C153.875 151.393 166.096 151.474 166.096 151.514Z" fill="#E0E0E0"/>
<path d="M163.764 172.538C163.764 172.579 152.83 172.619 139.363 172.619C125.896 172.619 114.961 172.579 114.961 172.538C114.961 172.498 125.896 172.458 139.363 172.458C152.83 172.418 163.764 172.498 163.764 172.538Z" fill="#E0E0E0"/>
<path d="M159.865 168.277C159.865 168.277 159.865 168.197 159.865 168.036C159.865 167.875 159.865 167.634 159.865 167.353C159.865 166.75 159.865 165.825 159.865 164.659C159.865 162.328 159.825 158.911 159.825 154.649L159.905 154.73C150.056 154.73 135.303 154.77 118.821 154.77L118.901 154.69C118.901 159.433 118.901 164.016 118.901 168.317L118.821 168.237C130.64 168.237 140.891 168.277 148.207 168.277C151.865 168.277 154.8 168.317 156.81 168.317C157.815 168.317 158.579 168.317 159.101 168.317C159.342 168.317 159.543 168.317 159.704 168.317C159.785 168.277 159.865 168.277 159.865 168.277C159.865 168.277 159.785 168.277 159.664 168.277C159.543 168.277 159.342 168.277 159.061 168.277C158.538 168.277 157.775 168.277 156.77 168.277C154.76 168.277 151.865 168.277 148.207 168.317C140.891 168.317 130.599 168.358 118.781 168.358H118.7V168.277C118.7 163.976 118.7 159.393 118.7 154.649V154.569H118.781C135.222 154.569 149.976 154.609 159.865 154.609H159.945V154.69C159.945 158.991 159.905 162.408 159.905 164.74C159.905 165.905 159.905 166.79 159.905 167.433C159.905 167.714 159.905 167.956 159.905 168.116C159.865 168.197 159.865 168.277 159.865 168.277Z" fill="#E0E0E0"/>
<path d="M120.429 166.468C120.469 166.508 120.147 166.91 119.705 167.393C119.263 167.875 118.901 168.197 118.861 168.157C118.821 168.116 119.142 167.714 119.584 167.232C119.986 166.79 120.388 166.428 120.429 166.468Z" fill="#E0E0E0"/>
<path d="M120.429 156.418C120.389 156.458 119.987 156.097 119.544 155.574C119.102 155.092 118.781 154.649 118.821 154.609C118.861 154.569 119.263 154.931 119.705 155.453C120.147 155.936 120.469 156.378 120.429 156.418Z" fill="#E0E0E0"/>
<path d="M159.945 154.69C159.986 154.73 159.584 155.172 159.061 155.654C158.498 156.137 158.056 156.499 158.056 156.458C158.016 156.418 158.418 155.976 158.94 155.494C159.463 155.011 159.905 154.649 159.945 154.69Z" fill="#E0E0E0"/>
<path d="M159.865 168.277C159.825 168.317 159.383 167.956 158.86 167.473C158.337 166.991 157.976 166.549 158.016 166.508C158.056 166.468 158.498 166.83 159.021 167.312C159.543 167.795 159.905 168.237 159.865 168.277Z" fill="#E0E0E0"/>
<path d="M158.016 166.468C158.016 166.468 158.016 166.388 158.016 166.307C158.016 166.187 158.016 166.026 158.016 165.785C158.016 165.343 158.016 164.659 158.016 163.815C158.016 162.086 158.016 159.594 157.976 156.418L158.016 156.458C149.453 156.458 135.785 156.499 120.429 156.499L120.509 156.418C120.509 159.875 120.509 163.252 120.509 166.468L120.429 166.388C131.162 166.388 140.529 166.428 147.242 166.428C150.579 166.428 153.272 166.468 155.121 166.468C156.046 166.468 156.77 166.468 157.252 166.468C157.493 166.468 157.694 166.468 157.815 166.468C157.976 166.468 158.016 166.468 158.016 166.468C158.016 166.468 157.976 166.468 157.855 166.468C157.734 166.468 157.533 166.468 157.332 166.468C156.85 166.468 156.126 166.468 155.242 166.468C153.393 166.468 150.699 166.468 147.363 166.508C140.649 166.508 131.243 166.549 120.469 166.549H120.389V166.468C120.389 163.252 120.389 159.875 120.389 156.418V156.338H120.469C135.825 156.338 149.493 156.378 158.056 156.378H158.136V156.418C158.136 159.594 158.096 162.127 158.096 163.855C158.096 164.699 158.096 165.383 158.096 165.825C158.096 166.026 158.096 166.187 158.096 166.307C158.016 166.428 158.016 166.468 158.016 166.468Z" fill="#E0E0E0"/>
<path d="M142.941 160.519C142.619 160.318 142.297 160.157 141.936 160.076C141.614 159.956 141.292 159.916 140.931 159.916H138.157C137.353 159.916 136.549 160.197 135.946 160.76C135.785 160.88 135.664 161.041 135.624 161.162C135.383 161.604 135.383 162.167 135.745 162.529C136.107 162.85 136.83 162.689 136.87 162.207C136.87 162.85 137.514 163.373 138.157 163.333C138.8 163.292 139.323 162.77 139.524 162.167C139.524 162.73 139.966 163.212 140.529 163.252C141.051 163.292 141.614 162.85 141.694 162.328C142.016 162.77 142.539 163.172 143.142 163.011C143.463 162.89 143.704 162.609 143.785 162.287C143.946 161.524 143.503 160.88 142.941 160.519Z" fill="#E0E0E0"/>
<path d="M138.679 159.875C138.72 159.916 138.036 160.237 137.554 160.921C137.031 161.604 136.991 162.328 136.911 162.328C136.87 162.328 136.87 162.127 136.911 161.845C136.951 161.564 137.112 161.162 137.393 160.8C137.674 160.438 137.996 160.157 138.237 160.036C138.478 159.916 138.679 159.875 138.679 159.875Z" fill="#EBEBEB"/>
<path d="M139.725 159.996C139.765 159.996 139.765 160.478 139.725 161.081C139.644 161.684 139.564 162.167 139.524 162.167C139.484 162.167 139.484 161.684 139.524 161.081C139.564 160.478 139.685 159.996 139.725 159.996Z" fill="#EBEBEB"/>
<path d="M141.051 159.956C141.051 159.956 141.212 159.996 141.373 160.157C141.534 160.318 141.694 160.639 141.775 161.001C141.855 161.363 141.815 161.684 141.775 161.926C141.735 162.167 141.694 162.287 141.694 162.287C141.654 162.287 141.654 162.127 141.654 161.926C141.654 161.684 141.654 161.363 141.614 161.041C141.574 160.72 141.413 160.438 141.292 160.237C141.172 160.076 141.051 159.996 141.051 159.956Z" fill="#EBEBEB"/>
<path d="M156.126 179.051H122.438V182.99H156.126V179.051Z" fill="#EBEBEB"/>
<path d="M147.684 141.343V146.408H125.815C124.408 146.408 123.283 145.283 123.283 143.876C123.283 142.469 124.408 141.343 125.815 141.343" fill="#E0E0E0"/>
<path d="M147.684 145.363H140.328C139.604 145.363 139.001 144.76 139.001 144.037V143.715C139.001 142.991 139.604 142.388 140.328 142.388H147.684V145.363Z" fill="#EBEBEB"/>
<path d="M147.684 136.238V141.303H125.815C124.408 141.303 123.283 140.177 123.283 138.77C123.283 137.363 124.408 136.238 125.815 136.238H147.684Z" fill="#EBEBEB"/>
<path d="M147.684 140.258H140.328C139.604 140.258 139.001 139.655 139.001 138.931V138.61C139.001 137.886 139.604 137.283 140.328 137.283H147.684V140.258Z" fill="#F5F5F5"/>
<path d="M131.885 128.077L128.428 136.238H130.639L132.207 131.896L131.885 128.077Z" fill="#E0E0E0"/>
<path d="M142.538 120.721L143.905 136.238H132.528L131.282 120.721H142.538Z" fill="#F5F5F5"/>
<path d="M141.453 121.967L142.618 134.951L134.096 135.072L132.93 121.886L141.453 121.967Z" fill="#FAFAFA"/>
<path d="M139.644 123.736L140.287 132.7H135.744L134.94 123.736H139.644Z" fill="#E0E0E0"/>
<path d="M129.554 64.3602C129.554 64.6014 129.353 64.8024 129.112 64.8024C128.87 64.8024 128.669 64.6014 128.669 64.3602C128.669 64.119 128.87 63.918 129.112 63.918C129.353 63.918 129.554 64.119 129.554 64.3602Z" fill="#F5F5F5"/>
<path d="M130.921 64.3602C130.921 64.6014 130.72 64.8024 130.478 64.8024C130.237 64.8024 130.036 64.6014 130.036 64.3602C130.036 64.119 130.237 63.918 130.478 63.918C130.72 63.918 130.921 64.119 130.921 64.3602Z" fill="#F5F5F5"/>
<path d="M132.287 64.3602C132.287 64.6014 132.086 64.8024 131.845 64.8024C131.604 64.8024 131.403 64.6014 131.403 64.3602C131.403 64.119 131.604 63.918 131.845 63.918C132.086 63.918 132.287 64.119 132.287 64.3602Z" fill="#F5F5F5"/>
<path d="M124.811 70.0284C124.811 70.2696 124.61 70.4706 124.368 70.4706C124.127 70.4706 123.926 70.2696 123.926 70.0284C123.926 69.7872 124.127 69.5862 124.368 69.5862C124.61 69.5862 124.811 69.7872 124.811 70.0284Z" fill="#F5F5F5"/>
<path d="M126.137 70.0284C126.137 70.2696 125.936 70.4706 125.695 70.4706C125.454 70.4706 125.253 70.2696 125.253 70.0284C125.253 69.7872 125.454 69.5862 125.695 69.5862C125.977 69.5862 126.137 69.7872 126.137 70.0284Z" fill="#F5F5F5"/>
<path d="M127.062 70.4706C127.306 70.4706 127.504 70.2726 127.504 70.0284C127.504 69.7842 127.306 69.5862 127.062 69.5862C126.818 69.5862 126.62 69.7842 126.62 70.0284C126.62 70.2726 126.818 70.4706 127.062 70.4706Z" fill="#F5F5F5"/>
<path d="M117.574 75.7368C117.574 75.978 117.373 76.179 117.132 76.179C116.891 76.179 116.69 75.978 116.69 75.7368C116.69 75.4956 116.891 75.2946 117.132 75.2946C117.373 75.2946 117.574 75.4956 117.574 75.7368Z" fill="#F5F5F5"/>
<path d="M118.941 75.7368C118.941 75.978 118.74 76.179 118.499 76.179C118.258 76.179 118.057 75.978 118.057 75.7368C118.057 75.4956 118.258 75.2946 118.499 75.2946C118.74 75.2946 118.941 75.4956 118.941 75.7368Z" fill="#F5F5F5"/>
<path d="M120.308 75.7368C120.308 75.978 120.107 76.179 119.866 76.179C119.624 76.179 119.423 75.978 119.423 75.7368C119.423 75.4956 119.624 75.2946 119.866 75.2946C120.107 75.2946 120.308 75.4956 120.308 75.7368Z" fill="#F5F5F5"/>
<path d="M140.609 106.329C140.609 106.329 140.609 106.369 140.609 106.45C140.609 106.53 140.609 106.691 140.609 106.811C140.609 107.173 140.609 107.656 140.609 108.259C140.609 109.545 140.609 111.394 140.649 113.686V113.766H140.569C135.665 113.766 128.67 113.766 120.871 113.806C113.394 113.806 106.64 113.766 101.696 113.766C99.2434 113.766 97.2736 113.726 95.9068 113.726C95.2234 113.726 94.7008 113.726 94.339 113.726C94.1782 113.726 94.0174 113.726 93.937 113.726C93.8566 113.726 93.8164 113.726 93.8164 113.726C93.8164 113.726 93.8566 113.726 93.937 113.726C94.0576 113.726 94.1782 113.726 94.339 113.726C94.7008 113.726 95.2234 113.726 95.9068 113.726C97.2736 113.726 99.2836 113.726 101.696 113.686C106.6 113.686 113.394 113.686 120.871 113.645C128.63 113.645 135.665 113.686 140.569 113.686L140.489 113.766C140.489 111.475 140.529 109.625 140.529 108.339C140.529 107.696 140.529 107.213 140.529 106.892C140.529 106.731 140.529 106.61 140.529 106.53C140.609 106.369 140.609 106.329 140.609 106.329Z" fill="#EBEBEB"/>
<path d="M157.413 146.851C154.277 142.027 154.719 135.152 158.498 130.771C159.664 129.404 161.312 128.238 163.081 128.399C164.89 128.56 166.377 130.127 166.94 131.856C167.503 133.585 167.302 135.474 166.98 137.283C166.538 139.816 165.774 142.388 164.006 144.278C162.237 146.167 159.664 148.097 157.413 146.851Z" fill="#447FAB"/>
<path d="M159.181 170.046C157.975 167.272 158.86 163.775 161.191 161.845C161.915 161.242 162.88 160.8 163.764 161.041C164.689 161.282 165.292 162.207 165.453 163.172C165.573 164.137 165.292 165.061 164.97 165.986C164.488 167.232 163.885 168.518 162.799 169.322C161.714 170.126 160.227 170.89 159.181 170.046Z" fill="#447FAB"/>
<path d="M151.584 168.398C152.468 164.137 150.217 159.393 146.317 157.383C145.111 156.74 143.624 156.378 142.418 156.981C141.172 157.584 140.569 159.112 140.689 160.478C140.77 161.845 141.453 163.132 142.177 164.297C143.222 165.946 144.468 167.554 146.237 168.358C147.966 169.282 150.337 169.885 151.584 168.398Z" fill="#447FAB"/>
<path d="M152.106 156.86C153.634 151.996 151.061 146.087 146.8 143.273C145.473 142.388 143.785 141.785 142.338 142.348C140.81 142.911 139.966 144.599 139.886 146.248C139.845 147.856 140.448 149.423 141.172 150.871C142.177 152.921 143.463 154.931 145.393 156.097C147.363 157.262 150.498 158.428 152.106 156.86Z" fill="#447FAB"/>
<path d="M155.162 180.659C155.162 180.659 155.122 180.578 155.122 180.418C155.082 180.257 155.082 180.016 155.001 179.734C154.961 179.573 154.961 179.413 154.921 179.252C154.881 179.091 154.84 178.89 154.8 178.689C154.72 178.287 154.639 177.805 154.519 177.282C154.438 177.041 154.398 176.759 154.318 176.478C154.237 176.197 154.157 175.915 154.077 175.594C153.916 174.991 153.675 174.347 153.433 173.704C152.951 172.378 152.308 170.971 151.544 169.523C150.78 168.076 149.936 166.79 149.092 165.664C148.65 165.101 148.288 164.579 147.846 164.096C147.645 163.855 147.444 163.614 147.243 163.413C147.042 163.212 146.841 163.011 146.68 162.81C146.318 162.408 145.956 162.086 145.675 161.805C145.514 161.644 145.393 161.524 145.273 161.403C145.152 161.282 145.032 161.162 144.911 161.081C144.71 160.88 144.549 160.76 144.388 160.639C144.268 160.519 144.228 160.478 144.228 160.478C144.228 160.478 144.308 160.519 144.429 160.599C144.549 160.72 144.75 160.84 144.951 161.041C145.072 161.122 145.192 161.242 145.353 161.363C145.474 161.483 145.635 161.604 145.795 161.765C146.117 162.046 146.479 162.368 146.841 162.77C147.042 162.971 147.202 163.172 147.403 163.373C147.604 163.614 147.805 163.815 148.006 164.056C148.449 164.539 148.81 165.061 149.253 165.624C150.097 166.75 150.941 168.076 151.705 169.523C152.469 170.971 153.072 172.418 153.594 173.744C153.835 174.428 154.036 175.031 154.197 175.674C154.278 175.996 154.358 176.277 154.438 176.558C154.519 176.84 154.559 177.121 154.639 177.362C154.76 177.885 154.84 178.367 154.921 178.769C154.961 178.97 155.001 179.171 155.001 179.372C155.001 179.533 155.041 179.734 155.041 179.855C155.082 180.136 155.082 180.377 155.122 180.538C155.162 180.578 155.162 180.659 155.162 180.659Z" fill="#263238"/>
<path d="M155.041 181.543C155.041 181.543 155.041 181.503 155.041 181.463C155.041 181.382 155.041 181.302 155.081 181.181C155.122 180.9 155.122 180.538 155.162 180.096C155.202 179.855 155.202 179.614 155.242 179.332C155.282 179.051 155.282 178.729 155.282 178.408C155.323 177.724 155.363 176.96 155.363 176.116C155.363 175.714 155.363 175.272 155.363 174.79C155.363 174.347 155.323 173.865 155.282 173.342C155.242 172.337 155.122 171.292 155.001 170.207C154.679 167.996 154.237 165.584 153.514 163.132C152.79 160.679 151.865 158.388 150.901 156.378C150.378 155.373 149.936 154.448 149.413 153.564C149.172 153.122 148.931 152.72 148.69 152.318C148.448 151.916 148.207 151.554 147.966 151.192C147.524 150.469 147.041 149.866 146.68 149.303C146.479 149.021 146.318 148.78 146.117 148.539C145.956 148.298 145.755 148.097 145.634 147.936C145.353 147.574 145.112 147.293 144.951 147.092C144.871 147.011 144.83 146.931 144.79 146.851C144.75 146.81 144.75 146.77 144.75 146.77C144.75 146.77 144.79 146.81 144.83 146.851C144.871 146.891 144.951 146.971 145.031 147.052C145.192 147.253 145.433 147.534 145.755 147.896C145.916 148.097 146.077 148.298 146.278 148.499C146.438 148.74 146.639 148.981 146.84 149.263C147.242 149.785 147.725 150.388 148.167 151.112C148.408 151.474 148.649 151.835 148.891 152.237C149.132 152.639 149.373 153.041 149.614 153.484C150.137 154.328 150.619 155.293 151.102 156.298C152.066 158.308 152.991 160.599 153.755 163.091C154.478 165.584 154.961 167.996 155.242 170.207C155.363 171.332 155.483 172.378 155.524 173.383C155.524 173.865 155.564 174.347 155.564 174.83C155.564 175.272 155.564 175.714 155.564 176.156C155.564 177.001 155.524 177.764 155.483 178.448C155.443 178.769 155.443 179.091 155.403 179.372C155.363 179.654 155.323 179.935 155.323 180.136C155.282 180.578 155.202 180.94 155.202 181.222C155.202 181.342 155.162 181.423 155.162 181.503C155.041 181.503 155.041 181.543 155.041 181.543Z" fill="#263238"/>
<path d="M163.242 134.228C163.242 134.228 163.242 134.268 163.202 134.308C163.162 134.389 163.121 134.469 163.081 134.549C162.961 134.791 162.76 135.112 162.559 135.514C162.438 135.715 162.317 135.956 162.157 136.198C162.036 136.479 161.875 136.76 161.755 137.042C161.594 137.363 161.433 137.685 161.272 138.007C161.111 138.368 160.951 138.73 160.79 139.132C160.629 139.534 160.428 139.936 160.267 140.378C160.106 140.821 159.905 141.263 159.745 141.745C159.664 141.986 159.544 142.228 159.463 142.469C159.383 142.71 159.302 142.951 159.222 143.233C159.061 143.755 158.86 144.278 158.699 144.8C158.016 146.971 157.413 149.383 156.85 151.916C156.328 154.489 155.966 156.941 155.684 159.192C155.443 161.443 155.282 163.493 155.242 165.182C155.202 166.026 155.202 166.83 155.202 167.473C155.202 168.157 155.202 168.719 155.202 169.202C155.202 169.684 155.202 170.046 155.202 170.287C155.202 170.408 155.202 170.488 155.202 170.569C155.202 170.649 155.202 170.649 155.202 170.649C155.202 170.649 155.202 170.609 155.202 170.569C155.202 170.488 155.202 170.408 155.202 170.287C155.202 170.006 155.162 169.644 155.162 169.202C155.122 168.719 155.122 168.157 155.122 167.473C155.122 166.79 155.122 166.026 155.162 165.142C155.202 163.413 155.363 161.403 155.564 159.112C155.805 156.86 156.167 154.408 156.689 151.835C157.212 149.263 157.855 146.851 158.539 144.68C158.74 144.157 158.9 143.635 159.061 143.112C159.142 142.871 159.222 142.589 159.302 142.348C159.383 142.107 159.503 141.866 159.584 141.625C159.785 141.142 159.946 140.7 160.106 140.258C160.267 139.816 160.468 139.414 160.669 139.012C160.83 138.61 160.991 138.248 161.192 137.886C161.353 137.524 161.554 137.203 161.674 136.921C161.835 136.64 161.996 136.358 162.116 136.077C162.237 135.836 162.398 135.595 162.518 135.394C162.76 134.992 162.961 134.67 163.081 134.469C163.162 134.389 163.202 134.308 163.242 134.228C163.242 134.228 163.202 134.268 163.242 134.228Z" fill="#263238"/>
<path d="M162.156 163.815C162.156 163.815 162.036 164.016 161.835 164.418C161.594 164.78 161.272 165.343 160.91 166.026C160.548 166.709 160.146 167.554 159.704 168.478C159.302 169.403 158.9 170.488 158.539 171.614C158.177 172.739 157.936 173.825 157.735 174.87C157.534 175.875 157.413 176.8 157.333 177.563C157.252 178.327 157.212 178.97 157.172 179.413C157.132 179.855 157.132 180.096 157.132 180.096C157.132 180.096 157.091 179.855 157.091 179.413C157.091 178.97 157.091 178.327 157.172 177.563C157.212 176.8 157.333 175.875 157.534 174.83C157.735 173.825 157.976 172.699 158.338 171.574C158.699 170.448 159.101 169.363 159.503 168.438C159.945 167.513 160.348 166.669 160.749 165.986C161.151 165.302 161.473 164.78 161.714 164.418C161.996 164.016 162.156 163.815 162.156 163.815Z" fill="#263238"/>
<path d="M148.931 178.488H162.8L161.111 192.638H150.659L148.931 178.488Z" fill="#455A64"/>
<path d="M149.453 191.111L150.619 192.638H161.111L162.317 191.151L149.453 191.111Z" fill="#263238"/>
<path d="M162.277 182.629C162.277 182.669 159.423 182.749 155.845 182.749C152.307 182.749 149.413 182.709 149.413 182.629C149.413 182.588 152.267 182.508 155.845 182.508C159.383 182.548 162.277 182.588 162.277 182.629Z" fill="#FAFAFA"/>
<path d="M162.277 183.593C162.277 183.634 159.423 183.714 155.845 183.714C152.307 183.714 149.413 183.674 149.413 183.593C149.413 183.553 152.267 183.473 155.845 183.473C159.383 183.473 162.277 183.513 162.277 183.593Z" fill="#FAFAFA"/>
<path d="M162.076 184.478C162.076 184.518 159.302 184.598 155.885 184.598C152.468 184.598 149.694 184.558 149.694 184.478C149.694 184.438 152.468 184.357 155.885 184.357C159.302 184.397 162.076 184.438 162.076 184.478Z" fill="#FAFAFA"/>
<path d="M17.9591 177.483L11.5673 192.679L7.06494 192.638L9.03474 177.483H17.9591Z" fill="#263238"/>
<path d="M42.5213 177.523L36.2099 192.638L31.7075 192.598L33.6773 177.483L42.5213 177.523Z" fill="#263238"/>
<path d="M7.42664 86.3496C9.91904 82.6512 58.8022 82.0884 60.8926 85.9476L78.7816 119.917L105.675 118.67C105.675 118.67 109.293 118.51 112.831 121.886C114.56 123.535 114.479 134.067 113.997 138.127C113.675 140.821 109.535 177.644 109.535 177.644L8.27084 177.443C8.27084 177.443 4.97444 90.048 7.42664 86.3496Z" fill="#455A64"/>
<path d="M36.9736 178.408C36.9736 178.408 36.9736 178.287 36.9736 178.086C36.9736 177.845 36.9736 177.563 37.0138 177.121C37.054 176.277 37.054 175.071 37.0942 173.503C37.1746 170.327 37.255 165.785 37.3756 160.237L37.2952 160.318C45.5764 160.358 56.35 160.438 68.0482 160.519C80.269 160.599 91.4848 160.639 99.9268 160.679L99.8464 160.599C100.731 165.785 100.61 170.086 100.409 173.021C100.289 174.508 100.168 175.634 100.047 176.398C100.007 176.759 99.967 177.081 99.9268 177.282C99.8866 177.483 99.8866 177.563 99.8866 177.563C99.8866 177.563 100.248 175.955 100.49 173.021C100.731 170.086 100.851 165.785 100.007 160.559V160.478H99.9268C91.4848 160.398 80.3092 160.358 68.0482 160.237C56.35 160.157 45.5764 160.117 37.2952 160.076H37.2148V160.157C37.1344 165.745 37.054 170.287 37.0138 173.423C37.0138 174.991 36.9736 176.237 36.9736 177.041C36.9736 177.443 36.9736 177.764 36.9736 178.006C36.9736 178.287 36.9736 178.408 36.9736 178.408Z" fill="#263238"/>
<path d="M40.1095 121.404C40.1095 121.404 40.0291 121.404 39.9085 121.404C39.7879 121.404 39.5869 121.404 39.3055 121.444C38.7829 121.484 37.9789 121.685 37.0543 122.128C36.1297 122.61 35.1247 123.414 34.2403 124.62C33.3559 125.826 32.6725 127.434 32.3107 129.323C31.9489 131.213 31.9087 133.303 31.9087 135.595C31.9087 137.886 31.9891 140.338 32.1499 142.911C32.4313 148.137 33.1147 153.926 33.7981 160.197V160.277H33.8785C41.7577 160.318 50.4007 160.398 59.4859 160.438C77.4553 160.559 93.8167 160.639 105.917 160.72H105.997V160.639C106.198 157.222 105.997 154.087 105.555 151.393C105.073 148.7 104.269 146.449 103.143 144.881C102.58 144.077 101.977 143.474 101.334 143.072C101.254 143.032 101.173 142.951 101.093 142.911C101.012 142.871 100.932 142.831 100.852 142.79C100.691 142.71 100.57 142.63 100.41 142.549C100.128 142.429 99.8467 142.348 99.6055 142.268C99.3643 142.228 99.1231 142.187 98.9623 142.147C98.7613 142.107 98.6005 142.107 98.4799 142.107C98.2387 142.107 98.0779 142.067 98.0779 142.067C98.0779 142.067 98.1985 142.067 98.4799 142.107C98.6005 142.107 98.7613 142.147 98.9623 142.147C99.1633 142.187 99.3643 142.228 99.6055 142.308C99.8467 142.388 100.088 142.469 100.41 142.589C100.53 142.67 100.691 142.75 100.852 142.831C100.932 142.871 101.012 142.911 101.093 142.951C101.173 142.991 101.254 143.072 101.294 143.112C101.897 143.514 102.5 144.117 103.063 144.921C104.148 146.489 104.952 148.74 105.394 151.433C105.837 154.127 106.038 157.222 105.796 160.639L105.877 160.559C93.7765 160.478 77.4151 160.358 59.4457 160.237C50.3605 160.197 41.7175 160.117 33.8383 160.076L33.9187 160.157C33.1951 153.886 32.5519 148.097 32.2303 142.871C32.0695 140.258 31.9891 137.806 31.9891 135.554C31.9891 133.303 32.0293 131.173 32.3911 129.323C32.7127 127.474 33.3961 125.866 34.2805 124.66C35.1649 123.454 36.1699 122.65 37.0543 122.168C37.9789 121.685 38.7427 121.484 39.2653 121.444C39.8281 121.404 40.1095 121.444 40.1095 121.404Z" fill="#263238"/>
<path d="M108.047 177.644L109.535 192.638L104.992 192.598L99.3643 177.644H108.047Z" fill="#263238"/>
<path d="M99.6053 142.348C99.6053 142.348 99.4445 142.348 99.1631 142.308C98.8415 142.268 98.4395 142.187 97.9571 142.107C96.9521 141.946 95.5451 141.705 93.9773 141.504C92.4095 141.343 91.0025 141.303 89.9573 141.303C89.4749 141.303 89.0729 141.303 88.7513 141.303C88.4699 141.303 88.3091 141.303 88.3091 141.303C88.3091 141.303 88.4699 141.263 88.7513 141.223C89.0327 141.182 89.4749 141.182 89.9573 141.142C91.0025 141.102 92.4497 141.102 94.0175 141.263C95.5853 141.424 96.9923 141.705 97.9973 141.906C98.5199 142.027 98.9219 142.107 99.2033 142.187C99.4445 142.268 99.6053 142.348 99.6053 142.348Z" fill="#263238"/>
<path d="M106.761 118.751C106.761 118.751 106.439 118.912 105.876 119.233C105.314 119.555 104.51 120.077 103.665 120.881C102.781 121.685 101.897 122.771 101.133 124.097C100.329 125.424 99.6855 126.992 99.2433 128.72C98.3991 132.218 98.4393 135.474 98.4795 137.806C98.5197 138.971 98.5599 139.936 98.6001 140.579C98.6001 140.901 98.6001 141.142 98.6403 141.343C98.6403 141.504 98.6403 141.625 98.6403 141.625C98.6403 141.625 98.6403 141.544 98.6001 141.343C98.6001 141.142 98.5599 140.901 98.5197 140.579C98.4795 139.936 98.3991 138.971 98.3589 137.806C98.3187 136.64 98.2785 135.233 98.3589 133.665C98.4393 132.097 98.6403 130.409 99.0423 128.64C99.4845 126.871 100.168 125.303 100.972 123.937C101.776 122.61 102.701 121.525 103.585 120.721C104.469 119.917 105.273 119.434 105.876 119.113C106.158 118.952 106.399 118.871 106.56 118.791C106.68 118.751 106.761 118.751 106.761 118.751Z" fill="#263238"/>
<g opacity="0.3">
<g opacity="0.3">
<path opacity="0.3" d="M53.8175 146.891C56.8727 147.614 60.0083 147.936 63.1439 147.815C63.3851 157.584 64.2293 167.353 65.6765 177.041C66.4403 177.403 67.2845 177.724 68.1287 177.764C68.9729 177.805 69.8975 177.403 70.2593 176.599C70.4603 176.116 70.4603 175.594 70.4201 175.111C70.0181 165.383 69.0131 155.654 67.4051 146.047C67.2845 145.323 67.1237 144.559 66.5207 144.157C65.9579 143.755 65.1941 143.876 64.5107 143.996C60.7319 144.72 56.9933 145.564 53.2949 146.609" fill="black"/>
</g>
</g>
<g opacity="0.3">
<path opacity="0.3" d="M49.355 146.087L50.2796 159.473C50.2796 159.473 53.4554 152.237 52.6514 149.464C51.8474 146.69 49.355 146.087 49.355 146.087Z" fill="black"/>
</g>
<path d="M48.5513 92.862C48.2297 82.3296 47.9081 71.757 47.6267 61.2246L46.6217 59.4156C45.7373 58.6116 44.2499 58.7724 43.2851 59.4558C42.3203 60.1392 41.7575 61.305 41.3555 62.4306C39.4661 67.8576 40.9535 73.8474 40.5515 79.596C40.4711 80.8422 40.2701 82.1286 39.5465 83.1738C38.5817 84.5406 36.7325 85.224 35.9687 86.7516C35.2853 88.1184 35.8079 89.9676 37.0943 90.8118C36.1697 91.3344 35.2049 91.8972 34.6019 92.7816C33.9989 93.666 33.8381 94.9524 34.4813 95.7564C35.2049 96.6408 36.5717 96.6408 37.6973 96.5604C40.9535 96.279 44.1695 95.6358 47.3051 94.671C47.7071 94.5504 48.1091 94.3896 48.3503 94.068C48.5513 93.7062 48.5513 93.264 48.5513 92.862Z" fill="#263238"/>
<path d="M41.8379 87.435C41.8379 87.3948 42.2399 87.3546 42.7223 86.832C43.2047 86.3094 43.5665 85.3446 43.6469 84.0984C43.8077 81.606 43.8881 78.1488 43.6067 74.37C43.4459 72.4806 43.2449 70.6716 42.9635 69.0234C42.6821 67.4154 42.5615 65.8476 42.9233 64.6416C43.2449 63.3954 43.9685 62.5914 44.5715 62.1894C44.8529 61.9884 45.1343 61.908 45.2951 61.8276C45.4559 61.7874 45.5765 61.7472 45.5765 61.7472C45.5765 61.7874 45.1745 61.8276 44.6117 62.2296C44.0489 62.6316 43.3655 63.4356 43.0841 64.6416C42.7625 65.8476 42.9233 67.335 43.1645 68.943C43.4459 70.5912 43.6469 72.4002 43.8077 74.2896C44.0891 78.1086 44.0087 81.5658 43.8077 84.0582C43.6871 85.3044 43.2851 86.3094 42.8027 86.832C42.5615 87.0732 42.3203 87.234 42.1193 87.3144C41.9183 87.3948 41.8379 87.435 41.8379 87.435Z" fill="#455A64"/>
<path d="M49.0338 61.0638C48.9132 61.506 49.2348 60.702 49.0338 61.0638V61.0638Z" fill="#FF725E"/>
<path d="M48.6717 59.295C48.3099 58.893 47.7471 59.0538 47.3049 59.3754C46.5813 59.898 46.0587 60.7422 45.6969 61.6668C45.3351 62.5914 45.1743 63.6366 45.0537 64.6416C44.9733 65.2446 44.9733 65.928 45.3753 66.2898C45.6567 66.531 46.0185 66.4908 46.3401 66.2898C46.6215 66.0888 46.8627 65.727 47.0637 65.4054C47.8677 64.0788 48.5109 62.6316 49.0335 61.0638C49.1139 60.6216 48.9531 59.6166 48.6717 59.295Z" fill="#FF725E"/>
<path d="M45.6973 67.2144C46.5013 63.7974 47.9485 60.2598 50.8027 58.2096C53.3353 56.3604 57.0337 55.6368 60.1693 55.878C61.6969 55.9986 63.4254 56.7624 64.752 57.5664C66.561 58.6518 67.2846 60.8226 68.0886 62.7522C69.7368 66.6516 69.3348 71.8776 68.0886 73.2846L51.7273 81.2442C48.9133 79.6764 45.8983 77.5458 45.2551 74.4102C44.7727 72.2796 45.1747 69.345 45.6973 67.2144Z" fill="#263238"/>
<path d="M51.8879 61.1442L62.0987 58.491C65.3951 58.1292 67.6061 62.1492 67.8071 65.4456C68.0483 69.1038 68.2493 73.566 67.8071 76.2996C66.9629 81.807 62.7821 83.0934 62.7821 83.0934C62.7821 83.0934 62.7821 87.8772 62.7419 89.4852L57.9581 104.038L51.1643 89.4852L50.1191 63.114C50.1593 62.109 50.8829 61.2648 51.8879 61.1442Z" fill="#FFBE9D"/>
<path d="M65.9983 69.8676C65.9983 70.2294 65.7169 70.551 65.3149 70.5912C64.9129 70.6314 64.5913 70.35 64.5913 69.948C64.5913 69.5862 64.8727 69.2646 65.2747 69.2244C65.6767 69.1842 65.9983 69.4656 65.9983 69.8676Z" fill="#263238"/>
<path d="M66.8823 67.737C66.8019 67.8174 66.2793 67.4556 65.5155 67.4556C64.7517 67.4556 64.1889 67.8576 64.1085 67.737C64.0683 67.6968 64.1487 67.536 64.3899 67.335C64.6311 67.1742 65.0331 66.9732 65.5155 66.9732C65.9979 66.9732 66.3999 67.134 66.6009 67.335C66.8421 67.536 66.9225 67.6968 66.8823 67.737Z" fill="#263238"/>
<path d="M59.1238 69.8676C59.1238 70.2294 58.8424 70.551 58.4404 70.5912C58.0384 70.6314 57.7168 70.35 57.7168 69.948C57.7168 69.5862 57.9982 69.2646 58.4002 69.2244C58.8022 69.1842 59.1238 69.4656 59.1238 69.8676Z" fill="#263238"/>
<path d="M59.4453 67.938C59.3649 68.0184 58.8021 67.6566 58.0785 67.6566C57.3147 67.6566 56.7519 68.0586 56.6715 67.938C56.6313 67.8978 56.7117 67.737 56.9529 67.536C57.1941 67.3752 57.5961 67.1742 58.0785 67.1742C58.5609 67.1742 58.9629 67.335 59.1639 67.536C59.4051 67.737 59.4855 67.8978 59.4453 67.938Z" fill="#263238"/>
<path d="M62.2191 73.566C62.2191 73.5258 62.7015 73.4454 63.4653 73.3248C63.6663 73.2846 63.8271 73.2444 63.8673 73.1238C63.9075 73.0032 63.8271 72.762 63.7467 72.561C63.5457 72.0786 63.3849 71.5962 63.1839 71.0736C62.3799 68.9832 61.7769 67.2546 61.8573 67.2144C61.9377 67.1742 62.6613 68.8626 63.4653 70.953C63.6663 71.4756 63.8271 71.958 64.0281 72.4404C64.1085 72.6414 64.2291 72.9228 64.1487 73.2042C64.1085 73.365 63.9477 73.4454 63.8271 73.4856C63.7065 73.5258 63.5859 73.5258 63.5055 73.5258C62.7015 73.566 62.2191 73.6062 62.2191 73.566Z" fill="#263238"/>
<path d="M62.8224 83.1336L62.7822 84.5004C57.2748 85.0632 55.4658 81.204 55.4658 81.204C59.124 83.3748 62.8224 83.1336 62.8224 83.1336Z" fill="#EB996E"/>
<path d="M59.7271 74.973C59.9281 74.6112 60.3301 74.4504 60.7321 74.4102C61.2949 74.37 61.8175 74.571 62.1793 75.1338C62.2999 75.2946 62.2999 75.7368 62.2597 75.8574C62.2195 75.978 62.2597 75.9378 62.1391 76.0182C61.8175 76.3398 61.4557 76.6212 61.0135 76.7418C60.5713 76.8624 60.0487 76.7016 59.7673 76.2996C59.5261 75.8574 59.5261 75.3348 59.7271 74.973Z" fill="#EB996E"/>
<path d="M60.0082 74.0886C60.1288 74.0886 60.1288 74.8926 60.8524 75.4956C61.576 76.0584 62.4202 75.978 62.4604 76.0986C62.4604 76.1388 62.2594 76.2594 61.8976 76.2594C61.5358 76.2594 61.0132 76.179 60.571 75.8172C60.1288 75.4554 59.968 74.973 59.9278 74.6514C59.8474 74.2896 59.9278 74.0886 60.0082 74.0886Z" fill="#263238"/>
<path d="M59.767 65.526C59.6866 65.727 58.9228 65.6466 58.0384 65.7672C57.154 65.8476 56.4304 66.129 56.3098 65.928C56.2696 65.8476 56.3902 65.6466 56.6716 65.4456C56.953 65.2446 57.3952 65.0436 57.958 65.0034C58.4806 64.923 58.963 65.0034 59.3248 65.1642C59.6464 65.2446 59.8072 65.4054 59.767 65.526Z" fill="#263238"/>
<path d="M66.6014 65.124C66.4808 65.2848 65.9582 65.124 65.315 65.124C64.6718 65.0838 64.1492 65.2446 64.0286 65.0838C63.9884 65.0034 64.0688 64.8426 64.2698 64.6416C64.511 64.4808 64.8728 64.3602 65.315 64.3602C65.7572 64.3602 66.119 64.521 66.3602 64.6818C66.5612 64.8828 66.6416 65.0436 66.6014 65.124Z" fill="#263238"/>
<path d="M51.6467 69.7872C51.5663 69.747 48.5916 68.8224 48.6318 71.8776C48.672 74.9328 51.7271 74.2896 51.7271 74.2092C51.7271 74.0886 51.6467 69.7872 51.6467 69.7872Z" fill="#FFBE9D"/>
<path d="M50.7623 73.0434C50.7623 73.0434 50.7221 73.0836 50.6015 73.1238C50.5211 73.164 50.3603 73.2042 50.1995 73.1238C49.8779 73.0032 49.5965 72.4806 49.5965 71.958C49.5965 71.6766 49.6368 71.3952 49.7573 71.1942C49.8377 70.953 49.9985 70.7922 50.1593 70.7922C50.3201 70.752 50.4407 70.8324 50.4809 70.953C50.5211 71.0334 50.5211 71.1138 50.5211 71.1138C50.5211 71.1138 50.6015 71.0736 50.5613 70.953C50.5613 70.8726 50.5211 70.8324 50.4407 70.752C50.3603 70.7118 50.2397 70.6716 50.1593 70.6716C49.9181 70.6716 49.7171 70.9128 49.5965 71.154C49.4759 71.3952 49.3956 71.6766 49.4358 71.9982C49.476 72.6012 49.7975 73.2042 50.2397 73.3248C50.4407 73.365 50.6417 73.3248 50.7221 73.2444C50.7623 73.1238 50.8025 73.0434 50.7623 73.0434Z" fill="#EB996E"/>
<path d="M49.7573 74.0484C49.7573 74.0484 49.6367 74.169 49.6367 74.4504C49.6367 74.571 49.6769 74.772 49.8377 74.8926C49.9985 75.0132 50.2397 75.0132 50.4407 74.9328C50.6417 74.8524 50.8025 74.6916 50.8427 74.4906C50.8829 74.2896 50.8427 74.1288 50.7623 74.0082C50.6015 73.767 50.4005 73.767 50.4005 73.767C50.4005 73.8072 50.5613 73.8474 50.6417 74.0484C50.6819 74.169 50.7221 74.2896 50.6819 74.4504C50.6417 74.571 50.5211 74.6916 50.3603 74.772C50.1995 74.8524 50.0387 74.8122 49.9181 74.772C49.7975 74.6916 49.7573 74.571 49.7171 74.4504C49.7171 74.2092 49.7975 74.0484 49.7573 74.0484Z" fill="#E0E0E0"/>
<path d="M68.0888 66.2898C67.6868 65.4054 66.8828 64.7622 66.0386 64.2798C65.1944 63.7974 64.2698 63.4356 63.4256 62.9532C61.496 61.8276 59.9684 59.9382 59.3252 57.8076C60.8528 57.0438 62.702 57.1242 64.2296 57.888C65.7572 58.6518 66.923 60.0186 67.6064 61.5462C68.2898 63.0738 68.5712 64.8024 68.531 66.4908" fill="#263238"/>
<path d="M50.9633 60.3C53.2145 58.1292 57.5159 56.9634 60.4505 57.9684C60.0083 60.5412 58.0787 63.4356 56.3501 65.4054C54.6215 67.4154 53.5763 70.8726 49.8377 69.7068C49.5965 69.6264 49.2749 69.8676 49.0337 69.7068C48.8327 69.5862 48.7523 69.345 48.6719 69.144C47.7071 66.129 48.6317 62.511 50.9633 60.3Z" fill="#263238"/>
<path d="M49.6772 59.8176C49.6772 59.8176 49.6773 59.8578 49.7577 59.9382C49.7979 60.0186 49.8783 60.099 49.9587 60.2196C50.1597 60.4608 50.441 60.7824 50.8832 61.104C51.3254 61.4256 51.8883 61.7472 52.5716 61.9884C53.255 62.2296 54.059 62.3502 54.863 62.31C55.7072 62.2698 56.471 62.0286 57.1142 61.707C57.7574 61.3854 58.28 61.0236 58.682 60.6216C59.084 60.2598 59.3654 59.898 59.5262 59.6568C59.6066 59.5362 59.6468 59.4156 59.687 59.3754C59.7272 59.295 59.7272 59.2548 59.7272 59.2548C59.687 59.2146 59.4056 59.8578 58.6016 60.5412C58.1996 60.903 57.677 61.2648 57.0338 61.5864C56.3906 61.8678 55.6268 62.109 54.8228 62.1492C54.0188 62.1894 53.255 62.0688 52.5716 61.8276C51.8883 61.5864 51.3254 61.305 50.9234 60.9834C50.0792 60.3804 49.6772 59.7774 49.6772 59.8176Z" fill="white"/>
<path d="M48.1895 63.9984C48.1895 63.9984 48.2297 64.0386 48.3101 64.119C48.3905 64.1994 48.4709 64.2798 48.6317 64.4004C48.9131 64.6416 49.3955 64.8828 49.9985 65.124C50.6015 65.325 51.4055 65.4858 52.2497 65.4456C53.1341 65.4054 54.0587 65.2044 54.9431 64.7622C55.8275 64.32 56.5913 63.717 57.1943 63.114C57.7973 62.511 58.2797 61.908 58.6415 61.3452C59.0033 60.8226 59.2847 60.3402 59.4455 60.0186C59.5259 59.8578 59.6063 59.7372 59.6465 59.6568C59.6867 59.5764 59.7269 59.5362 59.6867 59.5362C59.6867 59.5362 59.6465 59.5764 59.6063 59.6568C59.5661 59.7372 59.4857 59.8578 59.4053 60.0186C59.2043 60.3402 58.9631 60.7824 58.5611 61.305C58.1993 61.8276 57.7169 62.4306 57.1139 63.0336C56.5109 63.6366 55.7471 64.1994 54.8627 64.6416C53.9783 65.0838 53.0537 65.2848 52.2095 65.325C51.3653 65.3652 50.6015 65.2446 49.9985 65.0436C49.3955 64.8426 48.9131 64.6014 48.6317 64.3602C48.3503 64.119 48.1895 63.9582 48.1895 63.9984Z" fill="#455A64"/>
<path d="M50.8829 80.7618C50.8829 80.7618 50.8427 80.7618 50.7221 80.6814C50.6015 80.6412 50.4809 80.5608 50.2799 80.4402C49.9181 80.199 49.3553 79.8372 48.7523 79.3548C48.1493 78.8322 47.4659 78.1488 46.8629 77.3046C46.2599 76.4202 45.7373 75.375 45.4157 74.2092C44.7323 71.8374 44.8931 69.5862 45.2549 68.0586C45.4559 67.2948 45.6569 66.6918 45.8579 66.2496C45.9383 66.0486 46.0187 65.8878 46.0589 65.7672C46.0991 65.6466 46.1393 65.6064 46.1393 65.6064C46.1393 65.6064 46.0589 65.8476 45.8981 66.2496C45.7373 66.6516 45.5363 67.2546 45.3755 68.0586C45.0539 69.5862 44.8931 71.8374 45.5765 74.1288C45.8981 75.2946 46.4207 76.2996 46.9835 77.184C47.5865 78.0282 48.2297 78.7116 48.7925 79.2342C49.3955 79.7568 49.9181 80.1186 50.2799 80.4C50.6819 80.601 50.8829 80.7216 50.8829 80.7618Z" fill="#455A64"/>
<path d="M95.5051 158.026L100.611 167.312C100.611 167.312 111.384 164.579 112.51 166.187L95.2237 177.403L86.6611 163.252L95.5051 158.026Z" fill="#447FAB"/>
<g opacity="0.6">
<g opacity="0.6">
<g opacity="0.6">
<g opacity="0.6">
<g opacity="0.6">
<path opacity="0.6" d="M94.7013 169.805C94.4199 170.086 94.4199 170.649 94.7013 170.93C94.9827 171.212 95.5053 171.252 95.8269 170.93C96.1083 170.649 96.1485 170.006 95.8269 169.724C95.5053 169.443 94.8621 169.483 94.6611 169.845" fill="white"/>
</g>
</g>
</g>
</g>
</g>
<g opacity="0.6">
<g opacity="0.6">
<g opacity="0.6">
<g opacity="0.6">
<path opacity="0.6" d="M95.2236 177.443L94.3794 175.996L111.424 165.745C111.424 165.745 112.148 165.624 112.67 166.267L95.2236 177.443Z" fill="white"/>
</g>
</g>
</g>
</g>
<path d="M100.851 167.031C100.892 167.111 100.49 167.433 100.248 167.956C99.967 168.478 99.967 169.001 99.8866 169.001C99.8062 169.041 99.6052 168.438 99.9268 167.795C100.248 167.152 100.851 166.951 100.851 167.031Z" fill="#263238"/>
<path d="M103.183 166.709C103.263 166.79 102.982 167.152 102.902 167.674C102.821 168.197 102.982 168.639 102.902 168.679C102.821 168.76 102.459 168.277 102.58 167.594C102.66 166.951 103.143 166.629 103.183 166.709Z" fill="#263238"/>
<path d="M105.555 168.277C105.475 168.358 105.113 167.996 105.033 167.393C104.952 166.79 105.274 166.348 105.354 166.388C105.435 166.428 105.354 166.83 105.395 167.353C105.435 167.875 105.636 168.237 105.555 168.277Z" fill="#263238"/>
<path d="M99.485 165.061C99.485 165.142 99.0428 165.262 98.5604 165.624C98.078 165.946 97.7966 166.348 97.7162 166.267C97.6358 166.227 97.7966 165.704 98.3594 165.302C98.882 164.941 99.485 164.981 99.485 165.061Z" fill="#263238"/>
<g opacity="0.3">
<g opacity="0.3">
<g opacity="0.3">
<g opacity="0.3">
<path opacity="0.3" d="M96.5104 159.835L97.435 161.524L88.7115 166.629L87.8271 165.182L96.5104 159.835Z" fill="black"/>
</g>
</g>
</g>
</g>
<path d="M98.3998 163.212C98.44 163.252 98.1184 163.493 97.5154 163.735C97.234 163.855 96.832 163.936 96.43 164.016C96.229 164.056 95.9877 164.056 95.7465 164.056C95.6259 164.056 95.5053 164.056 95.3445 164.016C95.1837 163.976 95.0229 163.775 95.0229 163.574C95.0229 163.373 95.1435 163.212 95.2641 163.132C95.3847 163.051 95.5054 163.011 95.626 162.971C95.8672 162.89 96.0681 162.85 96.3093 162.85C96.7516 162.81 97.1134 162.85 97.435 162.89C98.0782 163.011 98.3998 163.252 98.3998 163.292C98.3596 163.333 97.9978 163.212 97.3948 163.132C97.1134 163.091 96.7114 163.091 96.3496 163.172C96.1486 163.212 95.9475 163.252 95.7465 163.333C95.5455 163.413 95.3847 163.493 95.3847 163.614C95.3847 163.654 95.3847 163.654 95.4651 163.694C95.5455 163.735 95.6259 163.735 95.7465 163.735C95.9475 163.735 96.1888 163.735 96.3898 163.735C96.7918 163.694 97.1536 163.614 97.435 163.534C98.038 163.333 98.3596 163.172 98.3998 163.212Z" fill="#263238"/>
<path d="M98.3592 163.373C98.319 163.413 97.9974 163.212 97.5954 162.649C97.4346 162.368 97.2336 162.046 97.1532 161.604C97.113 161.403 97.0728 161.162 97.0728 160.921C97.0728 160.679 97.0728 160.358 97.3542 160.117C97.515 159.996 97.7562 160.036 97.8768 160.157C97.9974 160.237 98.0778 160.318 98.1582 160.438C98.319 160.639 98.4396 160.84 98.52 161.041C98.6808 161.443 98.721 161.845 98.6808 162.167C98.6004 162.85 98.319 163.132 98.2788 163.132C98.2386 163.091 98.4396 162.77 98.4396 162.167C98.4396 161.885 98.3994 161.524 98.2386 161.162C98.1582 161.001 98.0376 160.8 97.917 160.679C97.7964 160.519 97.6356 160.398 97.5552 160.478C97.4748 160.519 97.3944 160.76 97.4346 160.961C97.4346 161.162 97.4748 161.363 97.515 161.564C97.5954 161.966 97.716 162.287 97.8768 162.569C98.118 163.091 98.3994 163.333 98.3592 163.373Z" fill="#263238"/>
<path d="M79.8667 176.076L79.3441 186.689C79.3441 186.689 90.3187 189.985 90.1579 192.558L69.4951 192.518L69.6157 175.875L79.8667 176.076Z" fill="#447FAB"/>
<g opacity="0.6">
<g opacity="0.6">
<g opacity="0.6">
<g opacity="0.6">
<g opacity="0.6">
<path opacity="0.6" d="M72.9927 185.684C72.5907 185.804 72.3093 186.247 72.3897 186.649C72.4701 187.051 72.9123 187.332 73.3143 187.252C73.7163 187.171 74.0781 186.649 73.9575 186.247C73.8369 185.845 73.2741 185.523 72.9123 185.724" fill="#447FAB"/>
</g>
</g>
</g>
</g>
</g>
<g opacity="0.6">
<g opacity="0.6">
<g opacity="0.6">
<g opacity="0.6">
<path opacity="0.6" d="M69.4953 192.518L69.4551 190.789L89.1933 190.99C89.1933 190.99 90.1581 191.674 90.1581 192.518H69.4953Z" fill="#447FAB"/>
</g>
</g>
</g>
</g>
<path d="M79.6658 186.568C79.6658 186.689 79.1432 186.689 78.6608 187.01C78.1382 187.332 77.897 187.734 77.8166 187.694C77.7362 187.654 77.897 187.091 78.5 186.689C79.103 186.367 79.706 186.488 79.6658 186.568Z" fill="#447FAB"/>
<path d="M81.8364 187.493C81.8766 187.573 81.4344 187.774 81.0726 188.176C80.7108 188.578 80.6304 189.061 80.5098 189.02C80.4294 189.02 80.349 188.458 80.7912 187.935C81.2334 187.412 81.8364 187.412 81.8364 187.493Z" fill="#447FAB"/>
<path d="M83.0024 190.106C82.922 190.146 82.7612 189.623 83.0426 189.061C83.324 188.498 83.7662 188.297 83.8064 188.377C83.8466 188.458 83.5652 188.739 83.324 189.221C83.1632 189.664 83.123 190.106 83.0024 190.106Z" fill="#447FAB"/>
<path d="M79.5451 184.156C79.5049 184.237 79.0225 184.116 78.4597 184.116C77.8969 184.116 77.4547 184.317 77.3743 184.237C77.3341 184.156 77.7361 183.794 78.4195 183.754C79.1029 183.754 79.5853 184.076 79.5451 184.156Z" fill="#447FAB"/>
<g opacity="0.3">
<g opacity="0.3">
<g opacity="0.3">
<g opacity="0.3">
<path opacity="0.3" d="M79.5049 183.593L79.3843 185.684L69.4951 185.443V183.714L79.5049 183.593Z" fill="#447FAB"/>
</g>
</g>
</g>
</g>
<path d="M79.5857 181.985C79.5857 182.026 79.1837 182.066 78.5405 181.985C78.2189 181.945 77.8571 181.825 77.4551 181.624C77.2541 181.543 77.0531 181.423 76.8521 181.302C76.7717 181.222 76.6511 181.181 76.5305 181.061C76.4099 180.94 76.3697 180.699 76.4903 180.538C76.6109 180.377 76.7717 180.297 76.9325 180.297C77.0933 180.297 77.2139 180.337 77.3345 180.337C77.5757 180.377 77.7767 180.458 77.9777 180.578C78.3797 180.779 78.7013 180.98 78.9023 181.222C79.3847 181.664 79.5455 182.066 79.5053 182.066C79.4651 182.106 79.2239 181.784 78.7415 181.423C78.5003 181.222 78.1787 181.061 77.8169 180.9C77.6159 180.82 77.4551 180.739 77.2139 180.699C77.0129 180.659 76.8119 180.619 76.7717 180.739C76.7315 180.779 76.7315 180.779 76.8119 180.86C76.8521 180.9 76.9325 180.98 77.0531 181.021C77.2139 181.141 77.4149 181.262 77.5757 181.342C77.9375 181.543 78.2591 181.664 78.5807 181.744C79.2239 181.905 79.5857 181.945 79.5857 181.985Z" fill="#447FAB"/>
<path d="M79.4648 182.146C79.4246 182.146 79.2236 181.784 79.2236 181.141C79.2236 180.82 79.2638 180.418 79.3844 180.016C79.4648 179.815 79.5452 179.614 79.6658 179.413C79.7864 179.212 79.9472 178.93 80.3492 178.89C80.5502 178.89 80.711 179.051 80.7914 179.171C80.8718 179.292 80.8718 179.413 80.912 179.533C80.9522 179.774 80.9522 180.016 80.912 180.217C80.8316 180.659 80.6708 181.021 80.4698 181.262C80.0678 181.784 79.6256 181.905 79.6256 181.865C79.5854 181.825 79.9472 181.624 80.2688 181.101C80.4296 180.86 80.5502 180.538 80.5904 180.136C80.6306 179.935 80.6306 179.734 80.5904 179.533C80.5502 179.332 80.4698 179.131 80.3894 179.171C80.2688 179.171 80.108 179.332 80.0276 179.493C79.907 179.694 79.8266 179.855 79.7462 180.056C79.6256 180.418 79.5452 180.779 79.5452 181.101C79.4246 181.744 79.505 182.106 79.4648 182.146Z" fill="#447FAB"/>
<path d="M49.8778 85.5054L51.0436 85.023C50.6818 84.4602 53.4556 89.847 57.1942 89.8872C62.3398 89.9274 62.8624 84.822 62.8624 84.822L63.1438 84.8622L71.5858 93.6258L72.7114 118.148L71.7868 121.283L53.6164 127.836L47.305 115.253L46.7422 107.495L49.8778 85.5054Z" fill="#F5F5F5"/>
<path d="M50.4406 85.224C50.4406 85.224 40.1494 87.5556 38.461 91.9776C37.7374 93.9072 37.4962 125.223 37.4962 125.223C37.4962 125.223 36.2098 128.077 36.2902 133.987C36.3706 139.655 40.1092 143.313 44.8126 144.398C44.8126 144.398 46.0588 135.474 50.9632 131.012C55.6264 126.791 56.0686 127.313 56.0686 127.313L54.943 117.103L53.7772 108.218C52.6114 101.867 53.938 94.9926 51.7672 88.8822L50.4406 85.224Z" fill="#447FAB"/>
<path d="M72.1889 91.455L79.2239 122.369L71.6663 120.64L69.2543 102.108L63.0635 84.822C63.0635 84.822 64.1087 84.9426 65.4353 85.1838C68.7719 85.6662 71.4251 88.1988 72.1889 91.455Z" fill="#447FAB"/>
<g opacity="0.3">
<g opacity="0.3">
<path opacity="0.3" d="M37.5366 130.529C37.4964 130.891 37.7376 131.253 38.019 131.494C38.3406 131.695 38.7024 131.816 39.0642 131.856C40.7928 132.178 42.6018 131.816 44.2902 131.293C46.2198 130.65 48.0288 129.766 49.878 128.881C52.5312 127.555 53.3754 126.952 55.908 125.384C53.295 126.469 52.4106 126.59 49.677 127.233C45.5766 128.158 41.2752 128.64 37.5366 130.61" fill="black"/>
</g>
</g>
<path d="M52.6514 118.871L57.2342 117.866C57.2342 117.866 62.5004 114.932 63.7064 114.932C64.7918 114.932 68.9726 116.861 69.8168 117.223C69.8972 117.263 69.9776 117.344 70.0178 117.424C70.2188 117.826 70.0982 118.309 69.7364 118.55L69.656 118.59L69.6962 118.711C69.7766 118.831 69.8168 118.992 69.8168 119.153C69.857 119.675 69.1736 119.957 68.852 119.555L69.053 119.796C69.1334 119.876 69.1736 119.997 69.1736 120.118L69.2138 120.359C69.254 120.6 69.0932 120.881 68.8922 121.002C68.6912 121.123 68.4098 121.082 68.2088 120.922C67.646 120.479 66.44 119.595 65.7164 119.555C65.0732 119.555 64.028 119.716 63.3848 119.796C63.0632 119.836 62.822 120.077 62.7416 120.399C63.1838 120.359 66.3194 121.404 67.445 121.766C67.8068 121.886 68.0882 122.128 68.1686 122.489C68.249 122.811 68.1686 123.173 67.4852 123.133C66.0782 123.052 63.425 122.288 63.425 122.288C63.425 122.288 62.0984 122.128 61.3748 122.851C60.3296 123.856 59.8472 124.258 58.802 124.097C57.7568 123.937 56.9528 123.575 56.9528 123.575L55.3046 123.896L52.6514 118.871Z" fill="#FFBE9D"/>
<path d="M62.3394 118.027C62.3394 118.067 62.7012 117.866 63.3846 117.706C64.0278 117.545 64.9524 117.464 65.9574 117.706C66.9624 117.947 67.7262 118.469 68.2488 118.871C68.7714 119.314 69.0126 119.635 69.0126 119.635C69.0126 119.635 68.9724 119.555 68.8518 119.394C68.7312 119.233 68.5704 119.032 68.289 118.831C67.8066 118.389 67.0026 117.866 65.9976 117.625C64.9926 117.384 64.0278 117.464 63.3846 117.625C63.063 117.706 62.8218 117.786 62.6208 117.866C62.4198 117.947 62.3394 118.027 62.3394 118.027Z" fill="#EB996E"/>
<path d="M62.7012 116.58C62.7012 116.62 63.063 116.339 63.7866 116.218C64.47 116.057 65.475 116.138 66.4398 116.54C67.4448 116.942 68.2086 117.545 68.7714 117.947C69.0528 118.148 69.2538 118.309 69.4146 118.469C69.5754 118.59 69.6558 118.67 69.6558 118.63C69.6558 118.63 69.5754 118.55 69.4146 118.429C69.2538 118.309 69.0528 118.108 68.7714 117.907C68.2086 117.464 67.4448 116.861 66.4398 116.459C65.4348 116.057 64.3896 116.017 63.7062 116.178C63.3444 116.258 63.1032 116.379 62.9022 116.459C62.8218 116.5 62.7414 116.54 62.7012 116.58C62.7012 116.58 62.7414 116.54 62.7012 116.58Z" fill="#EB996E"/>
<path d="M44.692 92.9424L42.4006 117.625H41.7574L52.1692 117.826L55.948 125.384C55.948 125.384 42.3202 132.017 36.4912 130.208C29.5768 128.037 31.5466 120.319 31.5868 117.585C31.5868 117.103 35.4862 94.1886 39.2248 90.7314C39.1846 90.7314 44.1292 91.053 44.692 92.9424Z" fill="#447FAB"/>
<path d="M45.0131 99.8166C45.0131 99.8166 45.0131 100.058 44.9729 100.5C44.8925 100.982 44.8121 101.585 44.7317 102.309C44.4905 103.877 44.1689 105.927 43.8473 108.259C43.4855 110.59 43.2041 112.681 42.9629 114.208C42.8423 114.932 42.7619 115.535 42.7217 116.017C42.6413 116.459 42.6011 116.66 42.6011 116.66C42.6011 116.66 42.6011 116.419 42.6413 115.977C42.6815 115.535 42.7619 114.932 42.8423 114.168C43.0031 112.64 43.2845 110.55 43.6463 108.218C44.0081 105.887 44.3297 103.796 44.6111 102.269C44.7317 101.545 44.8523 100.942 44.9327 100.46C44.9327 100.058 44.9729 99.8166 45.0131 99.8166Z" fill="#263238"/>
<path d="M44.209 89.1636C44.209 89.1636 44.2894 89.244 44.41 89.4048C44.5306 89.5656 44.6914 89.847 44.8522 90.1686C45.013 90.4902 45.1738 90.9324 45.3346 91.4148C45.4552 91.8972 45.5758 92.4198 45.6562 93.0228C45.7768 94.1886 45.7366 95.2338 45.6562 95.9574C45.5758 96.7212 45.4954 97.1634 45.4954 97.1634C45.4552 97.1634 45.4954 96.681 45.5356 95.9574C45.5758 95.1936 45.5758 94.1886 45.4552 93.063C45.3748 92.5002 45.2944 91.9776 45.1738 91.4952C45.0532 91.0128 44.8924 90.6108 44.7316 90.249C44.41 89.6058 44.1688 89.2038 44.209 89.1636Z" fill="#263238"/>
<path d="M36.4106 130.208C36.4106 130.208 36.4508 130.208 36.5312 130.208C36.6116 130.208 36.692 130.248 36.8126 130.288C37.0538 130.369 37.4558 130.409 37.9784 130.449C38.9834 130.529 40.4306 130.409 42.2396 130.047C43.124 129.846 44.0888 129.645 45.134 129.404C46.139 129.122 47.2244 128.72 48.35 128.318C50.6012 127.474 53.0132 126.469 55.586 125.424C55.7066 125.384 55.787 125.344 55.9076 125.303L55.8674 125.464C54.5006 122.731 53.2544 120.158 52.1288 117.907L52.2092 117.947C50.5208 117.947 48.9932 117.826 47.6264 117.786C46.2596 117.746 45.0536 117.706 44.0888 117.706C43.0838 117.706 42.32 117.746 41.7974 117.826C41.2748 117.866 40.9934 117.947 40.9934 117.907C40.9934 117.907 41.0738 117.866 41.1944 117.866C41.315 117.826 41.516 117.786 41.7974 117.746C42.32 117.665 43.124 117.625 44.0888 117.585C45.0938 117.545 46.2596 117.585 47.6264 117.625C48.9932 117.665 50.5208 117.746 52.2092 117.746H52.2494L52.2896 117.786C53.4152 120.037 54.7016 122.61 56.0684 125.344L56.1086 125.464L55.988 125.504C55.8674 125.545 55.787 125.585 55.6664 125.625C53.1338 126.71 50.6816 127.675 48.4304 128.519C47.3048 128.921 46.2194 129.323 45.1742 129.605C44.129 129.846 43.1642 130.047 42.2798 130.208C40.511 130.57 39.0236 130.65 38.0186 130.57C36.9332 130.449 36.4106 130.208 36.4106 130.208Z" fill="#263238"/>
<path d="M43.6063 117.665C43.5661 117.706 43.3651 117.424 42.8827 117.143C42.4003 116.861 41.7169 116.54 40.8727 116.419C40.0285 116.299 39.2647 116.339 38.7019 116.339C38.1391 116.379 37.7773 116.379 37.7773 116.339C37.7773 116.299 38.0989 116.258 38.6617 116.178C39.2245 116.138 40.0285 116.057 40.8727 116.178C41.7571 116.299 42.4807 116.62 42.9631 116.982C43.4053 117.344 43.6063 117.665 43.6063 117.665Z" fill="#263238"/>
<g opacity="0.3">
<g opacity="0.3">
<path opacity="0.3" d="M43.4054 117.665C41.918 117.424 40.3904 117.545 38.9834 117.987C38.099 118.268 37.2146 118.67 36.7322 119.434C36.5714 119.675 36.491 120.037 36.692 120.238C36.893 120.399 37.1744 120.359 37.4156 120.238C37.9382 120.037 38.3402 119.635 38.7824 119.314C39.4658 118.791 40.2296 118.309 41.0738 117.987C41.918 117.665 42.8024 117.505 43.6868 117.665" fill="black"/>
</g>
</g>
<g opacity="0.3">
<g opacity="0.3">
<path opacity="0.3" d="M42.963 117.103C42.6414 116.218 41.5158 115.414 40.7922 115.173C39.1038 114.61 37.1742 114.369 35.6868 115.334C35.526 115.454 35.3652 115.575 35.3652 115.776C35.3652 116.057 35.6466 116.218 35.8878 116.258C36.933 116.54 38.0586 116.379 39.144 116.258C40.2294 116.138 41.3952 116.138 42.36 116.701" fill="black"/>
</g>
</g>
<g opacity="0.3">
<g opacity="0.3">
<path opacity="0.3" d="M42.6011 116.017C44.7719 111.595 45.7367 105.806 44.8523 100.661L42.6011 116.017Z" fill="black"/>
</g>
</g>
<path d="M44.7723 144.398C44.7723 144.398 48.5109 146.851 55.9077 146.851C63.3045 146.851 64.9929 146.328 64.9929 146.328L71.9073 140.057L87.1029 166.669C87.1029 166.669 99.1629 159.192 99.2433 159.433C99.4041 159.594 87.9873 134.228 85.4949 129.846C84.6909 128.439 83.9271 127.394 82.6809 125.746C80.1483 122.449 75.9273 120.962 71.9073 121.806C69.8571 122.248 67.6059 122.851 65.5959 123.575C60.0885 125.585 55.3851 126.952 51.4053 130.489C46.7823 134.63 43.9683 142.549 44.7723 144.398Z" fill="#263238"/>
<path d="M70.179 137.002C70.179 137.002 64.7118 140.78 64.8726 143.836C64.9932 146.368 68.37 183.754 68.37 183.754L81.837 183.513L82.7616 159.031L70.179 137.002Z" fill="#263238"/>
<path d="M83.8466 160.961C83.8466 160.961 83.8064 160.921 83.7662 160.88C83.726 160.8 83.6858 160.72 83.6054 160.599C83.4446 160.358 83.2436 159.996 83.0024 159.514C82.4798 158.549 81.7562 157.222 80.8316 155.574C79.0226 152.237 76.49 147.614 73.7162 142.509C72.7112 140.7 71.7866 138.931 70.9022 137.283L71.0228 137.323C68.852 137.605 67.1234 138.891 66.1586 140.419C65.6762 141.182 65.3948 141.986 65.234 142.75C65.0732 143.514 65.0732 144.278 65.0732 144.921C65.1134 146.248 65.234 147.333 65.2742 148.057C65.2742 148.418 65.3144 148.7 65.3144 148.901C65.3144 149.102 65.3144 149.182 65.3144 149.182C65.3144 149.182 65.3144 149.102 65.2742 148.901C65.2742 148.7 65.234 148.418 65.1938 148.057C65.1536 147.333 64.9928 146.288 64.9526 144.921C64.9124 144.238 64.9526 143.514 65.0732 142.71C65.1938 141.906 65.5154 141.062 65.9978 140.298C66.9626 138.73 68.7716 137.363 70.9826 137.082H71.063L71.1032 137.162C71.9876 138.811 72.9524 140.539 73.9574 142.388C76.7312 147.494 79.2236 152.117 81.0326 155.453C81.917 157.102 82.6406 158.468 83.1632 159.433C83.4044 159.875 83.6054 160.237 83.726 160.519C83.7662 160.639 83.8466 160.72 83.8868 160.8C83.8064 160.921 83.8466 160.961 83.8466 160.961Z" fill="#455A64"/>
<path d="M72.5906 131.936C72.6308 131.977 71.6258 132.941 71.1434 134.549C70.661 136.157 70.9424 137.524 70.862 137.524C70.8218 137.524 70.7414 137.203 70.661 136.64C70.6208 136.077 70.661 135.313 70.9022 134.509C71.1434 133.705 71.5454 133.022 71.9072 132.58C72.3092 132.137 72.5906 131.896 72.5906 131.936Z" fill="#455A64"/>
<path d="M69.7766 130.891C69.8168 130.891 69.6962 131.293 69.6158 131.896C69.5354 132.499 69.4952 133.384 69.6962 134.308C69.857 135.233 70.2188 136.037 70.5002 136.6C70.7816 137.162 71.0228 137.444 71.0228 137.484C71.0228 137.484 70.7414 137.203 70.3796 136.68C70.058 136.157 69.656 135.313 69.4952 134.389C69.3344 133.424 69.3746 132.539 69.4952 131.896C69.5756 131.253 69.7364 130.891 69.7766 130.891Z" fill="#455A64"/>
<path d="M59.2845 113.726C59.2443 113.686 59.6463 113.243 60.1689 112.399C60.4503 111.957 60.6915 111.434 60.9729 110.831C61.2141 110.228 61.4553 109.545 61.6563 108.781C61.8171 108.058 61.8975 107.334 61.9377 106.651C61.9779 106.007 61.9377 105.404 61.8975 104.922C61.8171 103.917 61.6563 103.314 61.6965 103.314C61.6965 103.314 61.7769 103.475 61.8171 103.716C61.8573 103.837 61.8975 104.038 61.9377 104.198C61.9779 104.399 62.0181 104.6 62.0583 104.882C62.1387 105.364 62.1789 105.967 62.1387 106.651C62.0985 107.334 62.0181 108.058 61.8573 108.821C61.6965 109.585 61.4151 110.269 61.1739 110.872C60.8925 111.475 60.6111 111.997 60.3297 112.439C60.2091 112.64 60.0483 112.841 59.9277 113.002C59.8071 113.163 59.6865 113.284 59.6061 113.404C59.4051 113.605 59.2845 113.726 59.2845 113.726Z" fill="#263238"/>
<path d="M71.626 89.847C71.626 89.847 86.2186 114.892 86.5402 116.821C86.7814 118.268 86.3392 122.329 85.0126 122.851C81.3544 124.339 77.1334 122.61 73.2742 119.957L72.7114 119.555L71.626 89.847Z" fill="#447FAB"/>
<path d="M7.42666 86.3495C7.42666 86.3495 9.71806 85.0229 10.2407 88.7213C10.8035 92.4197 14.5421 119.555 14.5421 119.555L37.8581 119.354C37.8581 119.354 42.8027 119.153 46.1393 129.203C48.4709 136.238 50.8829 160.157 50.8829 160.157L50.4407 177.483H8.23066C8.23066 177.483 6.94426 141.182 6.70306 125.062C6.46186 108.942 6.05986 91.2941 7.42666 86.3495Z" fill="#455A64"/>
<path d="M9.55713 86.1084C9.55713 86.1084 9.59733 86.1486 9.67773 86.229C9.75813 86.3094 9.87873 86.43 10.0395 86.5908C10.3209 86.9124 10.6827 87.5154 10.7631 88.3596C10.9641 90.048 11.2455 92.5002 11.6073 95.5152C12.3711 101.585 13.4163 110.068 14.5821 119.595V119.675H14.6625C16.2303 119.635 17.8785 119.595 19.5267 119.555C24.7929 119.474 29.8179 119.434 34.3605 119.555C35.4861 119.595 36.6117 119.635 37.6971 119.716C37.9785 119.756 38.2197 119.756 38.5011 119.796C38.7825 119.836 39.0237 119.876 39.2649 119.917C39.7875 119.957 40.2297 120.158 40.6719 120.439C41.4759 121.042 42.1191 121.806 42.6417 122.61C43.2045 123.374 43.6467 124.178 44.0487 124.942C45.6969 128.037 46.6617 130.73 47.2245 132.62C47.5059 133.544 47.6667 134.308 47.7471 134.831C47.7873 135.072 47.7873 135.273 47.8275 135.434C47.8275 135.554 47.8275 135.635 47.8275 135.635C47.8275 135.635 47.8275 135.554 47.8275 135.434C47.8275 135.313 47.8275 135.112 47.7873 134.831C47.7069 134.308 47.5461 133.544 47.3049 132.62C47.0235 131.655 46.6617 130.529 46.1391 129.203C45.6165 127.916 45.0135 126.429 44.1693 124.861C43.7673 124.097 43.2849 123.293 42.7623 122.489C42.1995 121.685 41.5965 120.922 40.7523 120.278L40.4307 120.077C40.3101 119.997 40.1895 119.957 40.0689 119.917C39.9483 119.876 39.8277 119.836 39.6669 119.796C39.5463 119.756 39.4257 119.756 39.2649 119.716C39.0237 119.675 38.7423 119.635 38.4609 119.595C38.1795 119.555 37.9383 119.555 37.6569 119.515C36.5715 119.434 35.4459 119.394 34.3203 119.354C29.7777 119.193 24.7527 119.233 19.4865 119.314C17.7981 119.354 16.1901 119.394 14.6223 119.434L14.7429 119.515C13.5369 109.947 12.4515 101.505 11.6877 95.4348C11.2857 92.4198 10.9641 89.9676 10.7631 88.2792C10.6827 87.435 10.2807 86.832 9.99933 86.5104C9.75813 86.1888 9.55713 86.1084 9.55713 86.1084Z" fill="#263238"/>
<path d="M40.1095 121.404C40.1095 121.404 40.0693 121.404 39.9487 121.444C39.8281 121.444 39.7075 121.484 39.5065 121.525C39.1045 121.605 38.5417 121.766 37.8583 122.047C37.1749 122.329 36.3307 122.811 35.5267 123.494C35.0845 123.816 34.7227 124.258 34.3207 124.741C34.1599 124.982 33.9589 125.263 33.7981 125.504C33.7579 125.585 33.7177 125.625 33.6775 125.705L33.5569 125.906C33.4765 126.067 33.3961 126.188 33.3157 126.349C33.2353 126.509 33.1549 126.67 33.0745 126.791C32.9941 126.952 32.9539 127.112 32.8735 127.273C32.7529 127.595 32.6323 127.957 32.5117 128.278C32.3509 129.002 32.1499 129.725 32.0695 130.529C32.0293 130.931 31.9891 131.333 31.9489 131.735C31.9489 132.137 31.9489 132.58 31.9489 132.982C31.9087 133.826 31.9891 134.71 32.0293 135.595C32.1901 139.172 32.4313 143.112 32.7529 147.253C33.1147 151.916 33.5167 156.338 33.9187 160.197L33.8383 160.117C38.9035 160.157 43.1647 160.197 46.1395 160.237C47.6269 160.237 48.7927 160.277 49.6369 160.277C50.0389 160.277 50.3203 160.277 50.5615 160.277C50.6419 160.277 50.7223 160.277 50.8027 160.277C50.8429 160.277 50.8831 160.277 50.8831 160.277C50.8831 160.277 50.8429 160.277 50.8027 160.277C50.7223 160.277 50.6821 160.277 50.5615 160.277C50.3605 160.277 50.0389 160.277 49.6369 160.277C48.8329 160.277 47.6269 160.277 46.1395 160.277C43.1245 160.277 38.8633 160.277 33.8383 160.237H33.7579V160.157C33.3559 156.298 32.9539 151.876 32.5921 147.212C32.2705 143.072 32.0293 139.132 31.8685 135.554C31.8283 134.67 31.7881 133.786 31.7881 132.941C31.7881 132.499 31.7881 132.097 31.7881 131.695C31.8283 131.293 31.8685 130.891 31.9087 130.489C31.9489 129.685 32.1901 128.921 32.3509 128.198C32.4715 127.836 32.5921 127.514 32.7127 127.153C32.7931 126.992 32.8333 126.831 32.9137 126.67C32.9941 126.509 33.0745 126.349 33.1549 126.228C33.2353 126.067 33.3157 125.906 33.3961 125.786L33.5167 125.585C33.5569 125.504 33.5971 125.464 33.6373 125.384C33.8383 125.102 33.9991 124.861 34.2001 124.62C34.6021 124.178 35.0041 123.695 35.4061 123.374C36.2503 122.65 37.0543 122.208 37.7779 121.927C38.5015 121.645 39.0643 121.484 39.4663 121.444C39.6673 121.404 39.8281 121.404 39.9085 121.364C40.0291 121.404 40.1095 121.404 40.1095 121.404Z" fill="#263238"/>
<path d="M39.8276 177.684C39.7874 177.684 39.707 173.905 39.707 169.282C39.707 164.619 39.7472 160.88 39.8276 160.88C39.908 160.88 39.9482 164.659 39.9482 169.282C39.9482 173.905 39.908 177.684 39.8276 177.684Z" fill="#263238"/>
<path d="M92.2892 104.48L68.531 106.61C68.33 106.61 68.129 106.771 68.0486 107.012L62.7824 123.977C62.7422 124.138 62.6216 124.258 62.4608 124.339L53.3354 126.831C53.1344 126.911 52.9736 127.112 52.9736 127.313C52.9736 127.675 53.2952 127.957 53.657 127.876L63.4658 125.786L85.5356 123.052C85.7366 123.012 85.8974 122.891 85.9778 122.731L92.852 105.284C92.9726 104.842 92.6912 104.44 92.2892 104.48Z" fill="#E0E0E0"/>
<path d="M92.2889 104.48C92.2889 104.48 92.3693 104.44 92.4899 104.48C92.6105 104.52 92.8517 104.641 92.8919 104.922C92.9321 105.083 92.8517 105.203 92.8115 105.364C92.7311 105.525 92.6909 105.686 92.6105 105.887C92.4497 106.249 92.2889 106.691 92.0879 107.173C91.3241 109.143 90.1985 111.997 88.8317 115.535C88.1483 117.304 87.3845 119.273 86.5403 121.364C86.4197 121.645 86.3393 121.886 86.2187 122.168L86.0579 122.57C86.0177 122.69 85.8971 122.891 85.7765 122.972C85.6961 123.012 85.6157 123.052 85.5353 123.052L85.2941 123.092L84.8519 123.133C84.5705 123.173 84.2489 123.213 83.9675 123.253C82.7615 123.414 81.5153 123.575 80.2691 123.736C75.1637 124.379 69.4955 125.102 63.4655 125.826C61.7771 126.188 60.0887 126.55 58.3601 126.911C57.4757 127.112 56.6315 127.273 55.7471 127.474C55.3049 127.555 54.8627 127.675 54.4205 127.756L53.7773 127.876C53.6567 127.916 53.5361 127.916 53.4155 127.916C53.2949 127.876 53.1743 127.836 53.0537 127.715C52.8929 127.555 52.8527 127.313 52.8929 127.112C52.9331 126.911 53.0939 126.71 53.2949 126.67C56.4305 125.826 59.4455 124.982 62.4203 124.178C62.5811 124.138 62.6615 124.017 62.7017 123.816L62.8625 123.293C62.9831 122.932 63.1037 122.57 63.1841 122.208C63.4253 121.484 63.6263 120.801 63.8675 120.077C64.3097 118.67 64.7519 117.304 65.1539 115.937C65.9981 113.243 66.8021 110.63 67.5659 108.178C67.6463 107.857 67.7669 107.575 67.8473 107.254C67.8875 107.093 67.9277 106.972 68.0081 106.771C68.0885 106.61 68.2895 106.49 68.4503 106.49C69.0935 106.45 69.6965 106.369 70.2995 106.329C71.5055 106.208 72.6713 106.128 73.7969 106.007C76.0481 105.806 78.1385 105.605 80.0681 105.445C83.8871 105.123 86.9021 104.842 89.0327 104.681C90.0779 104.6 90.8819 104.52 91.4447 104.48C91.7261 104.44 91.9271 104.44 92.0477 104.44C92.2085 104.48 92.2889 104.48 92.2889 104.48C92.2889 104.48 92.2085 104.48 92.0879 104.52C91.9271 104.52 91.7261 104.56 91.4849 104.6C90.9221 104.641 90.1181 104.721 89.0729 104.842C86.9825 105.043 83.9273 105.324 80.1485 105.686C78.2591 105.847 76.1687 106.048 73.9175 106.249C72.7919 106.369 71.6261 106.45 70.4201 106.57C69.8171 106.61 69.2141 106.691 68.5709 106.731C68.4503 106.731 68.3297 106.811 68.2493 106.932C68.1689 107.053 68.1689 107.213 68.0885 107.374C68.0081 107.696 67.8875 107.977 67.8071 108.299C67.0433 110.751 66.2393 113.364 65.3951 116.057C64.9931 117.424 64.5509 118.791 64.1087 120.198C63.9077 120.922 63.6665 121.605 63.4655 122.329C63.3449 122.69 63.2243 123.052 63.1439 123.414L62.9831 123.937C62.9429 124.138 62.7821 124.339 62.5409 124.419C59.6063 125.223 56.5511 126.067 53.4155 126.911C53.2949 126.952 53.1743 127.072 53.1341 127.233C53.0939 127.394 53.1341 127.514 53.2547 127.635C53.3351 127.715 53.4155 127.756 53.4959 127.756C53.5763 127.796 53.6567 127.756 53.7773 127.715L54.4205 127.595C54.8627 127.514 55.3049 127.394 55.7471 127.313C56.6315 127.112 57.4757 126.952 58.3601 126.751C60.0887 126.389 61.7771 126.027 63.4655 125.665C69.4955 124.901 75.1637 124.218 80.2691 123.575C81.5555 123.414 82.8017 123.253 84.0077 123.133C84.2891 123.092 84.6107 123.052 84.8921 123.012L85.3343 122.972C85.4951 122.932 85.6157 122.932 85.7363 122.891C85.8569 122.811 85.8971 122.731 85.9775 122.57L86.1383 122.168C86.2589 121.886 86.3393 121.645 86.4599 121.364C87.3041 119.273 88.0679 117.304 88.7513 115.535C90.1583 111.997 91.2839 109.143 92.0879 107.213C92.2889 106.731 92.4497 106.289 92.6105 105.927C92.6909 105.726 92.7713 105.565 92.8115 105.404C92.8919 105.244 92.9321 105.123 92.9321 104.962C92.8919 104.681 92.6909 104.56 92.5703 104.52C92.3693 104.48 92.2889 104.48 92.2889 104.48Z" fill="#263238"/>
<path d="M69.4151 106.53C69.4151 106.53 69.4151 106.61 69.3749 106.731C69.3347 106.892 69.2945 107.053 69.2141 107.294C69.0935 107.776 68.8925 108.5 68.6111 109.384C68.0885 111.113 67.3649 113.525 66.5207 116.178C65.6765 118.791 64.9127 121.203 64.3499 122.972C64.0685 123.816 63.8675 124.499 63.7067 125.022C63.6263 125.263 63.5861 125.424 63.5057 125.585C63.4655 125.705 63.4253 125.786 63.4253 125.786C63.4253 125.786 63.4253 125.705 63.4655 125.585C63.5057 125.424 63.5459 125.263 63.6263 125.022C63.7469 124.54 63.9479 123.816 64.2293 122.932C64.7519 121.203 65.4755 118.791 66.3197 116.138C67.1639 113.525 67.9277 111.113 68.4905 109.344C68.7719 108.5 68.9729 107.816 69.1337 107.294C69.2141 107.053 69.2543 106.892 69.3347 106.731C69.3749 106.61 69.4151 106.53 69.4151 106.53Z" fill="#263238"/>
<path d="M78.5406 113.485C78.1788 113.485 77.9376 113.565 77.616 113.927C77.3748 114.168 77.214 114.53 77.3748 114.851C77.4954 115.093 77.7366 115.213 77.9778 115.253C78.219 115.294 78.4602 115.173 78.7014 115.052C78.9828 114.892 79.2642 114.57 79.2642 114.248C79.2642 113.887 78.9426 113.444 78.5406 113.485Z" fill="white"/>
<path d="M75.6463 105.847C75.6463 105.847 75.5659 105.686 75.4453 105.364C75.3247 105.002 75.1639 104.52 75.0031 103.997C74.6011 102.832 74.0785 101.224 73.3951 99.495C72.7117 97.7262 72.0685 96.1986 71.5861 95.0328C71.3449 94.5102 71.1439 94.068 71.0233 93.7062C70.9027 93.3846 70.8223 93.2238 70.8223 93.2238C70.8223 93.2238 70.9429 93.3846 71.1037 93.7062C71.2645 94.0278 71.4655 94.47 71.7469 95.0328C72.2695 96.1584 72.9529 97.7262 73.6363 99.4548C74.3197 101.224 74.8423 102.832 75.2041 103.997C75.3649 104.6 75.5257 105.083 75.6061 105.404C75.6061 105.686 75.6463 105.847 75.6463 105.847Z" fill="#263238"/>
<path d="M174.136 192.638C174.136 192.679 135.062 192.759 86.902 192.759C38.7022 192.759 -0.332031 192.719 -0.332031 192.638C-0.332031 192.598 38.7022 192.518 86.902 192.518C135.062 192.518 174.136 192.558 174.136 192.638Z" fill="#263238"/>
<path d="M30.3501 29.7831V-1.89923" stroke="#C7C7C7" stroke-miterlimit="10"/>
<path d="M41.3354 40.3834L40.4472 42.3376H20.2237L19.3354 40.3834L27.9519 34.4319H32.719L41.3354 40.3834Z" fill="#EBEBEB"/>
<path d="M33.3405 28.6876L32.7187 34.4319H27.9516L27.3594 28.6876H33.3405Z" fill="#DBDBDB"/>
<path d="M41.3354 40.3834L40.4472 42.3376H20.2237L19.3354 40.3834H41.3354Z" fill="#DBDBDB"/>
<path d="M149.872 38H138V43.0176H149.872V38Z" fill="#EBEBEB"/>
<path d="M156.502 44.3616H144.63V49.3792H156.502V44.3616Z" fill="#EBEBEB"/>
<path d="M116 94.3432H127.872V89.3256H116V94.3432Z" fill="#EBEBEB"/>
<path d="M122.65 88.0176H134.522V83H122.65V88.0176Z" fill="#EBEBEB"/>
</g>
<defs>
<clipPath id="clip0">
<rect width="174" height="193" fill="white"/>
</clipPath>
</defs>
</svg>
