<svg width="24" height="25" viewBox="0 0 24 25" fill="none" xmlns="http://www.w3.org/2000/svg">
<path d="M4.36619 16.0828L5.041 15.7555L5.041 15.7555L4.36619 16.0828ZM5.17514 11.8063L5.68376 12.3575L5.68376 12.3575L5.17514 11.8063ZM6.32194 8.67039L5.57773 8.76341L5.57773 8.76341L6.32194 8.67039ZM18.8564 11.9277L19.3668 11.3782L19.3668 11.3782L18.8564 11.9277ZM19.4783 16.7679L18.8456 16.3652L18.8456 16.3652L19.4783 16.7679ZM17.6015 8.55919L18.3458 8.65221L18.3458 8.65221L17.6015 8.55919ZM18.8125 11.887L18.3021 12.4365L18.3021 12.4365L18.8125 11.887ZM4.46954 16.2959L3.79474 16.6232L3.79474 16.6232L4.46954 16.2959ZM17.6662 8.04226L16.922 7.94923L16.922 7.94923L17.6662 8.04226ZM6.24258 8.03554L6.98679 7.94251L6.98679 7.94251L6.24258 8.03554ZM8.58336 19.2189L7.93553 19.5968L7.93553 19.5968L8.58336 19.2189ZM8.8312 18.1553C8.62249 17.7975 8.16325 17.6767 7.80546 17.8854C7.44767 18.0941 7.32682 18.5533 7.53553 18.9111L8.8312 18.1553ZM16.8312 18.9111C17.0399 18.5533 16.9191 18.0941 16.5613 17.8854C16.2035 17.6767 15.7442 17.7975 15.5355 18.1553L16.8312 18.9111ZM15.7834 19.2189L16.4312 19.5968L16.4312 19.5968L15.7834 19.2189ZM11.0999 3.2832H12.8029V1.7832H11.0999V3.2832ZM16.2623 17.7832H8.04144V19.2832H16.2623V17.7832ZM16.922 7.94923L16.8573 8.46616L18.3458 8.65221L18.4104 8.13528L16.922 7.94923ZM18.3021 12.4365L18.346 12.4773L19.3668 11.3782L19.3229 11.3374L18.3021 12.4365ZM7.06615 8.57736L6.98679 7.94251L5.49838 8.12857L5.57773 8.76341L7.06615 8.57736ZM5.14435 15.9686L5.041 15.7555L3.69139 16.4101L3.79474 16.6232L5.14435 15.9686ZM5.041 15.7555C4.48292 14.605 4.74401 13.2247 5.68376 12.3575L4.66651 11.2551C3.24083 12.5707 2.84474 14.6647 3.69139 16.4101L5.041 15.7555ZM5.57773 8.76341C5.69385 9.69237 5.35452 10.6203 4.66651 11.2551L5.68376 12.3575C6.72753 11.3943 7.24231 9.98666 7.06615 8.57736L5.57773 8.76341ZM18.346 12.4773C19.4289 13.4829 19.639 15.1185 18.8456 16.3652L20.111 17.1705C21.2932 15.3131 20.9801 12.8764 19.3668 11.3782L18.346 12.4773ZM16.8573 8.46616C16.6725 9.94495 17.2101 11.4224 18.3021 12.4365L19.3229 11.3374C18.5843 10.6515 18.2207 9.65233 18.3458 8.65221L16.8573 8.46616ZM8.04144 17.7832C6.80787 17.7832 5.68272 17.0784 5.14435 15.9686L3.79474 16.6232C4.58391 18.2501 6.23321 19.2832 8.04144 19.2832V17.7832ZM16.2623 19.2832C17.822 19.2832 19.2736 18.4864 20.111 17.1705L18.8456 16.3652C18.2835 17.2484 17.3091 17.7832 16.2623 17.7832V19.2832ZM12.8029 3.2832C15.2998 3.2832 17.2317 5.47161 16.922 7.94923L18.4104 8.13528C18.832 4.76238 16.202 1.7832 12.8029 1.7832V3.2832ZM11.0999 1.7832C7.70439 1.7832 5.07721 4.75923 5.49838 8.12857L6.98679 7.94251C6.67754 5.46846 8.60664 3.2832 11.0999 3.2832V1.7832ZM9.2312 18.841L8.8312 18.1553L7.53553 18.9111L7.93553 19.5968L9.2312 18.841ZM15.5355 18.1553L15.1355 18.841L16.4312 19.5968L16.8312 18.9111L15.5355 18.1553ZM7.93553 19.5968C8.94833 21.333 10.5263 22.2832 12.1834 22.2832C13.8404 22.2832 15.4184 21.333 16.4312 19.5968L15.1355 18.841C14.3483 20.1905 13.2263 20.7832 12.1834 20.7832C11.1404 20.7832 10.0184 20.1905 9.2312 18.841L7.93553 19.5968Z" fill="#2D264B"/>
</svg>
