<svg width="151" height="132" viewBox="0 0 151 132" fill="none" xmlns="http://www.w3.org/2000/svg">
<path d="M88.2691 65.4654C88.2691 65.4654 81.9862 78.1044 75.5982 86.8362C73.0575 90.3078 70.5036 93.159 68.3174 94.3536C66.1837 95.5152 64.3717 97.3236 62.8748 99.33C59.0013 104.518 57.209 111.019 57.209 111.019L40.8813 86.1894C40.8813 86.1894 41.4394 61.9146 43.3958 57.8556C46.2517 51.9354 47.6304 39.9828 48.7333 37.6002C49.5474 35.8314 51.8715 26.7168 52.0947 26.0436C52.1932 25.7532 52.9679 25.311 53.9724 25.311C54.7799 25.311 56.1455 26.0964 56.4934 27.7068C58.2398 35.8446 56.1389 41.2104 56.1586 41.4546C56.7757 47.7114 54.9243 52.3512 56.2243 53.5788C56.2702 53.625 56.3621 53.6052 56.4869 53.5194C58.7387 52.0674 72.7095 31.5942 74.4296 31.152C76.2547 30.6768 88.2691 65.4654 88.2691 65.4654Z" fill="#FFB27D"/>
<path d="M62.1264 106.095C62.1264 106.095 61.9032 117.13 61.2664 131.993H20.0894C29.4973 111.817 37.6841 94.8288 37.6841 94.8288C37.6841 94.8288 61.1351 95.5482 62.1264 106.095Z" fill="#46ADFA"/>
<path d="M102.542 22.6842L97.4867 30.1356L92.5234 37.4484C92.2214 37.818 91.8734 37.9434 91.4926 37.9038C90.3043 37.7916 88.8272 36.0624 87.6783 35.1054L87.5601 35.0064C86.0435 33.7458 85.8334 31.4754 87.0874 29.9508L94.6702 20.7372L96.9221 18.0048C98.176 16.4802 100.434 16.269 101.951 17.5296L102.069 17.6286C103.586 18.8826 103.796 21.1596 102.542 22.6842Z" fill="#FFB27D"/>
<path d="M97.4868 30.1356L92.5234 37.4484C92.2214 37.818 91.8735 37.9434 91.4927 37.9038L94.6703 20.7438C94.6834 20.8362 95.2217 28.5384 97.4868 30.1356Z" fill="#EFA26F"/>
<path d="M75.5983 86.8362C73.0576 90.3078 70.5037 93.159 68.3175 94.3536C66.1838 95.5152 64.3718 97.3236 62.875 99.33C61.1549 98.5248 59.1919 97.5744 57.2748 96.6438C54.9376 95.502 54.8523 92.169 57.137 90.9348C57.1567 90.9216 57.1829 90.9084 57.2026 90.8952C59.3429 89.661 61.5422 85.3116 61.5422 85.3116L75.5983 86.8362Z" fill="#EFA26F"/>
<path d="M51.9897 26.4131L50.6636 31.7856C50.6636 31.7856 51.819 32.2608 52.5609 31.8912C53.3028 31.5216 53.9199 26.7035 51.9897 26.4131Z" fill="#FFC197"/>
<path d="M90.0351 89.3706H61.588C58.7913 89.3706 56.5 87.0672 56.5 84.2556V21.3972C56.5 18.5856 58.7913 16.2822 61.588 16.2822H90.0351C92.8319 16.2822 95.1232 18.5856 95.1232 21.3972V84.2556C95.1232 87.0672 92.8319 89.3706 90.0351 89.3706Z" fill="#2B478B"/>
<path d="M93.2129 21.879V83.2788C93.2129 85.3644 91.5322 87.0672 89.4707 87.0672H62.1528C60.0979 87.0672 58.4106 85.3644 58.4106 83.2788V21.879C58.4106 19.7934 60.0913 18.0906 62.1528 18.0906H89.4707C91.5256 18.0906 93.2129 19.8 93.2129 21.879Z" fill="#C0D8FB"/>
<path d="M89.4719 18.0906L62.4955 87.0738H62.1606C60.1057 87.0738 58.4185 85.371 58.4185 83.2854V21.879C58.4185 19.7934 60.0992 18.0906 62.1606 18.0906H89.4719Z" fill="#CBE1FD"/>
<path d="M81.5199 20.3742H70.103C69.1707 20.3742 68.4092 19.6086 68.4092 18.6714V18.4074C68.4092 17.4702 69.1707 16.7046 70.103 16.7046H81.5199C82.4521 16.7046 83.2137 17.4702 83.2137 18.4074V18.6714C83.2137 19.6152 82.4521 20.3742 81.5199 20.3742Z" fill="#2B478B"/>
<path d="M100.028 50.82L99.2727 51.1104L94.2043 53.0442C94.0861 53.0904 93.968 53.13 93.8432 53.1564C92.1625 53.592 90.3768 52.6944 89.7465 51.0312L89.6743 50.8332C88.9981 49.0512 89.8975 47.0316 91.6767 46.3518L96.4036 44.5434L96.745 44.4114L97.5 44.121C99.2727 43.4412 101.282 44.3454 101.951 46.134L102.023 46.332C102.706 48.1272 101.807 50.1468 100.028 50.82Z" fill="#FFB27D"/>
<path d="M95.9114 50.9388C95.0645 51.2622 93.5348 51.8364 92.7142 51.9486C92.4844 51.9816 92.0577 51.8562 91.6572 51.414C91.4208 51.15 91.191 50.7738 91.0204 50.259C90.9416 50.0148 90.8759 49.7706 90.8497 49.5198C90.8168 49.2294 90.8234 48.9324 90.8759 48.642C90.9219 48.378 91.0991 48.1404 91.3617 48.015C91.3617 48.015 91.3617 48.015 91.3683 48.015C92.2415 47.5992 93.4167 47.0844 94.4408 46.8006C95.1499 46.6026 95.8721 46.9194 96.0953 47.5464L96.2003 47.8368L96.7452 49.335C96.9684 49.962 96.6008 50.6748 95.9114 50.9388Z" fill="#FFD3B6"/>
<path d="M95.9113 50.9388C95.0644 51.2622 93.5347 51.8364 92.7141 51.9486C92.4843 51.9816 92.0576 51.8562 91.6571 51.414C91.6177 51.315 91.5783 51.2094 91.5389 51.0972C91.4601 50.853 91.3945 50.6088 91.3682 50.358C91.3354 50.0676 91.3419 49.7706 91.3945 49.4802C91.4404 49.2162 91.6177 48.9786 91.8803 48.8532C91.8803 48.8532 91.8803 48.8532 91.8869 48.8532C92.76 48.4374 93.9352 47.9226 94.9594 47.6388C95.4124 47.5134 95.872 47.5992 96.2068 47.8368L96.7517 49.335C96.9683 49.962 96.6007 50.6748 95.9113 50.9388Z" fill="#FFC197"/>
<path d="M97.7295 57.9876L93.8166 59.0568C92.6283 59.3802 91.3941 58.674 91.0658 57.4794L90.9476 57.0372C90.6259 55.8426 91.3284 54.6018 92.5167 54.2718L96.4296 53.2026C97.6179 52.8792 98.8521 53.5854 99.1804 54.78L99.2986 55.2222C99.6203 56.4168 98.9178 57.6642 97.7295 57.9876Z" fill="#FFB27D"/>
<path d="M95.6158 57.7962C94.9002 57.9876 93.6003 58.3308 92.9175 58.3638C92.668 58.377 92.1756 58.1658 91.8539 57.5124C91.7751 57.354 91.7095 57.1692 91.657 56.958C91.611 56.7666 91.5716 56.5752 91.5716 56.3772C91.5651 56.1462 91.5979 55.9218 91.657 55.704C91.7161 55.506 91.8802 55.3344 92.0968 55.2552C92.0968 55.2552 92.0968 55.2552 92.1034 55.2552C92.8453 54.9912 93.8497 54.6744 94.7164 54.5226C95.3138 54.417 95.8784 54.7074 96.0228 55.2024L96.1213 55.5588L96.4233 56.6214C96.5546 57.1164 96.2001 57.6378 95.6158 57.7962Z" fill="#FFD3B6"/>
<path d="M95.6154 57.7962C94.8998 57.9876 93.5999 58.3308 92.9171 58.3638C92.6676 58.377 92.1752 58.1658 91.8535 57.5124C91.8076 57.3342 91.7813 57.156 91.7748 56.9712C91.7682 56.7468 91.801 56.5158 91.8601 56.298C91.9192 56.1 92.0833 55.9284 92.3 55.8492C92.3 55.8492 92.3 55.8492 92.3065 55.8492C93.0484 55.5852 94.0529 55.2684 94.9195 55.1166C95.4119 55.0308 95.8911 55.2156 96.1144 55.5588L96.4164 56.6214C96.5542 57.1164 96.1997 57.6378 95.6154 57.7962Z" fill="#FFC197"/>
<path d="M33.6729 103.198C33.6729 103.198 41.7218 110.946 47.1447 113.936L51.2545 111.005V115.328C51.2545 115.328 59.3363 116.767 61.8836 115.328V103.547L39.1942 92.1162L33.6729 103.198Z" fill="#447FAB"/>
<path d="M63.5973 114.398C60.4723 115.045 53.7363 112.576 53.7363 112.576L54.8262 102.023L47.2105 110.788C43.337 109.336 37.2773 105.554 33.6796 103.204C31.8873 102.029 30.7056 101.211 30.7056 101.211C35.787 92.994 40.8948 85.305 40.8948 85.305C42.3917 88.3212 45.9434 90.9414 49.7907 93.0336C56.1852 96.5184 63.4069 98.5512 63.4069 98.5512C63.4003 104.821 63.5973 114.398 63.5973 114.398Z" fill="#DCEAFF"/>
<path d="M99.9026 43.2894C99.8763 43.3026 99.8501 43.3092 99.8172 43.3158L94.6898 44.6358C92.438 45.2166 90.1073 43.989 89.5099 41.91L89.2079 40.8474C88.6367 38.8476 89.8644 36.762 91.9587 36.0822L93.6525 35.6466L97.0861 34.7622C99.338 34.1814 101.669 35.409 102.266 37.488L102.568 38.5506C103.133 40.524 101.944 42.5832 99.9026 43.2894Z" fill="#FFB27D"/>
<path d="M97.5585 41.8506L95.0703 42.9792C95.0638 42.9792 95.0638 42.9792 95.0572 42.9858C94.9587 43.0122 94.8537 43.032 94.7552 43.0452C94.7158 43.0518 94.6699 43.0584 94.6305 43.0584C94.6108 43.0584 94.5976 43.0584 94.5779 43.0584C94.3022 43.0518 94.1184 42.7548 94.2365 42.4974C94.4729 41.9826 94.5385 41.3886 94.3744 40.8012L94.3153 40.5834V40.5768L94.1249 39.864C93.9739 39.2964 93.6457 38.8212 93.2189 38.478C93.1664 38.4384 93.1139 38.3988 93.0614 38.3592C92.569 38.016 92.6937 37.2372 93.2715 37.0788C93.278 37.0788 93.2846 37.0788 93.2846 37.0722L96.0157 36.6564C96.6919 36.4716 97.3419 36.993 97.5257 37.6728L97.7424 38.4846L98.2085 40.2138C98.3923 40.9002 98.2282 41.6658 97.5585 41.8506Z" fill="#FFD3B6"/>
<path d="M97.5588 41.8506L95.0706 42.9792C95.0641 42.9792 95.0641 42.9792 95.0575 42.9858C94.9984 42.999 94.8146 43.0254 94.5782 43.065C94.3025 43.0584 94.1187 42.7614 94.2368 42.504C94.4732 41.9892 94.5388 41.3952 94.3747 40.8078L94.3156 40.59V40.5834L94.1252 39.8706C93.9742 39.303 93.646 38.8278 93.2192 38.4846C93.3046 38.3526 93.4359 38.2536 93.6132 38.2074C93.6197 38.2074 93.6263 38.2074 93.6263 38.2008L96.3574 37.785C96.9286 37.6266 97.4801 37.9764 97.7492 38.4912L98.2154 40.2204C98.3926 40.9002 98.2285 41.6658 97.5588 41.8506Z" fill="#FFC197"/>
<path d="M56.5003 70.092C56.5003 70.092 55.3843 60.2778 54.3535 58.3638C53.3228 56.4498 52.4496 52.6152 54.0384 49.7706C55.6206 46.926 56.1721 41.448 56.1721 41.448C56.7892 47.7048 54.9378 52.3446 56.2377 53.5722C56.2837 53.6184 56.3756 53.5986 56.5003 53.5128V70.092Z" fill="#EFA26F"/>
<path d="M42.641 54.1068H81.4808C82.8267 54.1068 83.9231 53.0112 83.9231 51.6516V36.0162C83.9231 34.6632 82.8332 33.561 81.4808 33.561H42.641C41.2951 33.561 40.1987 34.6566 40.1987 36.0162V51.6516C40.1987 53.0112 41.2951 54.1068 42.641 54.1068Z" fill="#699DEE"/>
<path d="M81.75 30.9606H66.5515C65.4223 30.9606 64.5098 30.0432 64.5098 28.908V26.0106C64.5098 24.8754 65.4223 23.958 66.5515 23.958H81.75C82.8792 23.958 83.7918 24.8754 83.7918 26.0106V28.908C83.7918 30.0432 82.8792 30.9606 81.75 30.9606Z" fill="#9ABFF6"/>
<path d="M89.9827 64.6997C89.5888 64.0199 88.8797 62.7857 88.6368 62.0927C88.5712 61.8947 88.5777 61.5053 88.8141 61.0895C88.9585 60.8387 89.1817 60.5813 89.5231 60.3503C89.6807 60.2447 89.8448 60.1457 90.0221 60.0797C90.2256 60.0071 90.4423 59.9675 90.6589 59.9609C90.8559 59.9609 91.0594 60.0731 91.2038 60.2777C91.67 60.9641 92.2674 61.9013 92.6679 62.7461C92.9502 63.3335 92.8583 64.0067 92.4512 64.3037L92.2608 64.4423L91.2892 65.1551C90.8821 65.4587 90.3044 65.2541 89.9827 64.6997Z" fill="#FFD3B6"/>
<path d="M72.4272 26.1096H67.3129C67.1356 26.1096 66.9912 25.9644 66.9912 25.7862V25.6344C66.9912 25.4562 67.1356 25.311 67.3129 25.311H72.4272C72.6045 25.311 72.7489 25.4562 72.7489 25.6344V25.7862C72.7489 25.9644 72.6045 26.1096 72.4272 26.1096Z" fill="#699DEE"/>
<path d="M72.4929 28.1688H67.2538C67.1094 28.1688 66.9912 28.05 66.9912 27.9048C66.9912 27.7596 67.1094 27.6408 67.2538 27.6408H72.4929C72.6373 27.6408 72.7555 27.7596 72.7555 27.9048C72.7489 28.05 72.6373 28.1688 72.4929 28.1688Z" fill="#699DEE"/>
<path d="M70.1688 29.4096H67.1882C67.0766 29.4096 66.9912 29.3172 66.9912 29.2116V29.0862C66.9912 28.974 67.0831 28.8882 67.1882 28.8882H70.1688C70.2804 28.8882 70.3657 28.9806 70.3657 29.0862V29.2116C70.3723 29.3172 70.2804 29.4096 70.1688 29.4096Z" fill="#699DEE"/>
<path d="M76.2481 29.4096H71.4292C71.2913 29.4096 71.1797 29.2974 71.1797 29.1588V29.139C71.1797 29.0004 71.2913 28.8882 71.4292 28.8882H76.2481C76.3859 28.8882 76.4975 29.0004 76.4975 29.139V29.1588C76.4975 29.2974 76.3859 29.4096 76.2481 29.4096Z" fill="#699DEE"/>
<path d="M80.7521 28.1688H73.8783C73.7339 28.1688 73.6157 28.05 73.6157 27.9048C73.6157 27.7596 73.7339 27.6408 73.8783 27.6408H80.7521C80.8966 27.6408 81.0147 27.7596 81.0147 27.9048C81.0082 28.05 80.89 28.1688 80.7521 28.1688Z" fill="#699DEE"/>
<path d="M62.2775 45.5598H50.8737C50.5651 45.5598 50.3091 45.3024 50.3091 44.9922C50.3091 44.682 50.5651 44.4246 50.8737 44.4246H62.2775C62.586 44.4246 62.8421 44.682 62.8421 44.9922C62.8421 45.3024 62.586 45.5598 62.2775 45.5598Z" fill="#CBE1FD"/>
<path d="M80.2462 45.5598H65.2907C64.9821 45.5598 64.7261 45.3024 64.7261 44.9922C64.7261 44.682 64.9821 44.4246 65.2907 44.4246H80.2462C80.5548 44.4246 80.8108 44.682 80.8108 44.9922C80.8108 45.3024 80.5548 45.5598 80.2462 45.5598Z" fill="#CBE1FD"/>
<path d="M56.651 48.1602H45.2472C44.9387 48.1602 44.6826 47.9028 44.6826 47.5926C44.6826 47.2824 44.9387 47.025 45.2472 47.025H56.651C56.9596 47.025 57.2156 47.2824 57.2156 47.5926C57.2156 47.9028 56.9596 48.1602 56.651 48.1602Z" fill="#CBE1FD"/>
<path d="M74.6201 48.1602H59.6711C59.3625 48.1602 59.1064 47.9028 59.1064 47.5926C59.1064 47.2824 59.3625 47.025 59.6711 47.025H74.6266C74.9352 47.025 75.1912 47.2824 75.1912 47.5926C75.1847 47.9028 74.9352 48.1602 74.6201 48.1602Z" fill="#CBE1FD"/>
<path d="M58.5812 50.9124H47.1774C46.8688 50.9124 46.6128 50.655 46.6128 50.3448C46.6128 50.0346 46.8688 49.7772 47.1774 49.7772H58.5812C58.8898 49.7772 59.1458 50.0346 59.1458 50.3448C59.1524 50.655 58.8963 50.9124 58.5812 50.9124Z" fill="#CBE1FD"/>
<path d="M76.5502 50.9124H61.6012C61.2927 50.9124 61.0366 50.655 61.0366 50.3448C61.0366 50.0346 61.2927 49.7772 61.6012 49.7772H76.5502C76.8588 49.7772 77.1148 50.0346 77.1148 50.3448C77.1214 50.655 76.8654 50.9124 76.5502 50.9124Z" fill="#CBE1FD"/>
<path d="M77.4166 26.1096H73.7401C73.5891 26.1096 73.4644 25.9842 73.4644 25.8324V25.5816C73.4644 25.4298 73.5891 25.3044 73.7401 25.3044H77.4166C77.5676 25.3044 77.6923 25.4298 77.6923 25.5816V25.8324C77.6923 25.9908 77.5676 26.1096 77.4166 26.1096Z" fill="#699DEE"/>
<path d="M63.6821 21.9318L63.2948 22.2156L62.9009 21.9384C62.9862 21.813 63.1307 21.7338 63.2948 21.7338C63.4524 21.7338 63.5968 21.813 63.6821 21.9318Z" fill="white"/>
<path d="M63.295 21.0474C62.9011 21.0474 62.5597 21.2454 62.3496 21.5424L62.5991 21.714C62.7567 21.4962 63.0127 21.351 63.3016 21.351C63.5904 21.351 63.8399 21.4896 63.9975 21.714L64.2469 21.5358C64.0237 21.2388 63.6823 21.0474 63.295 21.0474Z" fill="white"/>
<path d="M63.2949 19.7472C62.4677 19.7472 61.7324 20.163 61.2925 20.7966L61.542 20.9682C61.9293 20.4138 62.5727 20.0508 63.3014 20.0508C64.0171 20.0508 64.6604 20.4072 65.0478 20.955L65.2907 20.7768C64.8443 20.1564 64.1155 19.7472 63.2949 19.7472Z" fill="white"/>
<path d="M63.295 20.46C62.7041 20.46 62.1855 20.7504 61.8638 21.1992L62.1132 21.3708C62.3759 21.0012 62.8092 20.757 63.295 20.757C63.7808 20.757 64.2076 20.9946 64.4702 21.3576L64.7131 21.1794C64.3979 20.7504 63.8793 20.46 63.295 20.46Z" fill="white"/>
<path d="M85.5381 27.3108C85.5381 27.8916 85.735 28.4196 86.0567 28.8486C86.1618 28.9872 86.2865 29.1192 86.4244 29.2314C86.8577 29.601 87.4289 29.8254 88.046 29.8254C88.604 29.8254 89.1227 29.6406 89.5429 29.3238C89.7267 29.1852 89.8908 29.0202 90.0287 28.842C90.357 28.4196 90.5473 27.885 90.5473 27.3042C90.5473 25.9116 89.4247 24.783 88.0394 24.783C86.6542 24.783 85.5381 25.9182 85.5381 27.3108Z" fill="white"/>
<path d="M89.3195 28.7364C89.3195 28.7298 89.313 28.7232 89.3064 28.7166C89.2933 28.7034 89.2801 28.6902 89.267 28.677C89.2342 28.6506 89.1948 28.6308 89.1423 28.611C89.1423 28.611 89.1423 28.611 89.1357 28.611C88.919 28.5186 88.6302 28.4856 88.6302 28.4856C88.5514 28.4724 88.4857 28.4658 88.4529 28.4592C88.4332 28.4394 88.4135 28.413 88.3873 28.3734C88.315 28.248 88.2494 28.017 88.2363 27.7068C88.2363 27.7068 88.3282 27.489 88.4529 27.555C88.6499 27.6606 89.0175 27.2316 88.8993 26.664C88.8862 26.6046 88.8731 26.5452 88.8534 26.499C88.8928 26.5188 88.9387 26.532 88.9847 26.532C89.0963 26.532 89.267 26.2416 89.2933 26.1492C89.3195 26.0502 89.2933 25.7334 89.1357 25.641C88.9847 25.5486 88.7483 25.6542 88.7352 25.6608C88.814 25.5552 89.0766 25.575 89.1226 25.5816C88.512 25.4562 88.3807 25.8522 88.3741 25.8852C87.9868 25.5288 87.3894 26.1426 87.2449 26.3076C87.2318 26.3142 87.2252 26.3274 87.2121 26.334C87.1793 26.3538 87.1399 26.3868 87.1005 26.433C87.0217 26.5254 87.002 26.6442 87.002 26.763C87.002 26.9676 87.0808 27.1524 87.0808 27.1524C87.1136 27.4956 87.2121 27.918 87.3697 27.9312C87.3697 27.9312 87.4222 27.9312 87.5075 27.9246C87.5075 27.9312 87.5075 27.9312 87.5075 27.9378C87.5075 27.9972 87.5141 28.0632 87.5141 28.1226V28.1622C87.5141 28.3338 87.501 28.4988 87.4681 28.5186C87.455 28.5186 87.4419 28.5186 87.4353 28.5186C87.4222 28.5186 87.3893 28.5252 87.3893 28.5252C87.2515 28.545 87.153 28.5582 87.0874 28.5714C86.9495 28.5978 86.9167 28.611 86.8838 28.6374C86.8773 28.644 86.8707 28.6572 86.8576 28.6638C86.7591 28.7364 86.5753 28.9146 86.4111 29.2512C86.4374 29.271 86.4571 29.2908 86.4834 29.3106C86.4899 29.3106 86.4899 29.3172 86.4965 29.3172C86.5162 29.3304 86.5359 29.3436 86.5556 29.3568C86.5687 29.37 86.5818 29.3766 86.595 29.3898C86.6081 29.3964 86.6212 29.4096 86.6344 29.4162C86.654 29.4294 86.6737 29.4426 86.6934 29.4558C86.7066 29.4624 86.7197 29.4756 86.7328 29.4822C86.7525 29.4954 86.7657 29.502 86.7854 29.5152C86.805 29.5284 86.8247 29.535 86.8444 29.5482C86.8444 29.5482 86.8444 29.5482 86.851 29.5482L86.8576 29.5548C86.8707 29.5614 86.8904 29.5746 86.9035 29.5812C86.9101 29.5812 86.9167 29.5878 86.9167 29.5878C86.9232 29.5944 86.9364 29.5944 86.9429 29.601C86.9495 29.6076 86.9626 29.6076 86.9692 29.6142C86.9889 29.6208 87.0086 29.634 87.0283 29.6406C87.048 29.6472 87.0677 29.6604 87.0874 29.667C87.0939 29.6736 87.107 29.6736 87.1136 29.6802C87.1202 29.6802 87.1333 29.6868 87.1399 29.6934C87.1596 29.7 87.1793 29.7066 87.199 29.7132C87.2187 29.7198 87.2383 29.7264 87.258 29.733C87.2777 29.7396 87.2909 29.7462 87.3106 29.7462H87.3171C87.3303 29.7462 87.3368 29.7528 87.35 29.7528C87.409 29.7726 87.4681 29.7858 87.5338 29.7924C87.56 29.799 87.5863 29.8056 87.6126 29.8056C87.6191 29.8056 87.6257 29.8056 87.6323 29.8056H87.6388C87.6585 29.8056 87.6716 29.8122 87.6913 29.8122C87.6979 29.8122 87.6979 29.8122 87.7045 29.8122H87.711C87.7307 29.8122 87.7439 29.8188 87.757 29.8188H87.7636C87.7701 29.8188 87.7767 29.8188 87.7767 29.8188C87.803 29.8188 87.8358 29.8254 87.862 29.8254H87.8686C87.8752 29.8254 87.8883 29.8254 87.8949 29.8254C87.9014 29.8254 87.908 29.8254 87.9146 29.8254C87.9408 29.8254 87.9737 29.8254 87.9999 29.8254C88.558 29.8254 89.0766 29.6406 89.4968 29.3238C89.4705 29.0862 89.3917 28.875 89.3195 28.7364Z" fill="#F99746"/>
<path d="M63.5969 114.398C60.4719 115.045 53.7359 112.576 53.7359 112.576L54.8258 102.023L47.2101 110.788C43.3366 109.336 37.2769 105.554 33.6792 103.204C42.9033 102.194 49.7903 93.0402 49.7903 93.0402C56.1848 96.525 63.4065 98.5578 63.4065 98.5578C63.3999 104.821 63.5969 114.398 63.5969 114.398Z" fill="#CBE1FD"/>
<path d="M42.1485 104.815C42.1551 104.108 42.7262 103.547 43.4287 103.554C44.1312 103.561 44.6892 104.135 44.6827 104.841C44.6761 105.547 44.1049 106.108 43.4025 106.102C42.7 106.088 42.1419 105.514 42.1485 104.815Z" fill="#F99746"/>
</svg>
