<svg width="19" height="20" viewBox="0 0 19 20" fill="none" xmlns="http://www.w3.org/2000/svg">
<path d="M9.79679 9C8.73336 9 7.71348 8.57857 6.96152 7.82843C6.20956 7.07828 5.78711 6.06087 5.78711 5C5.78711 3.93913 6.20956 2.92172 6.96152 2.17157C7.71348 1.42143 8.73336 1 9.79679 1C10.8602 1 11.8801 1.42143 12.6321 2.17157C13.384 2.92172 13.8065 3.93913 13.8065 5C13.8065 6.06087 13.384 7.07828 12.6321 7.82843C11.8801 8.57857 10.8602 9 9.79679 9Z" stroke="#33383A" stroke-width="2" stroke-linecap="round"/>
<path d="M1.77734 19V18C1.77734 16.4087 2.41102 14.8826 3.53896 13.7574C4.6669 12.6321 6.19672 12 7.79187 12H11.8016C13.3967 12 14.9265 12.6321 16.0545 13.7574C17.1824 14.8826 17.8161 16.4087 17.8161 18V19" stroke="#33383A" stroke-width="2" stroke-linecap="round"/>
</svg>
