<svg width="24" height="25" viewBox="0 0 24 25" fill="none" xmlns="http://www.w3.org/2000/svg">
<path d="M4.73005 19.7216L5.07054 19.0534L4.73005 19.7216ZM2.54497 17.5366L3.21322 17.1961L2.54497 17.5366ZM21.455 17.5366L20.7868 17.1961L21.455 17.5366ZM19.27 19.7216L18.9295 19.0534L19.27 19.7216ZM19.27 4.81157L18.9295 5.47982L19.27 4.81157ZM21.455 6.99665L22.1233 6.65616L21.455 6.99665ZM4.73005 4.81157L5.07054 5.47982L4.73005 4.81157ZM2.54497 6.99665L1.87671 6.65616L2.54497 6.99665ZM15 18.0166C15.4142 18.0166 15.75 17.6808 15.75 17.2666C15.75 16.8524 15.4142 16.5166 15 16.5166V18.0166ZM11 16.5166C10.5858 16.5166 10.25 16.8524 10.25 17.2666C10.25 17.6808 10.5858 18.0166 11 18.0166V16.5166ZM8 18.0166C8.41421 18.0166 8.75 17.6808 8.75 17.2666C8.75 16.8524 8.41421 16.5166 8 16.5166V18.0166ZM6 16.5166C5.58579 16.5166 5.25 16.8524 5.25 17.2666C5.25 17.6808 5.58579 18.0166 6 18.0166V16.5166ZM2.01105 10.2666L1.26118 10.2522L2.01105 10.2666ZM21.989 10.2666L22.7388 10.2522L21.989 10.2666ZM10 5.0166H14V3.5166H10V5.0166ZM14 19.5166H10V21.0166H14V19.5166ZM10 19.5166C8.58749 19.5166 7.57322 19.516 6.77708 19.451C5.9897 19.3866 5.48197 19.263 5.07054 19.0534L4.38955 20.3899C5.04768 20.7252 5.77479 20.8741 6.65494 20.946C7.52632 21.0172 8.61224 21.0166 10 21.0166V19.5166ZM1.25 12.2666C1.25 13.6544 1.24942 14.7403 1.32061 15.6117C1.39252 16.4918 1.54138 17.2189 1.87671 17.877L3.21322 17.1961C3.00359 16.7846 2.87996 16.2769 2.81563 15.4895C2.75058 14.6934 2.75 13.6791 2.75 12.2666H1.25ZM5.07054 19.0534C4.27085 18.6459 3.62068 17.9958 3.21322 17.1961L1.87671 17.877C2.42798 18.959 3.30762 19.8386 4.38955 20.3899L5.07054 19.0534ZM21.25 12.2666C21.25 13.6791 21.2494 14.6934 21.1844 15.4895C21.12 16.2769 20.9964 16.7846 20.7868 17.1961L22.1233 17.877C22.4586 17.2189 22.6075 16.4918 22.6794 15.6117C22.7506 14.7403 22.75 13.6544 22.75 12.2666H21.25ZM14 21.0166C15.3878 21.0166 16.4737 21.0172 17.3451 20.946C18.2252 20.8741 18.9523 20.7252 19.6104 20.3899L18.9295 19.0534C18.518 19.263 18.0103 19.3866 17.2229 19.451C16.4268 19.516 15.4125 19.5166 14 19.5166V21.0166ZM20.7868 17.1961C20.3793 17.9958 19.7291 18.6459 18.9295 19.0534L19.6104 20.3899C20.6924 19.8386 21.572 18.959 22.1233 17.877L20.7868 17.1961ZM14 5.0166C15.4125 5.0166 16.4268 5.01718 17.2229 5.08223C18.0103 5.14656 18.518 5.27019 18.9295 5.47982L19.6104 4.14331C18.9523 3.80798 18.2252 3.65912 17.3451 3.58721C16.4737 3.51602 15.3878 3.5166 14 3.5166V5.0166ZM18.9295 5.47982C19.7291 5.88729 20.3793 6.53745 20.7868 7.33714L22.1233 6.65616C21.572 5.57422 20.6924 4.69459 19.6104 4.14331L18.9295 5.47982ZM10 3.5166C8.61224 3.5166 7.52632 3.51602 6.65494 3.58721C5.77479 3.65912 5.04768 3.80798 4.38955 4.14331L5.07054 5.47982C5.48197 5.27019 5.9897 5.14656 6.77708 5.08223C7.57322 5.01718 8.58749 5.0166 10 5.0166V3.5166ZM4.38955 4.14331C3.30762 4.69459 2.42798 5.57422 1.87671 6.65616L3.21322 7.33714C3.62068 6.53745 4.27085 5.88729 5.07054 5.47982L4.38955 4.14331ZM15 16.5166H11V18.0166H15V16.5166ZM8 16.5166H6V18.0166H8V16.5166ZM2.75 12.2666C2.75 11.5009 2.75003 10.8493 2.76091 10.281L1.26118 10.2522C1.24997 10.8379 1.25 11.5052 1.25 12.2666H2.75ZM2.76091 10.281C2.79044 8.73879 2.90325 7.9455 3.21322 7.33714L1.87671 6.65616C1.39394 7.60365 1.2906 8.71598 1.26118 10.2522L2.76091 10.281ZM21.989 9.5166H2.01105V11.0166H21.989V9.5166ZM22.75 12.2666C22.75 11.5052 22.75 10.8379 22.7388 10.2522L21.2391 10.281C21.25 10.8493 21.25 11.5009 21.25 12.2666H22.75ZM22.7388 10.2522C22.7094 8.71598 22.6061 7.60365 22.1233 6.65616L20.7868 7.33714C21.0968 7.9455 21.2096 8.73879 21.2391 10.281L22.7388 10.2522Z" fill="#2D264B"/>
</svg>
