<svg width="24" height="25" viewBox="0 0 24 25" fill="none" xmlns="http://www.w3.org/2000/svg">
<path d="M4.78217 9.27145L4.8995 10.0122L4.8995 10.0122L4.78217 9.27145ZM8.93844 5.11518L9.67921 5.23251L9.67921 5.23251L8.93844 5.11518ZM18.9389 20.3781L18.4981 19.7713L18.9389 20.3781ZM20.0451 19.2719L19.4383 18.8311L20.0451 19.2719ZM3.95491 19.2719L4.56168 18.8311L3.95491 19.2719ZM5.06107 20.3781L5.50191 19.7713L5.06107 20.3781ZM5.06107 4.28792L4.62024 3.68116L5.06107 4.28792ZM3.95491 5.39408L3.34815 4.95324L3.95491 5.39408ZM18.9389 4.28792L18.4981 4.89469L18.9389 4.28792ZM20.0451 5.39408L19.4383 5.83492L20.0451 5.39408ZM9 3.36194L8.97432 2.61238L9 3.36194ZM3.02893 9.33301L2.27937 9.30733L3.02893 9.33301ZM13 15.583C12.5858 15.583 12.25 15.9188 12.25 16.333C12.25 16.7472 12.5858 17.083 13 17.083V15.583ZM16 17.083C16.4142 17.083 16.75 16.7472 16.75 16.333C16.75 15.9188 16.4142 15.583 16 15.583V17.083ZM8 11.583C7.58579 11.583 7.25 11.9188 7.25 12.333C7.25 12.7472 7.58579 13.083 8 13.083V11.583ZM16 13.083C16.4142 13.083 16.75 12.7472 16.75 12.333C16.75 11.9188 16.4142 11.583 16 11.583V13.083ZM13 7.58301C12.5858 7.58301 12.25 7.91879 12.25 8.33301C12.25 8.74722 12.5858 9.08301 13 9.08301V7.58301ZM16 9.08301C16.4142 9.08301 16.75 8.74722 16.75 8.33301C16.75 7.91879 16.4142 7.58301 16 7.58301V9.08301ZM4.8995 10.0122C7.35988 9.62253 9.28952 7.69289 9.67921 5.23251L8.19768 4.99785C7.90965 6.8164 6.48339 8.24265 4.66485 8.53068L4.8995 10.0122ZM12 22.083C13.8582 22.083 15.312 22.084 16.4635 21.9593C17.6291 21.833 18.5734 21.5707 19.3798 20.9849L18.4981 19.7713C17.9901 20.1404 17.3399 20.3556 16.302 20.468C15.25 20.582 13.8916 20.583 12 20.583V22.083ZM20.25 12.333C20.25 14.2246 20.249 15.583 20.135 16.635C20.0225 17.6729 19.8074 18.3231 19.4383 18.8311L20.6518 19.7128C21.2377 18.9064 21.5 17.9621 21.6263 16.7965C21.751 15.645 21.75 14.1912 21.75 12.333H20.25ZM19.3798 20.9849C19.8679 20.6302 20.2972 20.2009 20.6518 19.7128L19.4383 18.8311C19.1762 19.1919 18.8589 19.5092 18.4981 19.7713L19.3798 20.9849ZM2.25 12.333C2.25 14.1912 2.24897 15.645 2.37373 16.7965C2.50001 17.9621 2.76232 18.9064 3.34815 19.7128L4.56168 18.8311C4.19259 18.3231 3.97745 17.6729 3.865 16.635C3.75103 15.583 3.75 14.2246 3.75 12.333H2.25ZM12 20.583C10.1084 20.583 8.74999 20.582 7.69804 20.468C6.66013 20.3556 6.00992 20.1404 5.50191 19.7713L4.62024 20.9849C5.42656 21.5707 6.37094 21.833 7.53648 21.9593C8.68798 22.084 10.1418 22.083 12 22.083V20.583ZM3.34815 19.7128C3.70281 20.2009 4.13209 20.6302 4.62024 20.9849L5.50191 19.7713C5.14111 19.5092 4.82382 19.1919 4.56168 18.8311L3.34815 19.7128ZM4.62024 3.68116C4.13209 4.03582 3.70281 4.4651 3.34815 4.95324L4.56168 5.83492C4.82381 5.47412 5.14111 5.15682 5.50191 4.89469L4.62024 3.68116ZM12 4.08301C13.8916 4.08301 15.25 4.08404 16.302 4.19801C17.3399 4.31046 17.9901 4.5256 18.4981 4.89469L19.3798 3.68116C18.5734 3.09533 17.6291 2.83301 16.4635 2.70674C15.312 2.58198 13.8582 2.58301 12 2.58301V4.08301ZM21.75 12.333C21.75 10.4748 21.751 9.02098 21.6263 7.86948C21.5 6.70395 21.2377 5.75957 20.6518 4.95324L19.4383 5.83492C19.8074 6.34292 20.0225 6.99314 20.135 8.03105C20.249 9.083 20.25 10.4414 20.25 12.333H21.75ZM18.4981 4.89469C18.8589 5.15682 19.1762 5.47412 19.4383 5.83492L20.6518 4.95324C20.2972 4.4651 19.8679 4.03582 19.3798 3.68116L18.4981 4.89469ZM12 2.58301C10.8352 2.58301 9.83424 2.58291 8.97432 2.61238L9.02568 4.1115C9.85445 4.0831 10.8269 4.08301 12 4.08301V2.58301ZM8.97432 2.61238C7.10087 2.67656 5.7239 2.8793 4.62024 3.68116L5.50191 4.89469C6.20746 4.38207 7.17076 4.17505 9.02568 4.1115L8.97432 2.61238ZM8.25 3.36193C8.24999 4.29918 8.24707 4.68599 8.19768 4.99785L9.67921 5.23251C9.75164 4.77515 9.74999 4.24421 9.75 3.36194L8.25 3.36193ZM3.75 12.333C3.75 11.1599 3.75009 10.1875 3.77849 9.35869L2.27937 9.30733C2.24991 10.1673 2.25 11.1682 2.25 12.333H3.75ZM3.77849 9.35869C3.84204 7.50376 4.04907 6.54047 4.56168 5.83492L3.34815 4.95324C2.5463 6.0569 2.34356 7.43388 2.27937 9.30733L3.77849 9.35869ZM3.02893 10.083C3.91121 10.083 4.44215 10.0847 4.8995 10.0122L4.66485 8.53068C4.35298 8.58008 3.96618 8.583 3.02892 8.58301L3.02893 10.083ZM13 17.083H16V15.583H13V17.083ZM8 13.083H16V11.583H8V13.083ZM13 9.08301H16V7.58301H13V9.08301Z" fill="#2D264B"/>
</svg>
