<svg width="24" height="25" viewBox="0 0 24 25" fill="none" xmlns="http://www.w3.org/2000/svg">
<g clip-path="url(#clip0)">
<path d="M14.7808 19.7669L14.1906 19.3041L14.1906 19.3041L14.7808 19.7669ZM9.21921 19.7669L8.62903 20.2297L9.21921 19.7669ZM12 22.0719L12 21.3219L12 22.0719ZM19.25 9.6751C19.25 10.9016 18.6104 12.5428 17.6037 14.3224C16.6137 16.0727 15.3342 17.8458 14.1906 19.3041L15.371 20.2297C16.5371 18.7426 17.8672 16.9034 18.9094 15.0609C19.9349 13.2478 20.75 11.3158 20.75 9.6751H19.25ZM9.80938 19.3041C8.66578 17.8458 7.38628 16.0727 6.39625 14.3224C5.38962 12.5428 4.75 10.9016 4.75 9.6751H3.25C3.25 11.3158 4.06511 13.2478 5.09064 15.0609C6.13277 16.9034 7.46288 18.7426 8.62903 20.2297L9.80938 19.3041ZM4.75 9.6751C4.75 5.28212 8.04678 1.81641 12 1.81641V0.316406C7.11666 0.316406 3.25 4.55918 3.25 9.6751H4.75ZM12 1.81641C15.9532 1.81641 19.25 5.28212 19.25 9.6751H20.75C20.75 4.55918 16.8833 0.316406 12 0.316406V1.81641ZM14.1906 19.3041C13.5717 20.0934 13.1641 20.609 12.7992 20.9405C12.4664 21.2428 12.2442 21.3219 12 21.3219L12 22.8219C12.7291 22.8219 13.2948 22.5168 13.8078 22.0508C14.2886 21.614 14.7849 20.9771 15.371 20.2297L14.1906 19.3041ZM8.62903 20.2297C9.21511 20.9771 9.71136 21.614 10.1922 22.0508C10.7052 22.5168 11.2709 22.8219 12 22.8219L12 21.3219C11.7558 21.3219 11.5336 21.2428 11.2008 20.9405C10.8359 20.609 10.4283 20.0934 9.80938 19.3041L8.62903 20.2297ZM8.25 10.0664C8.25 12.1375 9.92893 13.8164 12 13.8164V12.3164C10.7574 12.3164 9.75 11.309 9.75 10.0664H8.25ZM12 13.8164C14.0711 13.8164 15.75 12.1375 15.75 10.0664H14.25C14.25 11.309 13.2426 12.3164 12 12.3164V13.8164ZM15.75 10.0664C15.75 7.99534 14.0711 6.31641 12 6.31641V7.81641C13.2426 7.81641 14.25 8.82377 14.25 10.0664H15.75ZM12 6.31641C9.92893 6.31641 8.25 7.99534 8.25 10.0664H9.75C9.75 8.82377 10.7574 7.81641 12 7.81641V6.31641Z" fill="#2D264B"/>
</g>
<defs>
<clipPath id="clip0">
<rect width="24" height="24" fill="white" transform="translate(0 0.0664062)"/>
</clipPath>
</defs>
</svg>
