<svg width="24" height="24" viewBox="0 0 24 24" fill="none" xmlns="http://www.w3.org/2000/svg">
<path d="M14 3L14 3.75H14V3ZM15 3L15 2.25H15V3ZM21 9L20.25 9L21 9ZM21 15L21.75 15L21 15ZM15 21L15 21.75L15 21ZM14 21L14 20.25L14 21ZM20.9384 16.7822L21.6792 16.8995L21.6792 16.8995L20.9384 16.7822ZM16.7822 20.9384L16.6648 20.1977L16.7822 20.9384ZM16.7822 3.06156L16.8995 2.32079L16.8995 2.32079L16.7822 3.06156ZM20.9384 7.21783L21.6792 7.1005L21.6792 7.1005L20.9384 7.21783ZM10.5496 3.39996C10.2184 3.64873 10.1516 4.11888 10.4003 4.45007C10.6491 4.78126 11.1192 4.84808 11.4504 4.59931L10.5496 3.39996ZM11.4504 19.4007C11.1192 19.1519 10.6491 19.2187 10.4003 19.5499C10.1516 19.8811 10.2184 20.3513 10.5496 20.6L11.4504 19.4007ZM17 12.75C17.4142 12.75 17.75 12.4142 17.75 12C17.75 11.5858 17.4142 11.25 17 11.25L17 12.75ZM4 12L4 11.25H4V12ZM6.53403 16.5877C6.8586 16.845 7.33034 16.7905 7.58768 16.466C7.84503 16.1414 7.79054 15.6697 7.46597 15.4123L6.53403 16.5877ZM5.23703 14.6022L4.77106 15.1898L4.77106 15.1898L5.23703 14.6022ZM5.23703 9.39785L4.77106 8.81016L4.77106 8.81016L5.23703 9.39785ZM7.46597 8.58768C7.79054 8.33034 7.84503 7.8586 7.58769 7.53403C7.33034 7.20946 6.8586 7.15497 6.53403 7.41232L7.46597 8.58768ZM3.01989 12.2507L2.27923 12.3687L2.27923 12.3687L3.01989 12.2507ZM3.01989 11.7493L2.27923 11.6313L2.27923 11.6313L3.01989 11.7493ZM3 12L2.25 12L3 12ZM14 3.75H15V2.25H14V3.75ZM20.25 9L20.25 15L21.75 15L21.75 9L20.25 9ZM15 20.25L14 20.25L14 21.75L15 21.75L15 20.25ZM20.25 15C20.25 15.9577 20.2477 16.3492 20.1977 16.6648L21.6792 16.8995C21.7523 16.4378 21.75 15.9003 21.75 15L20.25 15ZM15 21.75C15.9003 21.75 16.4378 21.7523 16.8995 21.6792L16.6648 20.1977C16.3492 20.2477 15.9577 20.25 15 20.25L15 21.75ZM20.1977 16.6648C19.9096 18.4834 18.4834 19.9096 16.6648 20.1977L16.8995 21.6792C19.3599 21.2895 21.2895 19.3599 21.6792 16.8995L20.1977 16.6648ZM15 3.75C15.9577 3.75 16.3492 3.75233 16.6648 3.80232L16.8995 2.32079C16.4378 2.24767 15.9003 2.25 15 2.25L15 3.75ZM21.75 9C21.75 8.09965 21.7523 7.56216 21.6792 7.1005L20.1977 7.33515C20.2477 7.65082 20.25 8.04233 20.25 9L21.75 9ZM16.6648 3.80232C18.4834 4.09035 19.9096 5.51661 20.1977 7.33515L21.6792 7.1005C21.2895 4.64012 19.3599 2.71048 16.8995 2.32079L16.6648 3.80232ZM14 2.25C12.7064 2.25 11.5106 2.67806 10.5496 3.39996L11.4504 4.59931C12.1607 4.06583 13.0424 3.75 14 3.75L14 2.25ZM14 20.25C13.0424 20.25 12.1607 19.9342 11.4504 19.4007L10.5496 20.6C11.5106 21.3219 12.7064 21.75 14 21.75L14 20.25ZM17 11.25L4 11.25L4 12.75L17 12.75L17 11.25ZM7.46597 15.4123L5.703 14.0145L4.77106 15.1898L6.53403 16.5877L7.46597 15.4123ZM5.703 9.98553L7.46597 8.58768L6.53403 7.41232L4.77106 8.81016L5.703 9.98553ZM5.703 14.0145C4.98568 13.4457 4.49884 13.0582 4.17113 12.7318C3.84678 12.4087 3.77747 12.2388 3.76055 12.1327L2.27923 12.3687C2.37055 12.9418 2.70685 13.3904 3.11252 13.7945C3.51484 14.1953 4.08245 14.6438 4.77106 15.1898L5.703 14.0145ZM4.77106 8.81016C4.08245 9.35616 3.51484 9.80475 3.11252 10.2055C2.70685 10.6096 2.37055 11.0582 2.27923 11.6313L3.76055 11.8673C3.77747 11.7612 3.84678 11.5913 4.17113 11.2682C4.49884 10.9418 4.98568 10.5543 5.703 9.98553L4.77106 8.81016ZM3.76055 12.1327C3.75348 12.0883 3.75 12.0441 3.75 12L2.25 12C2.25 12.1234 2.25978 12.2466 2.27923 12.3687L3.76055 12.1327ZM3.75 12C3.75 11.9559 3.75348 11.9117 3.76055 11.8673L2.27923 11.6313C2.25978 11.7534 2.25 11.8766 2.25 12L3.75 12ZM4 11.25H3V12.75H4V11.25Z" fill="#2D264B"/>
</svg>
